<svg width="41" height="40" viewBox="0 0 41 40" fill="none" xmlns="http://www.w3.org/2000/svg">
<path d="M29.6171 27.042C28.4924 25.0681 26.7362 23.5301 24.6312 22.6755C25.678 21.8904 26.4512 20.7958 26.8414 19.5469C27.2315 18.2979 27.2188 16.9578 26.805 15.7165C26.3912 14.4752 25.5974 13.3955 24.5359 12.6304C23.4744 11.8653 22.1991 11.4536 20.8906 11.4536C19.5821 11.4536 18.3068 11.8653 17.2453 12.6304C16.1838 13.3955 15.3899 14.4752 14.9761 15.7165C14.5624 16.9578 14.5496 18.2979 14.9398 19.5469C15.3299 20.7958 16.1032 21.8904 17.15 22.6755C15.045 23.5301 13.2888 25.0681 12.1641 27.042C12.0944 27.1541 12.048 27.279 12.0275 27.4094C12.0071 27.5397 12.013 27.6729 12.0451 27.8009C12.0771 27.9289 12.1346 28.0492 12.214 28.1545C12.2935 28.2599 12.3933 28.3482 12.5076 28.4142C12.6218 28.4802 12.7482 28.5226 12.8791 28.5388C13.0101 28.555 13.143 28.5447 13.2699 28.5085C13.3968 28.4723 13.5151 28.411 13.6179 28.3282C13.7206 28.2454 13.8056 28.1427 13.8679 28.0264C15.3543 25.4572 17.9793 23.9248 20.8906 23.9248C23.8019 23.9248 26.4269 25.458 27.9133 28.0264C28.0482 28.2434 28.2623 28.3994 28.5102 28.4614C28.7581 28.5235 29.0204 28.4867 29.2416 28.3589C29.4629 28.231 29.6258 28.0222 29.6958 27.7764C29.7659 27.5307 29.7376 27.2673 29.6171 27.042ZM16.625 17.6904C16.625 16.8468 16.8751 16.0221 17.3438 15.3206C17.8126 14.6191 18.4788 14.0724 19.2582 13.7495C20.0376 13.4267 20.8953 13.3422 21.7228 13.5068C22.5502 13.6714 23.3103 14.0776 23.9068 14.6742C24.5034 15.2708 24.9096 16.0308 25.0742 16.8583C25.2388 17.6857 25.1544 18.5434 24.8315 19.3228C24.5086 20.1023 23.9619 20.7685 23.2604 21.2372C22.559 21.7059 21.7342 21.9561 20.8906 21.9561C19.7597 21.9548 18.6754 21.5049 17.8758 20.7053C17.0761 19.9056 16.6263 18.8214 16.625 17.6904Z" fill="#C7C5CD"/>
</svg>
