<svg width="41" height="40" viewBox="0 0 41 40" fill="none" xmlns="http://www.w3.org/2000/svg">
<path d="M27.845 16.7024L22.512 12.5544C22.044 12.1904 21.468 11.9927 20.875 11.9927C20.282 11.9927 19.706 12.1904 19.238 12.5544L13.904 16.7024C13.5834 16.9517 13.3241 17.271 13.1458 17.6358C12.9674 18.0006 12.8748 18.4014 12.875 18.8074V26.0074C12.875 26.5379 13.0857 27.0466 13.4608 27.4217C13.8359 27.7967 14.3446 28.0074 14.875 28.0074H26.875C27.4054 28.0074 27.9141 27.7967 28.2892 27.4217C28.6643 27.0466 28.875 26.5379 28.875 26.0074V18.8074C28.875 17.9844 28.495 17.2074 27.845 16.7024Z" stroke="#C7C5CD" stroke-width="2" stroke-linecap="round" stroke-linejoin="round"/>
<path d="M24.8447 22.9924C22.6347 24.3254 19.0527 24.3254 16.8447 22.9924" stroke="#C7C5CD" stroke-width="2" stroke-linecap="round" stroke-linejoin="round"/>
</svg>
