<svg width="41" height="40" viewBox="0 0 41 40" fill="none" xmlns="http://www.w3.org/2000/svg">
<path d="M15.125 11.25C16.8489 11.25 18.5022 11.9348 19.7212 13.1538C20.9402 14.3728 21.625 16.0261 21.625 17.75C21.625 19.36 21.035 20.84 20.065 21.98L20.335 22.25H21.125L26.125 27.25L24.625 28.75L19.625 23.75V22.96L19.355 22.69C18.1755 23.6968 16.6757 24.2499 15.125 24.25C13.4011 24.25 11.7478 23.5652 10.5288 22.3462C9.30982 21.1272 8.625 19.4739 8.625 17.75C8.625 16.0261 9.30982 14.3728 10.5288 13.1538C11.7478 11.9348 13.4011 11.25 15.125 11.25ZM15.125 13.25C12.625 13.25 10.625 15.25 10.625 17.75C10.625 20.25 12.625 22.25 15.125 22.25C17.625 22.25 19.625 20.25 19.625 17.75C19.625 15.25 17.625 13.25 15.125 13.25Z" fill="#C7C5CD"/>
</svg>
