<svg width="20" height="19" viewBox="0 0 20 19" fill="none" xmlns="http://www.w3.org/2000/svg">
    <g id="Group 48095466">
        <g id="Vector">
            <path id="Vector-36-path"
                d="M9.43977 2.31934H6.07991C3.60578 2.31934 1.6001 4.32509 1.6001 6.79932V13.5193C1.6001 15.9935 3.60578 17.9993 6.07991 17.9993H12.7996C15.2738 17.9993 17.2795 15.9935 17.2795 13.5193V10.1593"
                stroke="white" stroke-width="1.8" stroke-linecap="round" />
        </g>
        <g id="Vector_2">
            <path id="Vector-48"
                d="M11.6802 3.66022C11.1831 3.66022 10.7802 4.06316 10.7802 4.56022C10.7802 5.05727 11.1831 5.46022 11.6802 5.46022V3.66022ZM15.04 5.46022C15.5371 5.46022 15.94 5.05727 15.94 4.56022C15.94 4.06316 15.5371 3.66022 15.04 3.66022V5.46022ZM15.0406 3.66022C14.5435 3.66022 14.1406 4.06316 14.1406 4.56022C14.1406 5.05727 14.5435 5.46022 15.0406 5.46022V3.66022ZM18.4005 5.46022C18.8975 5.46022 19.3005 5.05727 19.3005 4.56022C19.3005 4.06316 18.8975 3.66022 18.4005 3.66022V5.46022ZM15.9403 4.56055C15.9403 4.06349 15.5373 3.66055 15.0403 3.66055C14.5432 3.66055 14.1403 4.06349 14.1403 4.56055H15.9403ZM14.1403 7.92053C14.1403 8.41759 14.5432 8.82053 15.0403 8.82053C15.5373 8.82053 15.9403 8.41759 15.9403 7.92053H14.1403ZM14.1403 4.56018C14.1403 5.05724 14.5432 5.46018 15.0403 5.46018C15.5373 5.46018 15.9403 5.05724 15.9403 4.56018H14.1403ZM15.9403 1.2002C15.9403 0.703139 15.5373 0.300195 15.0403 0.300195C14.5432 0.300195 14.1403 0.703139 14.1403 1.2002H15.9403ZM11.6802 5.46022H15.04V3.66022H11.6802V5.46022ZM15.0406 5.46022H18.4005V3.66022H15.0406V5.46022ZM15.0403 4.56055H14.1403V4.56055C14.1403 4.56055 14.1403 4.56055 14.1403 4.56055C14.1403 4.56055 14.1403 4.56055 14.1403 4.56055C14.1403 4.56055 14.1403 4.56055 14.1403 4.56055C14.1403 4.56055 14.1403 4.56055 14.1403 4.56055C14.1403 4.56055 14.1403 4.56055 14.1403 4.56056C14.1403 4.56056 14.1403 4.56056 14.1403 4.56056C14.1403 4.56056 14.1403 4.56056 14.1403 4.56057C14.1403 4.56057 14.1403 4.56057 14.1403 4.56057C14.1403 4.56057 14.1403 4.56058 14.1403 4.56058C14.1403 4.56058 14.1403 4.56059 14.1403 4.56059C14.1403 4.56059 14.1403 4.5606 14.1403 4.5606C14.1403 4.56061 14.1403 4.56061 14.1403 4.56062C14.1403 4.56062 14.1403 4.56063 14.1403 4.56063C14.1403 4.56064 14.1403 4.56064 14.1403 4.56065C14.1403 4.56066 14.1403 4.56066 14.1403 4.56067C14.1403 4.56068 14.1403 4.56068 14.1403 4.56069C14.1403 4.5607 14.1403 4.56071 14.1403 4.56072C14.1403 4.56073 14.1403 4.56074 14.1403 4.56075C14.1403 4.56076 14.1403 4.56077 14.1403 4.56078C14.1403 4.56079 14.1403 4.5608 14.1403 4.56081C14.1403 4.56083 14.1403 4.56084 14.1403 4.56085C14.1403 4.56086 14.1403 4.56088 14.1403 4.56089C14.1403 4.56091 14.1403 4.56092 14.1403 4.56094C14.1403 4.56095 14.1403 4.56097 14.1403 4.56099C14.1403 4.561 14.1403 4.56102 14.1403 4.56104C14.1403 4.56106 14.1403 4.56108 14.1403 4.5611C14.1403 4.56112 14.1403 4.56114 14.1403 4.56116C14.1403 4.56118 14.1403 4.5612 14.1403 4.56122C14.1403 4.56125 14.1403 4.56127 14.1403 4.56129C14.1403 4.56132 14.1403 4.56134 14.1403 4.56137C14.1403 4.56139 14.1403 4.56142 14.1403 4.56145C14.1403 4.56147 14.1403 4.5615 14.1403 4.56153C14.1403 4.56156 14.1403 4.56159 14.1403 4.56162C14.1403 4.56165 14.1403 4.56168 14.1403 4.56171C14.1403 4.56175 14.1403 4.56178 14.1403 4.56182C14.1403 4.56185 14.1403 4.56188 14.1403 4.56192C14.1403 4.56196 14.1403 4.56199 14.1403 4.56203C14.1403 4.56207 14.1403 4.56211 14.1403 4.56215C14.1403 4.56219 14.1403 4.56223 14.1403 4.56227C14.1403 4.56231 14.1403 4.56236 14.1403 4.5624C14.1403 4.56245 14.1403 4.56249 14.1403 4.56254C14.1403 4.56258 14.1403 4.56263 14.1403 4.56268C14.1403 4.56273 14.1403 4.56278 14.1403 4.56283C14.1403 4.56288 14.1403 4.56293 14.1403 4.56298C14.1403 4.56304 14.1403 4.56309 14.1403 4.56315C14.1403 4.5632 14.1403 4.56326 14.1403 4.56332C14.1403 4.56337 14.1403 4.56343 14.1403 4.56349C14.1403 4.56355 14.1403 4.56361 14.1403 4.56368C14.1403 4.56374 14.1403 4.5638 14.1403 4.56387C14.1403 4.56393 14.1403 4.564 14.1403 4.56407C14.1403 4.56413 14.1403 4.5642 14.1403 4.56427C14.1403 4.56434 14.1403 4.56442 14.1403 4.56449C14.1403 4.56456 14.1403 4.56464 14.1403 4.56471C14.1403 4.56479 14.1403 4.56486 14.1403 4.56494C14.1403 4.56502 14.1403 4.5651 14.1403 4.56518C14.1403 4.56526 14.1403 4.56535 14.1403 4.56543C14.1403 4.56552 14.1403 4.5656 14.1403 4.56569C14.1403 4.56578 14.1403 4.56586 14.1403 4.56595C14.1403 4.56604 14.1403 4.56614 14.1403 4.56623C14.1403 4.56632 14.1403 4.56642 14.1403 4.56651C14.1403 4.56661 14.1403 4.56671 14.1403 4.56681C14.1403 4.56691 14.1403 4.56701 14.1403 4.56711C14.1403 4.56721 14.1403 4.56732 14.1403 4.56742C14.1403 4.56753 14.1403 4.56764 14.1403 4.56774C14.1403 4.56785 14.1403 4.56796 14.1403 4.56808C14.1403 4.56819 14.1403 4.5683 14.1403 4.56842C14.1403 4.56853 14.1403 4.56865 14.1403 4.56877C14.1403 4.56889 14.1403 4.56901 14.1403 4.56913C14.1403 4.56926 14.1403 4.56938 14.1403 4.56951C14.1403 4.56963 14.1403 4.56976 14.1403 4.56989C14.1403 4.57002 14.1403 4.57015 14.1403 4.57029C14.1403 4.57042 14.1403 4.57055 14.1403 4.57069C14.1403 4.57083 14.1403 4.57097 14.1403 4.57111C14.1403 4.57125 14.1403 4.57139 14.1403 4.57154C14.1403 4.57168 14.1403 4.57183 14.1403 4.57198C14.1403 4.57212 14.1403 4.57227 14.1403 4.57243C14.1403 4.57258 14.1403 4.57273 14.1403 4.57289C14.1403 4.57305 14.1403 4.5732 14.1403 4.57336C14.1403 4.57352 14.1403 4.57369 14.1403 4.57385C14.1403 4.57402 14.1403 4.57418 14.1403 4.57435C14.1403 4.57452 14.1403 4.57469 14.1403 4.57486C14.1403 4.57503 14.1403 4.57521 14.1403 4.57538C14.1403 4.57556 14.1403 4.57574 14.1403 4.57592C14.1403 4.5761 14.1403 4.57628 14.1403 4.57647C14.1403 4.57665 14.1403 4.57684 14.1403 4.57703C14.1403 4.57722 14.1403 4.57741 14.1403 4.57761C14.1403 4.5778 14.1403 4.578 14.1403 4.5782C14.1403 4.57839 14.1403 4.57859 14.1403 4.5788C14.1403 4.579 14.1403 4.5792 14.1403 4.57941C14.1403 4.57962 14.1403 4.57983 14.1403 4.58004C14.1403 4.58025 14.1403 4.58047 14.1403 4.58068C14.1403 4.5809 14.1403 4.58112 14.1403 4.58134C14.1403 4.58156 14.1403 4.58178 14.1403 4.58201C14.1403 4.58224 14.1403 4.58246 14.1403 4.5827C14.1403 4.58293 14.1403 4.58316 14.1403 4.58339C14.1403 4.58363 14.1403 4.58387 14.1403 4.58411C14.1403 4.58435 14.1403 4.58459 14.1403 4.58484C14.1403 4.58508 14.1403 4.58533 14.1403 4.58558C14.1403 4.58583 14.1403 4.58608 14.1403 4.58634C14.1403 4.58659 14.1403 4.58685 14.1403 4.58711C14.1403 4.58737 14.1403 4.58764 14.1403 4.5879C14.1403 4.58817 14.1403 4.58844 14.1403 4.58871C14.1403 4.58898 14.1403 4.58925 14.1403 4.58953C14.1403 4.5898 14.1403 4.59008 14.1403 4.59036C14.1403 4.59064 14.1403 4.59093 14.1403 4.59121C14.1403 4.5915 14.1403 4.59179 14.1403 4.59208C14.1403 4.59237 14.1403 4.59267 14.1403 4.59297C14.1403 4.59326 14.1403 4.59356 14.1403 4.59387C14.1403 4.59417 14.1403 4.59448 14.1403 4.59478C14.1403 4.59509 14.1403 4.5954 14.1403 4.59572C14.1403 4.59603 14.1403 4.59635 14.1403 4.59667C14.1403 4.59699 14.1403 4.59731 14.1403 4.59764C14.1403 4.59796 14.1403 4.59829 14.1403 4.59862C14.1403 4.59895 14.1403 4.59929 14.1403 4.59962C14.1403 4.59996 14.1403 4.6003 14.1403 4.60064C14.1403 4.60098 14.1403 4.60133 14.1403 4.60168C14.1403 4.60203 14.1403 4.60238 14.1403 4.60273C14.1403 4.60309 14.1403 4.60344 14.1403 4.60381C14.1403 4.60417 14.1403 4.60453 14.1403 4.6049C14.1403 4.60526 14.1403 4.60563 14.1403 4.606C14.1403 4.60638 14.1403 4.60675 14.1403 4.60713C14.1403 4.60751 14.1403 4.60789 14.1403 4.60828C14.1403 4.60866 14.1403 4.60905 14.1403 4.60944C14.1403 4.60983 14.1403 4.61023 14.1403 4.61062C14.1403 4.61102 14.1403 4.61142 14.1403 4.61183C14.1403 4.61223 14.1403 4.61264 14.1403 4.61305C14.1403 4.61346 14.1403 4.61387 14.1403 4.61429C14.1403 4.6147 14.1403 4.61512 14.1403 4.61555C14.1403 4.61597 14.1403 4.6164 14.1403 4.61683C14.1403 4.61725 14.1403 4.61769 14.1403 4.61812C14.1403 4.61856 14.1403 4.619 14.1403 4.61944C14.1403 4.61989 14.1403 4.62033 14.1403 4.62078C14.1403 4.62123 14.1403 4.62168 14.1403 4.62214C14.1403 4.6226 14.1403 4.62306 14.1403 4.62352C14.1403 4.62398 14.1403 4.62445 14.1403 4.62492C14.1403 4.62539 14.1403 4.62586 14.1403 4.62634C14.1403 4.62681 14.1403 4.62729 14.1403 4.62778C14.1403 4.62826 14.1403 4.62875 14.1403 4.62924C14.1403 4.62973 14.1403 4.63022 14.1403 4.63072C14.1403 4.63122 14.1403 4.63172 14.1403 4.63223C14.1403 4.63273 14.1403 4.63324 14.1403 4.63375C14.1403 4.63426 14.1403 4.63478 14.1403 4.6353C14.1403 4.63582 14.1403 4.63634 14.1403 4.63687C14.1403 4.63739 14.1403 4.63792 14.1403 4.63846C14.1403 4.63899 14.1403 4.63953 14.1403 4.64007C14.1403 4.64061 14.1403 4.64115 14.1403 4.6417C14.1403 4.64225 14.1403 4.6428 14.1403 4.64336C14.1403 4.64391 14.1403 4.64447 14.1403 4.64504C14.1403 4.6456 14.1403 4.64617 14.1403 4.64674C14.1403 4.64731 14.1403 4.64788 14.1403 4.64846C14.1403 4.64904 14.1403 4.64962 14.1403 4.65021C14.1403 4.65079 14.1403 4.65138 14.1403 4.65198C14.1403 4.65257 14.1403 4.65317 14.1403 4.65377C14.1403 4.65437 14.1403 4.65498 14.1403 4.65559C14.1403 4.6562 14.1403 4.65681 14.1403 4.65743C14.1403 4.65804 14.1403 4.65866 14.1403 4.65929C14.1403 4.65991 14.1403 4.66054 14.1403 4.66118C14.1403 4.66181 14.1403 4.66244 14.1403 4.66309C14.1403 4.66373 14.1403 4.66437 14.1403 4.66502C14.1403 4.66567 14.1403 4.66632 14.1403 4.66698C14.1403 4.66764 14.1403 4.6683 14.1403 4.66896C14.1403 4.66963 14.1403 4.6703 14.1403 4.67097C14.1403 4.67164 14.1403 4.67232 14.1403 4.673C14.1403 4.67368 14.1403 4.67437 14.1403 4.67506C14.1403 4.67575 14.1403 4.67644 14.1403 4.67714C14.1403 4.67784 14.1403 4.67854 14.1403 4.67925C14.1403 4.67995 14.1403 4.68067 14.1403 4.68138C14.1403 4.6821 14.1403 4.68281 14.1403 4.68354C14.1403 4.68426 14.1403 4.68499 14.1403 4.68572C14.1403 4.68645 14.1403 4.68719 14.1403 4.68793C14.1403 4.68867 14.1403 4.68942 14.1403 4.69017C14.1403 4.69091 14.1403 4.69167 14.1403 4.69243C14.1403 4.69318 14.1403 4.69395 14.1403 4.69471C14.1403 4.69548 14.1403 4.69625 14.1403 4.69703C14.1403 4.6978 14.1403 4.69858 14.1403 4.69937C14.1403 4.70015 14.1403 4.70094 14.1403 4.70173C14.1403 4.70252 14.1403 4.70332 14.1403 4.70412C14.1403 4.70493 14.1403 4.70573 14.1403 4.70654C14.1403 4.70736 14.1403 4.70817 14.1403 4.70899C14.1403 4.70981 14.1403 4.71064 14.1403 4.71147C14.1403 4.71229 14.1403 4.71313 14.1403 4.71397C14.1403 4.7148 14.1403 4.71565 14.1403 4.7165C14.1403 4.71734 14.1403 4.71819 14.1403 4.71905C14.1403 4.71991 14.1403 4.72077 14.1403 4.72164C14.1403 4.7225 14.1403 4.72337 14.1403 4.72425C14.1403 4.72512 14.1403 4.726 14.1403 4.72689C14.1403 4.72777 14.1403 4.72866 14.1403 4.72956C14.1403 4.73045 14.1403 4.73135 14.1403 4.73225C14.1403 4.73316 14.1403 4.73407 14.1403 4.73498C14.1403 4.73589 14.1403 4.73681 14.1403 4.73773C14.1403 4.73866 14.1403 4.73958 14.1403 4.74052C14.1403 4.74145 14.1403 4.74239 14.1403 4.74333C14.1403 4.74427 14.1403 4.74522 14.1403 4.74617C14.1403 4.74712 14.1403 4.74808 14.1403 4.74904C14.1403 4.75 14.1403 4.75097 14.1403 4.75194C14.1403 4.75291 14.1403 4.75389 14.1403 4.75487C14.1403 4.75585 14.1403 4.75684 14.1403 4.75783C14.1403 4.75882 14.1403 4.75982 14.1403 4.76082C14.1403 4.76182 14.1403 4.76283 14.1403 4.76384C14.1403 4.76485 14.1403 4.76586 14.1403 4.76689C14.1403 4.76791 14.1403 4.76893 14.1403 4.76997C14.1403 4.771 14.1403 4.77203 14.1403 4.77308C14.1403 4.77412 14.1403 4.77516 14.1403 4.77622C14.1403 4.77727 14.1403 4.77833 14.1403 4.77939C14.1403 4.78045 14.1403 4.78152 14.1403 4.78259C14.1403 4.78366 14.1403 4.78474 14.1403 4.78582C14.1403 4.78691 14.1403 4.788 14.1403 4.78909C14.1403 4.79018 14.1403 4.79128 14.1403 4.79239C14.1403 4.79349 14.1403 4.7946 14.1403 4.79571C14.1403 4.79683 14.1403 4.79795 14.1403 4.79907C14.1403 4.8002 14.1403 4.80133 14.1403 4.80246C14.1403 4.8036 14.1403 4.80474 14.1403 4.80589C14.1403 4.80703 14.1403 4.80819 14.1403 4.80934C14.1403 4.8105 14.1403 4.81166 14.1403 4.81283C14.1403 4.814 14.1403 4.81517 14.1403 4.81635C14.1403 4.81753 14.1403 4.81871 14.1403 4.8199C14.1403 4.82109 14.1403 4.82229 14.1403 4.82349C14.1403 4.82469 14.1403 4.8259 14.1403 4.82711C14.1403 4.82832 14.1403 4.82954 14.1403 4.83076C14.1403 4.83198 14.1403 4.83321 14.1403 4.83444C14.1403 4.83568 14.1403 4.83692 14.1403 4.83816C14.1403 4.83941 14.1403 4.84066 14.1403 4.84191C14.1403 4.84317 14.1403 4.84443 14.1403 4.8457C14.1403 4.84697 14.1403 4.84824 14.1403 4.84952C14.1403 4.8508 14.1403 4.85208 14.1403 4.85337C14.1403 4.85466 14.1403 4.85596 14.1403 4.85726C14.1403 4.85856 14.1403 4.85987 14.1403 4.86118C14.1403 4.86249 14.1403 4.86381 14.1403 4.86513C14.1403 4.86646 14.1403 4.86779 14.1403 4.86912C14.1403 4.87046 14.1403 4.8718 14.1403 4.87315C14.1403 4.8745 14.1403 4.87585 14.1403 4.87721C14.1403 4.87857 14.1403 4.87993 14.1403 4.8813C14.1403 4.88267 14.1403 4.88405 14.1403 4.88543C14.1403 4.88682 14.1403 4.8882 14.1403 4.8896C14.1403 4.89099 14.1403 4.89239 14.1403 4.8938C14.1403 4.89521 14.1403 4.89662 14.1403 4.89804C14.1403 4.89945 14.1403 4.90088 14.1403 4.90231C14.1403 4.90374 14.1403 4.90517 14.1403 4.90661C14.1403 4.90806 14.1403 4.9095 14.1403 4.91096C14.1403 4.91241 14.1403 4.91387 14.1403 4.91534C14.1403 4.91681 14.1403 4.91828 14.1403 4.91976C14.1403 4.92123 14.1403 4.92272 14.1403 4.92421C14.1403 4.9257 14.1403 4.9272 14.1403 4.9287C14.1403 4.9302 14.1403 4.93171 14.1403 4.93322C14.1403 4.93474 14.1403 4.93626 14.1403 4.93779C14.1403 4.93931 14.1403 4.94085 14.1403 4.94239C14.1403 4.94393 14.1403 4.94547 14.1403 4.94703C14.1403 4.94858 14.1403 4.95014 14.1403 4.9517C14.1403 4.95327 14.1403 4.95484 14.1403 4.95641C14.1403 4.95799 14.1403 4.95957 14.1403 4.96116C14.1403 4.96275 14.1403 4.96435 14.1403 4.96595C14.1403 4.96755 14.1403 4.96916 14.1403 4.97078C14.1403 4.97239 14.1403 4.97401 14.1403 4.97564C14.1403 4.97727 14.1403 4.9789 14.1403 4.98055C14.1403 4.98219 14.1403 4.98383 14.1403 4.98549C14.1403 4.98714 14.1403 4.9888 14.1403 4.99047C14.1403 4.99213 14.1403 4.99381 14.1403 4.99548C14.1403 4.99716 14.1403 4.99885 14.1403 5.00054C14.1403 5.00223 14.1403 5.00393 14.1403 5.00564C14.1403 5.00734 14.1403 5.00906 14.1403 5.01077C14.1403 5.01249 14.1403 5.01422 14.1403 5.01595C14.1403 5.01768 14.1403 5.01942 14.1403 5.02116C14.1403 5.02291 14.1403 5.02466 14.1403 5.02642C14.1403 5.02818 14.1403 5.02994 14.1403 5.03171C14.1403 5.03348 14.1403 5.03526 14.1403 5.03705C14.1403 5.03883 14.1403 5.04062 14.1403 5.04242C14.1403 5.04422 14.1403 5.04602 14.1403 5.04783C14.1403 5.04964 14.1403 5.05146 14.1403 5.05329C14.1403 5.05511 14.1403 5.05694 14.1403 5.05878C14.1403 5.06062 14.1403 5.06247 14.1403 5.06432C14.1403 5.06617 14.1403 5.06803 14.1403 5.0699C14.1403 5.07176 14.1403 5.07363 14.1403 5.07551C14.1403 5.07739 14.1403 5.07928 14.1403 5.08117C14.1403 5.08307 14.1403 5.08497 14.1403 5.08687C14.1403 5.08878 14.1403 5.09069 14.1403 5.09261C14.1403 5.09454 14.1403 5.09646 14.1403 5.0984C14.1403 5.10033 14.1403 5.10227 14.1403 5.10422C14.1403 5.10617 14.1403 5.10813 14.1403 5.11009C14.1403 5.11205 14.1403 5.11402 14.1403 5.116C14.1403 5.11798 14.1403 5.11996 14.1403 5.12195C14.1403 5.12394 14.1403 5.12594 14.1403 5.12794C14.1403 5.12995 14.1403 5.13196 14.1403 5.13398C14.1403 5.136 14.1403 5.13803 14.1403 5.14006C14.1403 5.14209 14.1403 5.14413 14.1403 5.14618C14.1403 5.14823 14.1403 5.15028 14.1403 5.15234C14.1403 5.15441 14.1403 5.15648 14.1403 5.15855C14.1403 5.16063 14.1403 5.16271 14.1403 5.1648C14.1403 5.16689 14.1403 5.16899 14.1403 5.1711C14.1403 5.1732 14.1403 5.17532 14.1403 5.17744C14.1403 5.17956 14.1403 5.18168 14.1403 5.18382C14.1403 5.18595 14.1403 5.18809 14.1403 5.19024C14.1403 5.19239 14.1403 5.19455 14.1403 5.19671C14.1403 5.19888 14.1403 5.20105 14.1403 5.20323C14.1403 5.2054 14.1403 5.20759 14.1403 5.20978C14.1403 5.21198 14.1403 5.21418 14.1403 5.21639C14.1403 5.21859 14.1403 5.22081 14.1403 5.22303C14.1403 5.22526 14.1403 5.22749 14.1403 5.22972C14.1403 5.23196 14.1403 5.23421 14.1403 5.23646C14.1403 5.23871 14.1403 5.24097 14.1403 5.24324C14.1403 5.24551 14.1403 5.24779 14.1403 5.25007C14.1403 5.25235 14.1403 5.25464 14.1403 5.25694C14.1403 5.25924 14.1403 5.26155 14.1403 5.26386C14.1403 5.26617 14.1403 5.26849 14.1403 5.27082C14.1403 5.27315 14.1403 5.27549 14.1403 5.27783C14.1403 5.28018 14.1403 5.28253 14.1403 5.28489C14.1403 5.28725 14.1403 5.28961 14.1403 5.29199C14.1403 5.29436 14.1403 5.29675 14.1403 5.29914C14.1403 5.30153 14.1403 5.30392 14.1403 5.30633C14.1403 5.30874 14.1403 5.31115 14.1403 5.31357C14.1403 5.31599 14.1403 5.31842 14.1403 5.32086C14.1403 5.3233 14.1403 5.32574 14.1403 5.32819C14.1403 5.33064 14.1403 5.33311 14.1403 5.33557C14.1403 5.33804 14.1403 5.34052 14.1403 5.343C14.1403 5.34549 14.1403 5.34798 14.1403 5.35048C14.1403 5.35298 14.1403 5.35548 14.1403 5.358C14.1403 5.36052 14.1403 5.36304 14.1403 5.36557C14.1403 5.3681 14.1403 5.37064 14.1403 5.37319C14.1403 5.37574 14.1403 5.37829 14.1403 5.38086C14.1403 5.38342 14.1403 5.38599 14.1403 5.38857C14.1403 5.39115 14.1403 5.39374 14.1403 5.39633C14.1403 5.39893 14.1403 5.40153 14.1403 5.40414C14.1403 5.40676 14.1403 5.40938 14.1403 5.412C14.1403 5.41463 14.1403 5.41727 14.1403 5.41991C14.1403 5.42256 14.1403 5.42521 14.1403 5.42787C14.1403 5.43053 14.1403 5.4332 14.1403 5.43587C14.1403 5.43855 14.1403 5.44124 14.1403 5.44393C14.1403 5.44662 14.1403 5.44932 14.1403 5.45203C14.1403 5.45474 14.1403 5.45746 14.1403 5.46019C14.1403 5.46291 14.1403 5.46565 14.1403 5.46839C14.1403 5.47113 14.1403 5.47389 14.1403 5.47664C14.1403 5.4794 14.1403 5.48217 14.1403 5.48495C14.1403 5.48772 14.1403 5.49051 14.1403 5.4933C14.1403 5.49609 14.1403 5.49889 14.1403 5.5017C14.1403 5.50451 14.1403 5.50733 14.1403 5.51016C14.1403 5.51298 14.1403 5.51582 14.1403 5.51866C14.1403 5.5215 14.1403 5.52436 14.1403 5.52722C14.1403 5.53008 14.1403 5.53294 14.1403 5.53582C14.1403 5.5387 14.1403 5.54158 14.1403 5.54448C14.1403 5.54737 14.1403 5.55027 14.1403 5.55318C14.1403 5.5561 14.1403 5.55902 14.1403 5.56194C14.1403 5.56487 14.1403 5.56781 14.1403 5.57075C14.1403 5.5737 14.1403 5.57665 14.1403 5.57961C14.1403 5.58258 14.1403 5.58555 14.1403 5.58853C14.1403 5.59151 14.1403 5.5945 14.1403 5.59749C14.1403 5.60049 14.1403 5.6035 14.1403 5.60651C14.1403 5.60952 14.1403 5.61255 14.1403 5.61558C14.1403 5.61861 14.1403 5.62165 14.1403 5.6247C14.1403 5.62775 14.1403 5.63081 14.1403 5.63387C14.1403 5.63694 14.1403 5.64002 14.1403 5.6431C14.1403 5.64618 14.1403 5.64928 14.1403 5.65238C14.1403 5.65548 14.1403 5.65859 14.1403 5.66171C14.1403 5.66483 14.1403 5.66796 14.1403 5.67109C14.1403 5.67423 14.1403 5.67738 14.1403 5.68053C14.1403 5.68369 14.1403 5.68685 14.1403 5.69002C14.1403 5.6932 14.1403 5.69638 14.1403 5.69957C14.1403 5.70276 14.1403 5.70596 14.1403 5.70917C14.1403 5.71238 14.1403 5.71559 14.1403 5.71882C14.1403 5.72205 14.1403 5.72528 14.1403 5.72853C14.1403 5.73177 14.1403 5.73502 14.1403 5.73829C14.1403 5.74155 14.1403 5.74482 14.1403 5.7481C14.1403 5.75138 14.1403 5.75467 14.1403 5.75797C14.1403 5.76127 14.1403 5.76458 14.1403 5.76789C14.1403 5.77121 14.1403 5.77454 14.1403 5.77787C14.1403 5.78121 14.1403 5.78455 14.1403 5.7879C14.1403 5.79126 14.1403 5.79462 14.1403 5.79799C14.1403 5.80136 14.1403 5.80474 14.1403 5.80813C14.1403 5.81152 14.1403 5.81492 14.1403 5.81833C14.1403 5.82174 14.1403 5.82516 14.1403 5.82859C14.1403 5.83201 14.1403 5.83545 14.1403 5.8389C14.1403 5.84234 14.1403 5.8458 14.1403 5.84926C14.1403 5.85273 14.1403 5.8562 14.1403 5.85968C14.1403 5.86316 14.1403 5.86666 14.1403 5.87016C14.1403 5.87366 14.1403 5.87717 14.1403 5.88069C14.1403 5.88421 14.1403 5.88774 14.1403 5.89128C14.1403 5.89482 14.1403 5.89837 14.1403 5.90193C14.1403 5.90548 14.1403 5.90905 14.1403 5.91263C14.1403 5.91621 14.1403 5.91979 14.1403 5.92339C14.1403 5.92698 14.1403 5.93059 14.1403 5.9342C14.1403 5.93782 14.1403 5.94144 14.1403 5.94508C14.1403 5.94871 14.1403 5.95235 14.1403 5.95601C14.1403 5.95966 14.1403 5.96332 14.1403 5.967C14.1403 5.97067 14.1403 5.97435 14.1403 5.97804C14.1403 5.98173 14.1403 5.98543 14.1403 5.98914C14.1403 5.99285 14.1403 5.99657 14.1403 6.00031C14.1403 6.00403 14.1403 6.00777 14.1403 6.01152C14.1403 6.01527 14.1403 6.01903 14.1403 6.0228C14.1403 6.02657 14.1403 6.03035 14.1403 6.03414C14.1403 6.03792 14.1403 6.04172 14.1403 6.04553C14.1403 6.04934 14.1403 6.05315 14.1403 6.05698C14.1403 6.06081 14.1403 6.06465 14.1403 6.06849C14.1403 6.07234 14.1403 6.0762 14.1403 6.08006C14.1403 6.08393 14.1403 6.08781 14.1403 6.09169C14.1403 6.09558 14.1403 6.09947 14.1403 6.10338C14.1403 6.10729 14.1403 6.1112 14.1403 6.11513C14.1403 6.11905 14.1403 6.12299 14.1403 6.12693C14.1403 6.13088 14.1403 6.13484 14.1403 6.1388C14.1403 6.14277 14.1403 6.14674 14.1403 6.15073C14.1403 6.15471 14.1403 6.15871 14.1403 6.16271C14.1403 6.16672 14.1403 6.17073 14.1403 6.17476C14.1403 6.17878 14.1403 6.18282 14.1403 6.18687C14.1403 6.19091 14.1403 6.19497 14.1403 6.19903C14.1403 6.2031 14.1403 6.20717 14.1403 6.21126C14.1403 6.21535 14.1403 6.21944 14.1403 6.22355C14.1403 6.22765 14.1403 6.23177 14.1403 6.2359C14.1403 6.24002 14.1403 6.24416 14.1403 6.24831C14.1403 6.25245 14.1403 6.25661 14.1403 6.26078C14.1403 6.26495 14.1403 6.26912 14.1403 6.27331C14.1403 6.2775 14.1403 6.2817 14.1403 6.2859C14.1403 6.29011 14.1403 6.29433 14.1403 6.29856C14.1403 6.30279 14.1403 6.30703 14.1403 6.31128C14.1403 6.31553 14.1403 6.31979 14.1403 6.32406C14.1403 6.32833 14.1403 6.33261 14.1403 6.3369C14.1403 6.34119 14.1403 6.34549 14.1403 6.3498C14.1403 6.35411 14.1403 6.35843 14.1403 6.36277C14.1403 6.3671 14.1403 6.37144 14.1403 6.37579C14.1403 6.38015 14.1403 6.38451 14.1403 6.38889C14.1403 6.39326 14.1403 6.39764 14.1403 6.40204C14.1403 6.40643 14.1403 6.41084 14.1403 6.41525C14.1403 6.41967 14.1403 6.4241 14.1403 6.42853C14.1403 6.43297 14.1403 6.43742 14.1403 6.44188C14.1403 6.44633 14.1403 6.4508 14.1403 6.45528C14.1403 6.45976 14.1403 6.46425 14.1403 6.46875C14.1403 6.47325 14.1403 6.47776 14.1403 6.48229C14.1403 6.48681 14.1403 6.49134 14.1403 6.49588C14.1403 6.50043 14.1403 6.50498 14.1403 6.50954C14.1403 6.51411 14.1403 6.51868 14.1403 6.52327C14.1403 6.52786 14.1403 6.53245 14.1403 6.53706C14.1403 6.54167 14.1403 6.54628 14.1403 6.55091C14.1403 6.55554 14.1403 6.56018 14.1403 6.56483C14.1403 6.56948 14.1403 6.57414 14.1403 6.57881C14.1403 6.58349 14.1403 6.58817 14.1403 6.59286C14.1403 6.59756 14.1403 6.60226 14.1403 6.60698C14.1403 6.61169 14.1403 6.61642 14.1403 6.62115C14.1403 6.62589 14.1403 6.63064 14.1403 6.6354C14.1403 6.64016 14.1403 6.64493 14.1403 6.64971C14.1403 6.65449 14.1403 6.65928 14.1403 6.66408C14.1403 6.66889 14.1403 6.6737 14.1403 6.67852C14.1403 6.68335 14.1403 6.68818 14.1403 6.69303C14.1403 6.69788 14.1403 6.70273 14.1403 6.7076C14.1403 6.71247 14.1403 6.71735 14.1403 6.72224C14.1403 6.72713 14.1403 6.73203 14.1403 6.73695C14.1403 6.74186 14.1403 6.74678 14.1403 6.75172C14.1403 6.75665 14.1403 6.7616 14.1403 6.76656C14.1403 6.77151 14.1403 6.77648 14.1403 6.78146C14.1403 6.78644 14.1403 6.79143 14.1403 6.79644C14.1403 6.80144 14.1403 6.80645 14.1403 6.81148C14.1403 6.8165 14.1403 6.82154 14.1403 6.82658C14.1403 6.83163 14.1403 6.83669 14.1403 6.84176C14.1403 6.84683 14.1403 6.85191 14.1403 6.857C14.1403 6.86209 14.1403 6.86719 14.1403 6.87231C14.1403 6.87742 14.1403 6.88255 14.1403 6.88769C14.1403 6.89282 14.1403 6.89797 14.1403 6.90313C14.1403 6.90829 14.1403 6.91346 14.1403 6.91864C14.1403 6.92383 14.1403 6.92902 14.1403 6.93423C14.1403 6.93943 14.1403 6.94465 14.1403 6.94988C14.1403 6.95511 14.1403 6.96035 14.1403 6.9656C14.1403 6.97085 14.1403 6.97611 14.1403 6.98138C14.1403 6.98666 14.1403 6.99194 14.1403 6.99724C14.1403 7.00254 14.1403 7.00785 14.1403 7.01317C14.1403 7.01849 14.1403 7.02382 14.1403 7.02916C14.1403 7.03451 14.1403 7.03986 14.1403 7.04523C14.1403 7.05059 14.1403 7.05597 14.1403 7.06136C14.1403 7.06675 14.1403 7.07215 14.1403 7.07757C14.1403 7.08298 14.1403 7.0884 14.1403 7.09384C14.1403 7.09928 14.1403 7.10472 14.1403 7.11018C14.1403 7.11564 14.1403 7.12111 14.1403 7.1266C14.1403 7.13208 14.1403 7.13758 14.1403 7.14308C14.1403 7.14859 14.1403 7.15411 14.1403 7.15964C14.1403 7.16517 14.1403 7.17071 14.1403 7.17626C14.1403 7.18182 14.1403 7.18738 14.1403 7.19296C14.1403 7.19853 14.1403 7.20412 14.1403 7.20972C14.1403 7.21532 14.1403 7.22094 14.1403 7.22656C14.1403 7.23219 14.1403 7.23782 14.1403 7.24347C14.1403 7.24912 14.1403 7.25478 14.1403 7.26045C14.1403 7.26612 14.1403 7.27181 14.1403 7.2775C14.1403 7.2832 14.1403 7.28891 14.1403 7.29463C14.1403 7.30035 14.1403 7.30608 14.1403 7.31182C14.1403 7.31757 14.1403 7.32332 14.1403 7.32909C14.1403 7.33486 14.1403 7.34064 14.1403 7.34643C14.1403 7.35222 14.1403 7.35803 14.1403 7.36384C14.1403 7.36966 14.1403 7.37549 14.1403 7.38133C14.1403 7.38717 14.1403 7.39302 14.1403 7.39888C14.1403 7.40475 14.1403 7.41062 14.1403 7.41651C14.1403 7.4224 14.1403 7.4283 14.1403 7.43421C14.1403 7.44013 14.1403 7.44605 14.1403 7.45199C14.1403 7.45793 14.1403 7.46388 14.1403 7.46984C14.1403 7.4758 14.1403 7.48177 14.1403 7.48776C14.1403 7.49375 14.1403 7.49974 14.1403 7.50575C14.1403 7.51177 14.1403 7.51779 14.1403 7.52382C14.1403 7.52986 14.1403 7.53591 14.1403 7.54197C14.1403 7.54803 14.1403 7.5541 14.1403 7.56018C14.1403 7.56627 14.1403 7.57236 14.1403 7.57847C14.1403 7.58458 14.1403 7.5907 14.1403 7.59684C14.1403 7.60297 14.1403 7.60912 14.1403 7.61528C14.1403 7.62143 14.1403 7.62761 14.1403 7.63379C14.1403 7.63997 14.1403 7.64617 14.1403 7.65238C14.1403 7.65859 14.1403 7.66481 14.1403 7.67104C14.1403 7.67727 14.1403 7.68352 14.1403 7.68978C14.1403 7.69604 14.1403 7.70231 14.1403 7.70859C14.1403 7.71487 14.1403 7.72117 14.1403 7.72748C14.1403 7.73379 14.1403 7.74011 14.1403 7.74644C14.1403 7.75278 14.1403 7.75912 14.1403 7.76548C14.1403 7.77184 14.1403 7.77821 14.1403 7.7846C14.1403 7.79098 14.1403 7.79738 14.1403 7.80379C14.1403 7.8102 14.1403 7.81662 14.1403 7.82305C14.1403 7.82949 14.1403 7.83594 14.1403 7.8424C14.1403 7.84886 14.1403 7.85533 14.1403 7.86182C14.1403 7.8683 14.1403 7.8748 14.1403 7.88131C14.1403 7.88782 14.1403 7.89435 14.1403 7.90088C14.1403 7.90742 14.1403 7.91397 14.1403 7.92053H15.9403C15.9403 7.91397 15.9403 7.90742 15.9403 7.90088C15.9403 7.89435 15.9403 7.88782 15.9403 7.88131C15.9403 7.8748 15.9403 7.8683 15.9403 7.86182C15.9403 7.85533 15.9403 7.84886 15.9403 7.8424C15.9403 7.83594 15.9403 7.82949 15.9403 7.82305C15.9403 7.81662 15.9403 7.8102 15.9403 7.80379C15.9403 7.79738 15.9403 7.79098 15.9403 7.7846C15.9403 7.77821 15.9403 7.77184 15.9403 7.76548C15.9403 7.75912 15.9403 7.75278 15.9403 7.74644C15.9403 7.74011 15.9403 7.73379 15.9403 7.72748C15.9403 7.72117 15.9403 7.71487 15.9403 7.70859C15.9403 7.70231 15.9403 7.69604 15.9403 7.68978C15.9403 7.68352 15.9403 7.67727 15.9403 7.67104C15.9403 7.66481 15.9403 7.65859 15.9403 7.65238C15.9403 7.64617 15.9403 7.63997 15.9403 7.63379C15.9403 7.62761 15.9403 7.62143 15.9403 7.61528C15.9403 7.60912 15.9403 7.60297 15.9403 7.59684C15.9403 7.5907 15.9403 7.58458 15.9403 7.57847C15.9403 7.57236 15.9403 7.56627 15.9403 7.56018C15.9403 7.5541 15.9403 7.54803 15.9403 7.54197C15.9403 7.53591 15.9403 7.52986 15.9403 7.52382C15.9403 7.51779 15.9403 7.51177 15.9403 7.50575C15.9403 7.49974 15.9403 7.49375 15.9403 7.48776C15.9403 7.48177 15.9403 7.4758 15.9403 7.46984C15.9403 7.46388 15.9403 7.45793 15.9403 7.45199C15.9403 7.44605 15.9403 7.44013 15.9403 7.43421C15.9403 7.4283 15.9403 7.4224 15.9403 7.41651C15.9403 7.41062 15.9403 7.40475 15.9403 7.39888C15.9403 7.39302 15.9403 7.38717 15.9403 7.38133C15.9403 7.37549 15.9403 7.36966 15.9403 7.36384C15.9403 7.35803 15.9403 7.35222 15.9403 7.34643C15.9403 7.34064 15.9403 7.33486 15.9403 7.32909C15.9403 7.32332 15.9403 7.31757 15.9403 7.31182C15.9403 7.30608 15.9403 7.30035 15.9403 7.29463C15.9403 7.28891 15.9403 7.2832 15.9403 7.2775C15.9403 7.27181 15.9403 7.26612 15.9403 7.26045C15.9403 7.25478 15.9403 7.24912 15.9403 7.24347C15.9403 7.23782 15.9403 7.23219 15.9403 7.22656C15.9403 7.22094 15.9403 7.21532 15.9403 7.20972C15.9403 7.20412 15.9403 7.19853 15.9403 7.19296C15.9403 7.18738 15.9403 7.18182 15.9403 7.17626C15.9403 7.17071 15.9403 7.16517 15.9403 7.15964C15.9403 7.15411 15.9403 7.14859 15.9403 7.14308C15.9403 7.13758 15.9403 7.13208 15.9403 7.1266C15.9403 7.12111 15.9403 7.11564 15.9403 7.11018C15.9403 7.10472 15.9403 7.09928 15.9403 7.09384C15.9403 7.0884 15.9403 7.08298 15.9403 7.07757C15.9403 7.07215 15.9403 7.06675 15.9403 7.06136C15.9403 7.05597 15.9403 7.05059 15.9403 7.04523C15.9403 7.03986 15.9403 7.03451 15.9403 7.02916C15.9403 7.02382 15.9403 7.01849 15.9403 7.01317C15.9403 7.00785 15.9403 7.00254 15.9403 6.99724C15.9403 6.99194 15.9403 6.98666 15.9403 6.98138C15.9403 6.97611 15.9403 6.97085 15.9403 6.9656C15.9403 6.96035 15.9403 6.95511 15.9403 6.94988C15.9403 6.94465 15.9403 6.93943 15.9403 6.93423C15.9403 6.92902 15.9403 6.92383 15.9403 6.91864C15.9403 6.91346 15.9403 6.90829 15.9403 6.90313C15.9403 6.89797 15.9403 6.89282 15.9403 6.88769C15.9403 6.88255 15.9403 6.87742 15.9403 6.87231C15.9403 6.86719 15.9403 6.86209 15.9403 6.857C15.9403 6.85191 15.9403 6.84683 15.9403 6.84176C15.9403 6.83669 15.9403 6.83163 15.9403 6.82658C15.9403 6.82154 15.9403 6.8165 15.9403 6.81148C15.9403 6.80645 15.9403 6.80144 15.9403 6.79644C15.9403 6.79143 15.9403 6.78644 15.9403 6.78146C15.9403 6.77648 15.9403 6.77151 15.9403 6.76656C15.9403 6.7616 15.9403 6.75665 15.9403 6.75172C15.9403 6.74678 15.9403 6.74186 15.9403 6.73695C15.9403 6.73203 15.9403 6.72713 15.9403 6.72224C15.9403 6.71735 15.9403 6.71247 15.9403 6.7076C15.9403 6.70273 15.9403 6.69788 15.9403 6.69303C15.9403 6.68818 15.9403 6.68335 15.9403 6.67852C15.9403 6.6737 15.9403 6.66889 15.9403 6.66408C15.9403 6.65928 15.9403 6.65449 15.9403 6.64971C15.9403 6.64493 15.9403 6.64016 15.9403 6.6354C15.9403 6.63064 15.9403 6.62589 15.9403 6.62115C15.9403 6.61642 15.9403 6.61169 15.9403 6.60698C15.9403 6.60226 15.9403 6.59756 15.9403 6.59286C15.9403 6.58817 15.9403 6.58349 15.9403 6.57881C15.9403 6.57414 15.9403 6.56948 15.9403 6.56483C15.9403 6.56018 15.9403 6.55554 15.9403 6.55091C15.9403 6.54628 15.9403 6.54167 15.9403 6.53706C15.9403 6.53245 15.9403 6.52786 15.9403 6.52327C15.9403 6.51868 15.9403 6.51411 15.9403 6.50954C15.9403 6.50498 15.9403 6.50043 15.9403 6.49588C15.9403 6.49134 15.9403 6.48681 15.9403 6.48229C15.9403 6.47776 15.9403 6.47325 15.9403 6.46875C15.9403 6.46425 15.9403 6.45976 15.9403 6.45528C15.9403 6.4508 15.9403 6.44633 15.9403 6.44188C15.9403 6.43742 15.9403 6.43297 15.9403 6.42853C15.9403 6.4241 15.9403 6.41967 15.9403 6.41525C15.9403 6.41084 15.9403 6.40643 15.9403 6.40204C15.9403 6.39764 15.9403 6.39326 15.9403 6.38889C15.9403 6.38451 15.9403 6.38015 15.9403 6.37579C15.9403 6.37144 15.9403 6.3671 15.9403 6.36277C15.9403 6.35843 15.9403 6.35411 15.9403 6.3498C15.9403 6.34549 15.9403 6.34119 15.9403 6.3369C15.9403 6.33261 15.9403 6.32833 15.9403 6.32406C15.9403 6.31979 15.9403 6.31553 15.9403 6.31128C15.9403 6.30703 15.9403 6.30279 15.9403 6.29856C15.9403 6.29433 15.9403 6.29011 15.9403 6.2859C15.9403 6.2817 15.9403 6.2775 15.9403 6.27331C15.9403 6.26912 15.9403 6.26495 15.9403 6.26078C15.9403 6.25661 15.9403 6.25245 15.9403 6.24831C15.9403 6.24416 15.9403 6.24002 15.9403 6.2359C15.9403 6.23177 15.9403 6.22765 15.9403 6.22355C15.9403 6.21944 15.9403 6.21535 15.9403 6.21126C15.9403 6.20717 15.9403 6.2031 15.9403 6.19903C15.9403 6.19497 15.9403 6.19091 15.9403 6.18687C15.9403 6.18282 15.9403 6.17878 15.9403 6.17476C15.9403 6.17073 15.9403 6.16672 15.9403 6.16271C15.9403 6.15871 15.9403 6.15471 15.9403 6.15073C15.9403 6.14674 15.9403 6.14277 15.9403 6.1388C15.9403 6.13484 15.9403 6.13088 15.9403 6.12693C15.9403 6.12299 15.9403 6.11905 15.9403 6.11513C15.9403 6.1112 15.9403 6.10729 15.9403 6.10338C15.9403 6.09947 15.9403 6.09558 15.9403 6.09169C15.9403 6.08781 15.9403 6.08393 15.9403 6.08006C15.9403 6.0762 15.9403 6.07234 15.9403 6.06849C15.9403 6.06465 15.9403 6.06081 15.9403 6.05698C15.9403 6.05315 15.9403 6.04934 15.9403 6.04553C15.9403 6.04172 15.9403 6.03792 15.9403 6.03414C15.9403 6.03035 15.9403 6.02657 15.9403 6.0228C15.9403 6.01903 15.9403 6.01527 15.9403 6.01152C15.9403 6.00777 15.9403 6.00403 15.9403 6.00031C15.9403 5.99657 15.9403 5.99285 15.9403 5.98914C15.9403 5.98543 15.9403 5.98173 15.9403 5.97804C15.9403 5.97435 15.9403 5.97067 15.9403 5.967C15.9403 5.96332 15.9403 5.95966 15.9403 5.95601C15.9403 5.95235 15.9403 5.94871 15.9403 5.94508C15.9403 5.94144 15.9403 5.93782 15.9403 5.9342C15.9403 5.93059 15.9403 5.92698 15.9403 5.92339C15.9403 5.91979 15.9403 5.91621 15.9403 5.91263C15.9403 5.90905 15.9403 5.90548 15.9403 5.90193C15.9403 5.89837 15.9403 5.89482 15.9403 5.89128C15.9403 5.88774 15.9403 5.88421 15.9403 5.88069C15.9403 5.87717 15.9403 5.87366 15.9403 5.87016C15.9403 5.86666 15.9403 5.86316 15.9403 5.85968C15.9403 5.8562 15.9403 5.85273 15.9403 5.84926C15.9403 5.8458 15.9403 5.84234 15.9403 5.8389C15.9403 5.83545 15.9403 5.83201 15.9403 5.82859C15.9403 5.82516 15.9403 5.82174 15.9403 5.81833C15.9403 5.81492 15.9403 5.81152 15.9403 5.80813C15.9403 5.80474 15.9403 5.80136 15.9403 5.79799C15.9403 5.79462 15.9403 5.79126 15.9403 5.7879C15.9403 5.78455 15.9403 5.78121 15.9403 5.77787C15.9403 5.77454 15.9403 5.77121 15.9403 5.76789C15.9403 5.76458 15.9403 5.76127 15.9403 5.75797C15.9403 5.75467 15.9403 5.75138 15.9403 5.7481C15.9403 5.74482 15.9403 5.74155 15.9403 5.73829C15.9403 5.73502 15.9403 5.73177 15.9403 5.72853C15.9403 5.72528 15.9403 5.72205 15.9403 5.71882C15.9403 5.71559 15.9403 5.71238 15.9403 5.70917C15.9403 5.70596 15.9403 5.70276 15.9403 5.69957C15.9403 5.69638 15.9403 5.6932 15.9403 5.69002C15.9403 5.68685 15.9403 5.68369 15.9403 5.68053C15.9403 5.67738 15.9403 5.67423 15.9403 5.67109C15.9403 5.66796 15.9403 5.66483 15.9403 5.66171C15.9403 5.65859 15.9403 5.65548 15.9403 5.65238C15.9403 5.64928 15.9403 5.64618 15.9403 5.6431C15.9403 5.64002 15.9403 5.63694 15.9403 5.63387C15.9403 5.63081 15.9403 5.62775 15.9403 5.6247C15.9403 5.62165 15.9403 5.61861 15.9403 5.61558C15.9403 5.61255 15.9403 5.60952 15.9403 5.60651C15.9403 5.6035 15.9403 5.60049 15.9403 5.59749C15.9403 5.5945 15.9403 5.59151 15.9403 5.58853C15.9403 5.58555 15.9403 5.58258 15.9403 5.57961C15.9403 5.57665 15.9403 5.5737 15.9403 5.57075C15.9403 5.56781 15.9403 5.56487 15.9403 5.56194C15.9403 5.55902 15.9403 5.5561 15.9403 5.55318C15.9403 5.55027 15.9403 5.54737 15.9403 5.54448C15.9403 5.54158 15.9403 5.5387 15.9403 5.53582C15.9403 5.53294 15.9403 5.53008 15.9403 5.52722C15.9403 5.52436 15.9403 5.5215 15.9403 5.51866C15.9403 5.51582 15.9403 5.51298 15.9403 5.51016C15.9403 5.50733 15.9403 5.50451 15.9403 5.5017C15.9403 5.49889 15.9403 5.49609 15.9403 5.4933C15.9403 5.49051 15.9403 5.48772 15.9403 5.48495C15.9403 5.48217 15.9403 5.4794 15.9403 5.47664C15.9403 5.47389 15.9403 5.47113 15.9403 5.46839C15.9403 5.46565 15.9403 5.46291 15.9403 5.46019C15.9403 5.45746 15.9403 5.45474 15.9403 5.45203C15.9403 5.44932 15.9403 5.44662 15.9403 5.44393C15.9403 5.44124 15.9403 5.43855 15.9403 5.43587C15.9403 5.4332 15.9403 5.43053 15.9403 5.42787C15.9403 5.42521 15.9403 5.42256 15.9403 5.41991C15.9403 5.41727 15.9403 5.41463 15.9403 5.412C15.9403 5.40938 15.9403 5.40676 15.9403 5.40414C15.9403 5.40153 15.9403 5.39893 15.9403 5.39633C15.9403 5.39374 15.9403 5.39115 15.9403 5.38857C15.9403 5.38599 15.9403 5.38342 15.9403 5.38086C15.9403 5.37829 15.9403 5.37574 15.9403 5.37319C15.9403 5.37064 15.9403 5.3681 15.9403 5.36557C15.9403 5.36304 15.9403 5.36052 15.9403 5.358C15.9403 5.35548 15.9403 5.35298 15.9403 5.35048C15.9403 5.34798 15.9403 5.34549 15.9403 5.343C15.9403 5.34052 15.9403 5.33804 15.9403 5.33557C15.9403 5.33311 15.9403 5.33064 15.9403 5.32819C15.9403 5.32574 15.9403 5.3233 15.9403 5.32086C15.9403 5.31842 15.9403 5.31599 15.9403 5.31357C15.9403 5.31115 15.9403 5.30874 15.9403 5.30633C15.9403 5.30392 15.9403 5.30153 15.9403 5.29914C15.9403 5.29675 15.9403 5.29436 15.9403 5.29199C15.9403 5.28961 15.9403 5.28725 15.9403 5.28489C15.9403 5.28253 15.9403 5.28018 15.9403 5.27783C15.9403 5.27549 15.9403 5.27315 15.9403 5.27082C15.9403 5.26849 15.9403 5.26617 15.9403 5.26386C15.9403 5.26155 15.9403 5.25924 15.9403 5.25694C15.9403 5.25464 15.9403 5.25235 15.9403 5.25007C15.9403 5.24779 15.9403 5.24551 15.9403 5.24324C15.9403 5.24097 15.9403 5.23871 15.9403 5.23646C15.9403 5.23421 15.9403 5.23196 15.9403 5.22972C15.9403 5.22749 15.9403 5.22526 15.9403 5.22303C15.9403 5.22081 15.9403 5.21859 15.9403 5.21639C15.9403 5.21418 15.9403 5.21198 15.9403 5.20978C15.9403 5.20759 15.9403 5.2054 15.9403 5.20323C15.9403 5.20105 15.9403 5.19888 15.9403 5.19671C15.9403 5.19455 15.9403 5.19239 15.9403 5.19024C15.9403 5.18809 15.9403 5.18595 15.9403 5.18382C15.9403 5.18168 15.9403 5.17956 15.9403 5.17744C15.9403 5.17532 15.9403 5.1732 15.9403 5.1711C15.9403 5.16899 15.9403 5.16689 15.9403 5.1648C15.9403 5.16271 15.9403 5.16063 15.9403 5.15855C15.9403 5.15648 15.9403 5.15441 15.9403 5.15234C15.9403 5.15028 15.9403 5.14823 15.9403 5.14618C15.9403 5.14413 15.9403 5.14209 15.9403 5.14006C15.9403 5.13803 15.9403 5.136 15.9403 5.13398C15.9403 5.13196 15.9403 5.12995 15.9403 5.12794C15.9403 5.12594 15.9403 5.12394 15.9403 5.12195C15.9403 5.11996 15.9403 5.11798 15.9403 5.116C15.9403 5.11402 15.9403 5.11205 15.9403 5.11009C15.9403 5.10813 15.9403 5.10617 15.9403 5.10422C15.9403 5.10227 15.9403 5.10033 15.9403 5.0984C15.9403 5.09646 15.9403 5.09454 15.9403 5.09261C15.9403 5.09069 15.9403 5.08878 15.9403 5.08687C15.9403 5.08497 15.9403 5.08307 15.9403 5.08117C15.9403 5.07928 15.9403 5.07739 15.9403 5.07551C15.9403 5.07363 15.9403 5.07176 15.9403 5.0699C15.9403 5.06803 15.9403 5.06617 15.9403 5.06432C15.9403 5.06247 15.9403 5.06062 15.9403 5.05878C15.9403 5.05694 15.9403 5.05511 15.9403 5.05329C15.9403 5.05146 15.9403 5.04964 15.9403 5.04783C15.9403 5.04602 15.9403 5.04422 15.9403 5.04242C15.9403 5.04062 15.9403 5.03883 15.9403 5.03705C15.9403 5.03526 15.9403 5.03348 15.9403 5.03171C15.9403 5.02994 15.9403 5.02818 15.9403 5.02642C15.9403 5.02466 15.9403 5.02291 15.9403 5.02116C15.9403 5.01942 15.9403 5.01768 15.9403 5.01595C15.9403 5.01422 15.9403 5.01249 15.9403 5.01077C15.9403 5.00906 15.9403 5.00734 15.9403 5.00564C15.9403 5.00393 15.9403 5.00223 15.9403 5.00054C15.9403 4.99885 15.9403 4.99716 15.9403 4.99548C15.9403 4.99381 15.9403 4.99213 15.9403 4.99047C15.9403 4.9888 15.9403 4.98714 15.9403 4.98549C15.9403 4.98383 15.9403 4.98219 15.9403 4.98055C15.9403 4.9789 15.9403 4.97727 15.9403 4.97564C15.9403 4.97401 15.9403 4.97239 15.9403 4.97078C15.9403 4.96916 15.9403 4.96755 15.9403 4.96595C15.9403 4.96435 15.9403 4.96275 15.9403 4.96116C15.9403 4.95957 15.9403 4.95799 15.9403 4.95641C15.9403 4.95484 15.9403 4.95327 15.9403 4.9517C15.9403 4.95014 15.9403 4.94858 15.9403 4.94703C15.9403 4.94547 15.9403 4.94393 15.9403 4.94239C15.9403 4.94085 15.9403 4.93931 15.9403 4.93779C15.9403 4.93626 15.9403 4.93474 15.9403 4.93322C15.9403 4.93171 15.9403 4.9302 15.9403 4.9287C15.9403 4.9272 15.9403 4.9257 15.9403 4.92421C15.9403 4.92272 15.9403 4.92123 15.9403 4.91976C15.9403 4.91828 15.9403 4.91681 15.9403 4.91534C15.9403 4.91387 15.9403 4.91241 15.9403 4.91096C15.9403 4.9095 15.9403 4.90806 15.9403 4.90661C15.9403 4.90517 15.9403 4.90374 15.9403 4.90231C15.9403 4.90088 15.9403 4.89945 15.9403 4.89804C15.9403 4.89662 15.9403 4.89521 15.9403 4.8938C15.9403 4.89239 15.9403 4.89099 15.9403 4.8896C15.9403 4.8882 15.9403 4.88682 15.9403 4.88543C15.9403 4.88405 15.9403 4.88267 15.9403 4.8813C15.9403 4.87993 15.9403 4.87857 15.9403 4.87721C15.9403 4.87585 15.9403 4.8745 15.9403 4.87315C15.9403 4.8718 15.9403 4.87046 15.9403 4.86912C15.9403 4.86779 15.9403 4.86646 15.9403 4.86513C15.9403 4.86381 15.9403 4.86249 15.9403 4.86118C15.9403 4.85987 15.9403 4.85856 15.9403 4.85726C15.9403 4.85596 15.9403 4.85466 15.9403 4.85337C15.9403 4.85208 15.9403 4.8508 15.9403 4.84952C15.9403 4.84824 15.9403 4.84697 15.9403 4.8457C15.9403 4.84443 15.9403 4.84317 15.9403 4.84191C15.9403 4.84066 15.9403 4.83941 15.9403 4.83816C15.9403 4.83692 15.9403 4.83568 15.9403 4.83444C15.9403 4.83321 15.9403 4.83198 15.9403 4.83076C15.9403 4.82954 15.9403 4.82832 15.9403 4.82711C15.9403 4.8259 15.9403 4.82469 15.9403 4.82349C15.9403 4.82229 15.9403 4.82109 15.9403 4.8199C15.9403 4.81871 15.9403 4.81753 15.9403 4.81635C15.9403 4.81517 15.9403 4.814 15.9403 4.81283C15.9403 4.81166 15.9403 4.8105 15.9403 4.80934C15.9403 4.80819 15.9403 4.80703 15.9403 4.80589C15.9403 4.80474 15.9403 4.8036 15.9403 4.80246C15.9403 4.80133 15.9403 4.8002 15.9403 4.79907C15.9403 4.79795 15.9403 4.79683 15.9403 4.79571C15.9403 4.7946 15.9403 4.79349 15.9403 4.79239C15.9403 4.79128 15.9403 4.79018 15.9403 4.78909C15.9403 4.788 15.9403 4.78691 15.9403 4.78582C15.9403 4.78474 15.9403 4.78366 15.9403 4.78259C15.9403 4.78152 15.9403 4.78045 15.9403 4.77939C15.9403 4.77833 15.9403 4.77727 15.9403 4.77622C15.9403 4.77516 15.9403 4.77412 15.9403 4.77308C15.9403 4.77203 15.9403 4.771 15.9403 4.76997C15.9403 4.76893 15.9403 4.76791 15.9403 4.76689C15.9403 4.76586 15.9403 4.76485 15.9403 4.76384C15.9403 4.76283 15.9403 4.76182 15.9403 4.76082C15.9403 4.75982 15.9403 4.75882 15.9403 4.75783C15.9403 4.75684 15.9403 4.75585 15.9403 4.75487C15.9403 4.75389 15.9403 4.75291 15.9403 4.75194C15.9403 4.75097 15.9403 4.75 15.9403 4.74904C15.9403 4.74808 15.9403 4.74712 15.9403 4.74617C15.9403 4.74522 15.9403 4.74427 15.9403 4.74333C15.9403 4.74239 15.9403 4.74145 15.9403 4.74052C15.9403 4.73958 15.9403 4.73866 15.9403 4.73773C15.9403 4.73681 15.9403 4.73589 15.9403 4.73498C15.9403 4.73407 15.9403 4.73316 15.9403 4.73225C15.9403 4.73135 15.9403 4.73045 15.9403 4.72956C15.9403 4.72866 15.9403 4.72777 15.9403 4.72689C15.9403 4.726 15.9403 4.72512 15.9403 4.72425C15.9403 4.72337 15.9403 4.7225 15.9403 4.72164C15.9403 4.72077 15.9403 4.71991 15.9403 4.71905C15.9403 4.71819 15.9403 4.71734 15.9403 4.7165C15.9403 4.71565 15.9403 4.7148 15.9403 4.71397C15.9403 4.71313 15.9403 4.71229 15.9403 4.71147C15.9403 4.71064 15.9403 4.70981 15.9403 4.70899C15.9403 4.70817 15.9403 4.70736 15.9403 4.70654C15.9403 4.70573 15.9403 4.70493 15.9403 4.70412C15.9403 4.70332 15.9403 4.70252 15.9403 4.70173C15.9403 4.70094 15.9403 4.70015 15.9403 4.69937C15.9403 4.69858 15.9403 4.6978 15.9403 4.69703C15.9403 4.69625 15.9403 4.69548 15.9403 4.69471C15.9403 4.69395 15.9403 4.69318 15.9403 4.69243C15.9403 4.69167 15.9403 4.69091 15.9403 4.69017C15.9403 4.68942 15.9403 4.68867 15.9403 4.68793C15.9403 4.68719 15.9403 4.68645 15.9403 4.68572C15.9403 4.68499 15.9403 4.68426 15.9403 4.68354C15.9403 4.68281 15.9403 4.6821 15.9403 4.68138C15.9403 4.68067 15.9403 4.67995 15.9403 4.67925C15.9403 4.67854 15.9403 4.67784 15.9403 4.67714C15.9403 4.67644 15.9403 4.67575 15.9403 4.67506C15.9403 4.67437 15.9403 4.67368 15.9403 4.673C15.9403 4.67232 15.9403 4.67164 15.9403 4.67097C15.9403 4.6703 15.9403 4.66963 15.9403 4.66896C15.9403 4.6683 15.9403 4.66764 15.9403 4.66698C15.9403 4.66632 15.9403 4.66567 15.9403 4.66502C15.9403 4.66437 15.9403 4.66373 15.9403 4.66309C15.9403 4.66244 15.9403 4.66181 15.9403 4.66118C15.9403 4.66054 15.9403 4.65991 15.9403 4.65929C15.9403 4.65866 15.9403 4.65804 15.9403 4.65743C15.9403 4.65681 15.9403 4.6562 15.9403 4.65559C15.9403 4.65498 15.9403 4.65437 15.9403 4.65377C15.9403 4.65317 15.9403 4.65257 15.9403 4.65198C15.9403 4.65138 15.9403 4.65079 15.9403 4.65021C15.9403 4.64962 15.9403 4.64904 15.9403 4.64846C15.9403 4.64788 15.9403 4.64731 15.9403 4.64674C15.9403 4.64617 15.9403 4.6456 15.9403 4.64504C15.9403 4.64447 15.9403 4.64391 15.9403 4.64336C15.9403 4.6428 15.9403 4.64225 15.9403 4.6417C15.9403 4.64115 15.9403 4.64061 15.9403 4.64007C15.9403 4.63953 15.9403 4.63899 15.9403 4.63846C15.9403 4.63792 15.9403 4.63739 15.9403 4.63687C15.9403 4.63634 15.9403 4.63582 15.9403 4.6353C15.9403 4.63478 15.9403 4.63426 15.9403 4.63375C15.9403 4.63324 15.9403 4.63273 15.9403 4.63223C15.9403 4.63172 15.9403 4.63122 15.9403 4.63072C15.9403 4.63022 15.9403 4.62973 15.9403 4.62924C15.9403 4.62875 15.9403 4.62826 15.9403 4.62778C15.9403 4.62729 15.9403 4.62681 15.9403 4.62634C15.9403 4.62586 15.9403 4.62539 15.9403 4.62492C15.9403 4.62445 15.9403 4.62398 15.9403 4.62352C15.9403 4.62306 15.9403 4.6226 15.9403 4.62214C15.9403 4.62168 15.9403 4.62123 15.9403 4.62078C15.9403 4.62033 15.9403 4.61989 15.9403 4.61944C15.9403 4.619 15.9403 4.61856 15.9403 4.61812C15.9403 4.61769 15.9403 4.61725 15.9403 4.61683C15.9403 4.6164 15.9403 4.61597 15.9403 4.61555C15.9403 4.61512 15.9403 4.6147 15.9403 4.61429C15.9403 4.61387 15.9403 4.61346 15.9403 4.61305C15.9403 4.61264 15.9403 4.61223 15.9403 4.61183C15.9403 4.61142 15.9403 4.61102 15.9403 4.61062C15.9403 4.61023 15.9403 4.60983 15.9403 4.60944C15.9403 4.60905 15.9403 4.60866 15.9403 4.60828C15.9403 4.60789 15.9403 4.60751 15.9403 4.60713C15.9403 4.60675 15.9403 4.60638 15.9403 4.606C15.9403 4.60563 15.9403 4.60526 15.9403 4.6049C15.9403 4.60453 15.9403 4.60417 15.9403 4.60381C15.9403 4.60344 15.9403 4.60309 15.9403 4.60273C15.9403 4.60238 15.9403 4.60203 15.9403 4.60168C15.9403 4.60133 15.9403 4.60098 15.9403 4.60064C15.9403 4.6003 15.9403 4.59996 15.9403 4.59962C15.9403 4.59929 15.9403 4.59895 15.9403 4.59862C15.9403 4.59829 15.9403 4.59796 15.9403 4.59764C15.9403 4.59731 15.9403 4.59699 15.9403 4.59667C15.9403 4.59635 15.9403 4.59603 15.9403 4.59572C15.9403 4.5954 15.9403 4.59509 15.9403 4.59478C15.9403 4.59448 15.9403 4.59417 15.9403 4.59387C15.9403 4.59356 15.9403 4.59326 15.9403 4.59297C15.9403 4.59267 15.9403 4.59237 15.9403 4.59208C15.9403 4.59179 15.9403 4.5915 15.9403 4.59121C15.9403 4.59093 15.9403 4.59064 15.9403 4.59036C15.9403 4.59008 15.9403 4.5898 15.9403 4.58953C15.9403 4.58925 15.9403 4.58898 15.9403 4.58871C15.9403 4.58844 15.9403 4.58817 15.9403 4.5879C15.9403 4.58764 15.9403 4.58737 15.9403 4.58711C15.9403 4.58685 15.9403 4.58659 15.9403 4.58634C15.9403 4.58608 15.9403 4.58583 15.9403 4.58558C15.9403 4.58533 15.9403 4.58508 15.9403 4.58484C15.9403 4.58459 15.9403 4.58435 15.9403 4.58411C15.9403 4.58387 15.9403 4.58363 15.9403 4.58339C15.9403 4.58316 15.9403 4.58293 15.9403 4.5827C15.9403 4.58246 15.9403 4.58224 15.9403 4.58201C15.9403 4.58178 15.9403 4.58156 15.9403 4.58134C15.9403 4.58112 15.9403 4.5809 15.9403 4.58068C15.9403 4.58047 15.9403 4.58025 15.9403 4.58004C15.9403 4.57983 15.9403 4.57962 15.9403 4.57941C15.9403 4.5792 15.9403 4.579 15.9403 4.5788C15.9403 4.57859 15.9403 4.57839 15.9403 4.5782C15.9403 4.578 15.9403 4.5778 15.9403 4.57761C15.9403 4.57741 15.9403 4.57722 15.9403 4.57703C15.9403 4.57684 15.9403 4.57665 15.9403 4.57647C15.9403 4.57628 15.9403 4.5761 15.9403 4.57592C15.9403 4.57574 15.9403 4.57556 15.9403 4.57538C15.9403 4.57521 15.9403 4.57503 15.9403 4.57486C15.9403 4.57469 15.9403 4.57452 15.9403 4.57435C15.9403 4.57418 15.9403 4.57402 15.9403 4.57385C15.9403 4.57369 15.9403 4.57352 15.9403 4.57336C15.9403 4.5732 15.9403 4.57305 15.9403 4.57289C15.9403 4.57273 15.9403 4.57258 15.9403 4.57243C15.9403 4.57227 15.9403 4.57212 15.9403 4.57198C15.9403 4.57183 15.9403 4.57168 15.9403 4.57154C15.9403 4.57139 15.9403 4.57125 15.9403 4.57111C15.9403 4.57097 15.9403 4.57083 15.9403 4.57069C15.9403 4.57055 15.9403 4.57042 15.9403 4.57029C15.9403 4.57015 15.9403 4.57002 15.9403 4.56989C15.9403 4.56976 15.9403 4.56963 15.9403 4.56951C15.9403 4.56938 15.9403 4.56926 15.9403 4.56913C15.9403 4.56901 15.9403 4.56889 15.9403 4.56877C15.9403 4.56865 15.9403 4.56853 15.9403 4.56842C15.9403 4.5683 15.9403 4.56819 15.9403 4.56808C15.9403 4.56796 15.9403 4.56785 15.9403 4.56774C15.9403 4.56764 15.9403 4.56753 15.9403 4.56742C15.9403 4.56732 15.9403 4.56721 15.9403 4.56711C15.9403 4.56701 15.9403 4.56691 15.9403 4.56681C15.9403 4.56671 15.9403 4.56661 15.9403 4.56651C15.9403 4.56642 15.9403 4.56632 15.9403 4.56623C15.9403 4.56614 15.9403 4.56604 15.9403 4.56595C15.9403 4.56586 15.9403 4.56578 15.9403 4.56569C15.9403 4.5656 15.9403 4.56552 15.9403 4.56543C15.9403 4.56535 15.9403 4.56526 15.9403 4.56518C15.9403 4.5651 15.9403 4.56502 15.9403 4.56494C15.9403 4.56486 15.9403 4.56479 15.9403 4.56471C15.9403 4.56464 15.9403 4.56456 15.9403 4.56449C15.9403 4.56442 15.9403 4.56434 15.9403 4.56427C15.9403 4.5642 15.9403 4.56413 15.9403 4.56407C15.9403 4.564 15.9403 4.56393 15.9403 4.56387C15.9403 4.5638 15.9403 4.56374 15.9403 4.56368C15.9403 4.56361 15.9403 4.56355 15.9403 4.56349C15.9403 4.56343 15.9403 4.56337 15.9403 4.56332C15.9403 4.56326 15.9403 4.5632 15.9403 4.56315C15.9403 4.56309 15.9403 4.56304 15.9403 4.56298C15.9403 4.56293 15.9403 4.56288 15.9403 4.56283C15.9403 4.56278 15.9403 4.56273 15.9403 4.56268C15.9403 4.56263 15.9403 4.56258 15.9403 4.56254C15.9403 4.56249 15.9403 4.56245 15.9403 4.5624C15.9403 4.56236 15.9403 4.56231 15.9403 4.56227C15.9403 4.56223 15.9403 4.56219 15.9403 4.56215C15.9403 4.56211 15.9403 4.56207 15.9403 4.56203C15.9403 4.56199 15.9403 4.56196 15.9403 4.56192C15.9403 4.56188 15.9403 4.56185 15.9403 4.56182C15.9403 4.56178 15.9403 4.56175 15.9403 4.56171C15.9403 4.56168 15.9403 4.56165 15.9403 4.56162C15.9403 4.56159 15.9403 4.56156 15.9403 4.56153C15.9403 4.5615 15.9403 4.56147 15.9403 4.56145C15.9403 4.56142 15.9403 4.56139 15.9403 4.56137C15.9403 4.56134 15.9403 4.56132 15.9403 4.56129C15.9403 4.56127 15.9403 4.56125 15.9403 4.56122C15.9403 4.5612 15.9403 4.56118 15.9403 4.56116C15.9403 4.56114 15.9403 4.56112 15.9403 4.5611C15.9403 4.56108 15.9403 4.56106 15.9403 4.56104C15.9403 4.56102 15.9403 4.561 15.9403 4.56099C15.9403 4.56097 15.9403 4.56095 15.9403 4.56094C15.9403 4.56092 15.9403 4.56091 15.9403 4.56089C15.9403 4.56088 15.9403 4.56086 15.9403 4.56085C15.9403 4.56084 15.9403 4.56083 15.9403 4.56081C15.9403 4.5608 15.9403 4.56079 15.9403 4.56078C15.9403 4.56077 15.9403 4.56076 15.9403 4.56075C15.9403 4.56074 15.9403 4.56073 15.9403 4.56072C15.9403 4.56071 15.9403 4.5607 15.9403 4.56069C15.9403 4.56068 15.9403 4.56068 15.9403 4.56067C15.9403 4.56066 15.9403 4.56066 15.9403 4.56065C15.9403 4.56064 15.9403 4.56064 15.9403 4.56063C15.9403 4.56063 15.9403 4.56062 15.9403 4.56062C15.9403 4.56061 15.9403 4.56061 15.9403 4.5606C15.9403 4.5606 15.9403 4.56059 15.9403 4.56059C15.9403 4.56059 15.9403 4.56058 15.9403 4.56058C15.9403 4.56058 15.9403 4.56057 15.9403 4.56057C15.9403 4.56057 15.9403 4.56057 15.9403 4.56057C15.9403 4.56056 15.9403 4.56056 15.9403 4.56056C15.9403 4.56056 15.9403 4.56056 15.9403 4.56056C15.9403 4.56055 15.9403 4.56055 15.9403 4.56055C15.9403 4.56055 15.9403 4.56055 15.9403 4.56055C15.9403 4.56055 15.9403 4.56055 15.9403 4.56055C15.9403 4.56055 15.9403 4.56055 15.9403 4.56055C15.9403 4.56055 15.9403 4.56055 15.9403 4.56055V4.56055H15.0403ZM15.9403 4.56018V1.2002H14.1403V4.56018H15.9403Z"
                fill="white" />
        </g>
    </g>
</svg>
