<svg width="19" height="21" viewBox="0 0 19 21" fill="none" xmlns="http://www.w3.org/2000/svg">
<g id="Vector">
<path id="Vector-7" d="M14.0955 10.8058C13.6814 10.7981 13.3394 11.1276 13.3317 11.5418C13.324 11.9559 13.6535 12.2979 14.0677 12.3056L14.0955 10.8058ZM18.0002 15.6216L17.2502 15.6079V15.6216H18.0002ZM18.0002 15.9339H17.2501L17.2504 15.9476L18.0002 15.9339ZM14.0816 19.9998V20.7499L14.0955 20.7497L14.0816 19.9998ZM5.29433 19.9998L5.2804 20.7498H5.29433V19.9998ZM1.37568 15.9339L2.12568 15.9476V15.9339H1.37568ZM1.37568 15.6216H2.12581L2.12556 15.6079L1.37568 15.6216ZM5.30825 12.3056C5.7224 12.2979 6.05189 11.9559 6.0442 11.5418C6.03651 11.1276 5.69455 10.7981 5.28041 10.8058L5.30825 12.3056ZM12.7594 15.3043C13.081 15.0433 13.1301 14.5709 12.869 14.2493C12.6079 13.9277 12.1356 13.8787 11.814 14.1397L12.7594 15.3043ZM9.21464 16.2499C8.89305 16.5109 8.84398 16.9833 9.10504 17.3049C9.3661 17.6264 9.83844 17.6755 10.16 17.4145L9.21464 16.2499ZM9.21373 17.4142C9.5352 17.6754 10.0076 17.6266 10.2688 17.3051C10.53 16.9836 10.4811 16.5113 10.1596 16.2501L9.21373 17.4142ZM7.56265 14.14C7.24117 13.8787 6.76882 13.9276 6.50761 14.2491C6.24641 14.5706 6.29526 15.0429 6.61674 15.3041L7.56265 14.14ZM8.93732 16.8325C8.93732 17.2467 9.27311 17.5825 9.68732 17.5825C10.1015 17.5825 10.4373 17.2467 10.4373 16.8325H8.93732ZM10.4373 1C10.4373 0.585786 10.1015 0.25 9.68732 0.25C9.27311 0.25 8.93732 0.585786 8.93732 1H10.4373ZM14.0677 12.3056C15.8584 12.3388 17.2832 13.8172 17.2504 15.6079L18.7501 15.6353C18.7981 13.0165 16.7143 10.8545 14.0955 10.8058L14.0677 12.3056ZM17.2502 15.6216V15.9339H18.7502V15.6216H17.2502ZM17.2504 15.9476C17.2832 17.7383 15.8584 19.2167 14.0677 19.2499L14.0955 20.7497C16.7143 20.701 18.7981 18.539 18.7501 15.9202L17.2504 15.9476ZM14.0816 19.2498H5.29433V20.7498H14.0816V19.2498ZM5.30825 19.2499C3.51757 19.2167 2.09276 17.7383 2.12556 15.9476L0.625809 15.9202C0.577848 18.539 2.66159 20.701 5.28041 20.7497L5.30825 19.2499ZM2.12568 15.9339V15.6216H0.625683V15.9339H2.12568ZM2.12556 15.6079C2.09276 13.8172 3.51757 12.3388 5.30825 12.3056L5.28041 10.8058C2.66159 10.8545 0.577848 13.0165 0.625809 15.6353L2.12556 15.6079ZM11.814 14.1397L9.21464 16.2499L10.16 17.4145L12.7594 15.3043L11.814 14.1397ZM10.1596 16.2501L7.56265 14.14L6.61674 15.3041L9.21373 17.4142L10.1596 16.2501ZM10.4373 16.8325V1H8.93732V16.8325H10.4373Z" fill="#5F45BF"/>
</g>
</svg>
