<svg width="16" height="18" viewBox="0 0 16 18" fill="none" xmlns="http://www.w3.org/2000/svg">
<path d="M15.2182 13.915C15.6145 13.7946 15.8381 13.3756 15.7176 12.9793C15.5972 12.583 15.1783 12.3594 14.782 12.4798L15.2182 13.915ZM7.98074 13.5793C7.56666 13.59 7.23963 13.9343 7.2503 14.3484C7.26097 14.7625 7.60529 15.0895 8.01936 15.0788L7.98074 13.5793ZM14.3324 13.5301C14.5213 13.8988 14.9732 14.0446 15.3419 13.8558C15.7105 13.667 15.8564 13.215 15.6676 12.8464L14.3324 13.5301ZM14.2347 11.6938L13.5522 12.0048C13.5569 12.0152 13.5619 12.0255 13.5671 12.0357L14.2347 11.6938ZM13.0762 7.62351L13.8202 7.52886C13.8187 7.51748 13.817 7.50613 13.815 7.49483L13.0762 7.62351ZM8.00817 2.1792C7.59395 2.1792 7.25817 2.51499 7.25817 2.9292C7.25817 3.34341 7.59395 3.6792 8.00817 3.6792V2.1792ZM8.00817 3.67896C8.42238 3.67896 8.75817 3.34318 8.75817 2.92896C8.75817 2.51475 8.42238 2.17896 8.00817 2.17896V3.67896ZM2.92383 7.62441L2.185 7.49548C2.18302 7.50684 2.1813 7.51824 2.17984 7.52968L2.92383 7.62441ZM1.76533 11.6936L2.43288 12.0354C2.4381 12.0253 2.44308 12.015 2.44782 12.0046L1.76533 11.6936ZM0.332449 12.8461C0.143639 13.2148 0.289451 13.6667 0.658129 13.8555C1.02681 14.0444 1.47874 13.8985 1.66755 13.5299L0.332449 12.8461ZM7.25812 2.92906C7.25812 3.34327 7.59391 3.67906 8.00812 3.67906C8.42233 3.67906 8.75812 3.34327 8.75812 2.92906H7.25812ZM8.75812 1C8.75812 0.585786 8.42233 0.25 8.00812 0.25C7.59391 0.25 7.25812 0.585786 7.25812 1H8.75812ZM7.25812 2.92906C7.25812 3.34327 7.59391 3.67906 8.00812 3.67906C8.42233 3.67906 8.75812 3.34327 8.75812 2.92906H7.25812ZM8.75812 1C8.75812 0.585786 8.42233 0.25 8.00812 0.25C7.59391 0.25 7.25812 0.585786 7.25812 1H8.75812ZM1.2181 12.4796C0.821787 12.3592 0.402866 12.5828 0.282412 12.9791C0.161959 13.3754 0.385587 13.7943 0.7819 13.9148L1.2181 12.4796ZM7.98069 15.0786C8.39476 15.0893 8.73908 14.7622 8.74975 14.3482C8.76042 13.9341 8.43339 13.5898 8.01931 13.5791L7.98069 15.0786ZM6.41666 14.145C6.41666 13.7308 6.08087 13.395 5.66666 13.395C5.25245 13.395 4.91666 13.7308 4.91666 14.145H6.41666ZM11.0892 14.145C11.0892 13.7308 10.7534 13.395 10.3392 13.395C9.92495 13.395 9.58916 13.7308 9.58916 14.145H11.0892ZM14.782 12.4798C12.5775 13.1499 10.2889 13.5199 7.98074 13.5793L8.01936 15.0788C10.462 15.0159 12.8844 14.6243 15.2182 13.915L14.782 12.4798ZM15.6676 12.8464L14.9022 11.3519L13.5671 12.0357L14.3324 13.5301L15.6676 12.8464ZM14.9172 11.3828C14.359 10.1577 13.9894 8.85902 13.8202 7.52886L12.3322 7.71816C12.5205 9.19841 12.9317 10.6429 13.5522 12.0048L14.9172 11.3828ZM13.815 7.49483C13.5618 6.04063 13.0243 4.70531 12.0619 3.72775C11.0823 2.73275 9.7318 2.1792 8.00817 2.1792V3.6792C9.38671 3.6792 10.3328 4.10957 10.993 4.78011C11.6703 5.46809 12.1157 6.47992 12.3373 7.75219L13.815 7.49483ZM8.00817 2.17896C6.28421 2.17896 4.9306 2.7323 3.94747 3.72647C2.98107 4.70372 2.43912 6.03928 2.185 7.49548L3.66267 7.75335C3.88454 6.48194 4.3331 5.46977 5.01403 4.7812C5.67823 4.10955 6.62879 3.67896 8.00817 3.67896V2.17896ZM2.17984 7.52968C2.01051 8.85947 1.64094 10.1578 1.08285 11.3826L2.44782 12.0046C3.06819 10.6431 3.47939 9.19899 3.66783 7.71915L2.17984 7.52968ZM1.09778 11.3517L0.332449 12.8461L1.66755 13.5299L2.43288 12.0354L1.09778 11.3517ZM8.75812 2.92906V1H7.25812V2.92906H8.75812ZM8.75812 2.92906V1H7.25812V2.92906H8.75812ZM0.7819 13.9148C3.11567 14.6241 5.53801 15.0157 7.98069 15.0786L8.01931 13.5791C5.71119 13.5196 3.42259 13.1496 1.2181 12.4796L0.7819 13.9148ZM4.91666 14.145V14.7154H6.41666V14.145H4.91666ZM4.91666 14.7154C4.91666 16.407 6.31438 17.7498 8.00291 17.7498V16.2498C7.11089 16.2498 6.41666 15.5471 6.41666 14.7154H4.91666ZM8.00291 17.7498C9.69144 17.7498 11.0892 16.407 11.0892 14.7154H9.58916C9.58916 15.5471 8.89493 16.2498 8.00291 16.2498V17.7498ZM11.0892 14.7154V14.145H9.58916V14.7154H11.0892Z" fill="#5F45BF"/>
</svg>
