<svg width="12" height="12" viewBox="0 0 12 12" fill="none" xmlns="http://www.w3.org/2000/svg">
    <g id="Group 1357">
        <path id="Vector-4" fill-rule="evenodd" clip-rule="evenodd"
            d="M6.82523 3.12305H1.39261C1.09272 3.12305 0.849609 3.36615 0.849609 3.66604V8.01197C0.849609 8.912 1.57923 9.64161 2.47927 9.64161H5.73858C6.17079 9.64161 6.5853 9.46992 6.89092 9.1643C7.19654 8.85869 7.36823 8.44418 7.36823 8.01197V3.66604C7.36823 3.36615 7.12512 3.12305 6.82523 3.12305Z"
            stroke="#5A5D66" stroke-width="0.651863" stroke-linecap="round"
            stroke-linejoin="round" />
        <path id="Vector-5" fill-rule="evenodd" clip-rule="evenodd"
            d="M6.06547 1.81891L5.99637 1.68136C5.63909 0.966634 4.90862 0.515137 4.10956 0.515137C3.3105 0.515137 2.58003 0.966634 2.22274 1.68136L2.1543 1.81891H6.06547Z"
            stroke="#5A5D66" stroke-width="0.651863" stroke-linecap="round"
            stroke-linejoin="round" />
        <path id="Vector-6"
            d="M3.34737 5.2955C3.34737 5.11549 3.20145 4.96956 3.02144 4.96956C2.84143 4.96956 2.69551 5.11549 2.69551 5.2955H3.34737ZM2.69551 7.46813C2.69551 7.64814 2.84143 7.79406 3.02144 7.79406C3.20145 7.79406 3.34737 7.64814 3.34737 7.46813H2.69551ZM5.52208 5.2955C5.52208 5.11549 5.37615 4.96956 5.19615 4.96956C5.01614 4.96956 4.87021 5.11549 4.87021 5.2955H5.52208ZM4.87021 7.46813C4.87021 7.64814 5.01614 7.79406 5.19615 7.79406C5.37615 7.79406 5.52208 7.64814 5.52208 7.46813H4.87021ZM6.06484 1.4934C5.88484 1.4934 5.73891 1.63933 5.73891 1.81934C5.73891 1.99934 5.88484 2.14527 6.06484 2.14527V1.4934ZM7.36857 2.14527C7.54858 2.14527 7.6945 1.99934 7.6945 1.81934C7.6945 1.63933 7.54858 1.4934 7.36857 1.4934V2.14527ZM2.15333 2.14527C2.33334 2.14527 2.47927 1.99934 2.47927 1.81934C2.47927 1.63933 2.33334 1.4934 2.15333 1.4934V2.14527ZM0.849609 1.4934C0.669603 1.4934 0.523678 1.63933 0.523678 1.81934C0.523678 1.99934 0.669603 2.14527 0.849609 2.14527V1.4934ZM2.69551 5.2955V7.46813H3.34737V5.2955H2.69551ZM4.87021 5.2955V7.46813H5.52208V5.2955H4.87021ZM6.06484 2.14527H7.36857V1.4934H6.06484V2.14527ZM2.15333 1.4934H0.849609V2.14527H2.15333V1.4934Z"
            fill="#5A5D66" />
    </g>
</svg>
