<svg width="22" height="22" viewBox="0 0 22 22" fill="none" xmlns="http://www.w3.org/2000/svg">
<g opacity="0.7">
<path d="M14.0345 13.7683C13.5028 13.7683 12.9253 13.5941 12.3478 13.2366L11.1378 12.5033C11.0828 12.4666 10.9178 12.4666 10.8628 12.5033L9.65283 13.2366C8.66283 13.8416 7.69116 13.9333 6.91199 13.4933C6.15116 13.0624 5.72949 12.2008 5.72949 11.0733V4.61075C5.72949 2.37409 6.94866 1.14575 9.16699 1.14575H12.8337C15.052 1.14575 16.2712 2.37409 16.2712 4.61075V11.0733C16.2712 12.2099 15.8495 13.0716 15.0887 13.4933C14.7678 13.6766 14.4103 13.7683 14.0345 13.7683ZM11.0003 11.1008C11.3028 11.1008 11.6053 11.1741 11.8528 11.3208L13.0628 12.0541C13.6037 12.3841 14.0987 12.4666 14.4103 12.2924C14.7128 12.1183 14.887 11.6691 14.887 11.0641V4.61075C14.887 3.14409 14.2728 2.52075 12.8245 2.52075H9.15783C7.70949 2.52075 7.09533 3.14409 7.09533 4.61075V11.0733C7.09533 11.6783 7.26949 12.1274 7.57199 12.3016C7.88366 12.4758 8.37866 12.3933 8.91949 12.0633L10.1295 11.3299C10.3953 11.1741 10.6978 11.1008 11.0003 11.1008Z" fill="#191F6D"/>
<path d="M13.7497 20.8541H8.24967C3.27217 20.8541 1.14551 18.7091 1.14551 13.6858V10.9083C1.14551 6.63659 2.68551 4.47326 6.13217 3.89576C6.49884 3.83159 6.85634 4.08826 6.92051 4.46409C6.98467 4.83992 6.72801 5.18826 6.35217 5.25242C3.59301 5.71076 2.51134 7.29659 2.51134 10.9083V13.6858C2.51134 17.9116 4.06051 19.4791 8.24051 19.4791H13.7405C17.9205 19.4791 19.4697 17.9116 19.4697 13.6858V10.9083C19.4697 7.24159 18.3513 5.65576 15.473 5.22492C15.0972 5.16992 14.8405 4.82159 14.8955 4.44576C14.9505 4.06992 15.2988 3.81326 15.6747 3.86826C19.2497 4.39992 20.8447 6.56326 20.8447 10.9083V13.6858C20.8538 18.7091 18.7272 20.8541 13.7497 20.8541Z" fill="#191F6D"/>
</g>
</svg>
