<svg width="19" height="21" viewBox="0 0 19 21" fill="none" xmlns="http://www.w3.org/2000/svg">
<g id="Group 1335">
<path id="Vector" fill-rule="evenodd" clip-rule="evenodd" d="M1 8.10481V15.242C1 17.8699 3.13029 20.0001 5.75813 20.0001H12.8953C15.5232 20.0001 17.6535 17.8699 17.6535 15.242V8.10481C17.6535 5.47697 15.5232 3.34668 12.8953 3.34668H5.75813C3.13029 3.34668 1 5.47697 1 8.10481Z" stroke="#5F45BF" stroke-width="1.5" stroke-linecap="round" stroke-linejoin="round"/>
<path id="Vector-2" d="M12.1483 4.5686C12.1483 4.98281 12.484 5.3186 12.8983 5.3186C13.3125 5.3186 13.6483 4.98281 13.6483 4.5686H12.1483ZM13.6483 1C13.6483 0.585786 13.3125 0.25 12.8983 0.25C12.484 0.25 12.1483 0.585786 12.1483 1H13.6483ZM5.00883 4.5686C5.00883 4.98281 5.34462 5.3186 5.75883 5.3186C6.17304 5.3186 6.50883 4.98281 6.50883 4.5686H5.00883ZM6.50883 1C6.50883 0.585786 6.17304 0.25 5.75883 0.25C5.34462 0.25 5.00883 0.585786 5.00883 1H6.50883ZM5.00781 9.66755C5.00781 10.0818 5.3436 10.4175 5.75781 10.4175C6.17203 10.4175 6.50781 10.0818 6.50781 9.66755H5.00781ZM9.32641 9.66755L10.0751 9.71214C10.076 9.69729 10.0764 9.68242 10.0764 9.66755H9.32641ZM8.56954 11.1918L9.05759 11.7613H9.05759L8.56954 11.1918ZM6.94735 11.7064L6.87679 10.9597C6.49163 10.9961 6.19735 11.3195 6.19735 11.7064C6.19735 12.0933 6.49163 12.4167 6.87679 12.4531L6.94735 11.7064ZM8.56954 12.221L9.05759 11.6515L8.56954 12.221ZM9.32641 13.7453H10.0764C10.0764 13.7304 10.076 13.7155 10.0751 13.7007L9.32641 13.7453ZM6.50781 13.7453C6.50781 13.331 6.17203 12.9953 5.75781 12.9953C5.3436 12.9953 5.00781 13.331 5.00781 13.7453H6.50781ZM11.2196 8.58629C10.9051 8.85583 10.8687 9.3293 11.1382 9.64382C11.4077 9.95833 11.8812 9.99479 12.1957 9.72525L11.2196 8.58629ZM12.8972 8.13634H13.6472C13.6472 7.84345 13.4767 7.57736 13.2106 7.45497C12.9446 7.33257 12.6316 7.37627 12.4092 7.56686L12.8972 8.13634ZM12.1472 15.2735C12.1472 15.6877 12.483 16.0235 12.8972 16.0235C13.3114 16.0235 13.6472 15.6877 13.6472 15.2735H12.1472ZM13.6483 4.5686V1H12.1483V4.5686H13.6483ZM6.50883 4.5686V1H5.00883V4.5686H6.50883ZM6.50781 9.66755C6.50781 9.40527 6.61066 9.23859 6.76989 9.1173C6.94997 8.98011 7.22749 8.8884 7.54211 8.8884C7.85673 8.8884 8.13425 8.98011 8.31433 9.1173C8.47356 9.23859 8.57641 9.40527 8.57641 9.66755H10.0764C10.0764 8.91039 9.73319 8.3125 9.2233 7.92408C8.73427 7.55155 8.11964 7.3884 7.54211 7.3884C6.96458 7.3884 6.34995 7.55155 5.86092 7.92408C5.35104 8.3125 5.00781 8.91039 5.00781 9.66755H6.50781ZM8.57774 9.62295C8.55471 10.0096 8.3756 10.3703 8.08149 10.6223L9.05759 11.7613C9.66062 11.2445 10.0279 10.5049 10.0751 9.71214L8.57774 9.62295ZM8.08149 10.6223C7.78739 10.8744 7.40351 10.9962 7.0179 10.9597L6.87679 12.4531C7.66746 12.5278 8.45455 12.2781 9.05759 11.7613L8.08149 10.6223ZM7.0179 12.4531C7.40351 12.4166 7.78739 12.5384 8.08149 12.7905L9.05759 11.6515C8.45455 11.1347 7.66746 10.885 6.87679 10.9597L7.0179 12.4531ZM8.08149 12.7905C8.3756 13.0425 8.55471 13.4032 8.57774 13.7899L10.0751 13.7007C10.0279 12.9079 9.66062 12.1683 9.05759 11.6515L8.08149 12.7905ZM8.57641 13.7453C8.57641 14.0075 8.47356 14.1742 8.31433 14.2955C8.13425 14.4327 7.85673 14.5244 7.54211 14.5244C7.22749 14.5244 6.94997 14.4327 6.76989 14.2955C6.61066 14.1742 6.50781 14.0075 6.50781 13.7453H5.00781C5.00781 14.5024 5.35104 15.1003 5.86092 15.4887C6.34995 15.8613 6.96458 16.0244 7.54211 16.0244C8.11964 16.0244 8.73427 15.8613 9.2233 15.4887C9.73319 15.1003 10.0764 14.5024 10.0764 13.7453H8.57641ZM12.1957 9.72525L13.3853 8.70582L12.4092 7.56686L11.2196 8.58629L12.1957 9.72525ZM12.1472 8.13634V15.2735H13.6472V8.13634H12.1472Z" fill="#5F45BF"/>
</g>
</svg>
