<svg width="14" height="14" viewBox="0 0 22 22" fill="none" xmlns="http://www.w3.org/2000/svg">
    <g transform="translate(0,0) scale(1.6)">

    <path stroke="#191F6D" stroke-width="0.1"  d="M10.1795 13.2709C9.52033 13.2709 8.82616 13.1134 8.10866 12.8101C7.40866 12.5126 6.70283 12.1042 6.01449 11.6084C5.33199 11.1067 4.67283 10.5467 4.04866 9.93425C3.43033 9.31008 2.87033 8.65092 2.37449 7.97425C1.87283 7.27425 1.47033 6.57425 1.18449 5.89758C0.881159 5.17425 0.729492 4.47425 0.729492 3.81508C0.729492 3.36008 0.811159 2.92841 0.968659 2.52591C1.13199 2.11175 1.39449 1.72675 1.75033 1.39425C2.19949 0.950915 2.71283 0.729248 3.26116 0.729248C3.48866 0.729248 3.72199 0.781748 3.92033 0.875081C4.14783 0.980081 4.34033 1.13758 4.48033 1.34758L5.83366 3.25508C5.95616 3.42425 6.04949 3.58758 6.11366 3.75091C6.18949 3.92591 6.23033 4.10091 6.23033 4.27008C6.23033 4.49175 6.16616 4.70758 6.04366 4.91175C5.95616 5.06925 5.82199 5.23842 5.65282 5.40758L5.25616 5.82175C5.26199 5.83925 5.26783 5.85091 5.27366 5.86258C5.34366 5.98508 5.48366 6.19508 5.75199 6.51008C6.03783 6.83675 6.30616 7.13425 6.57449 7.40841C6.91866 7.74675 7.20449 8.01508 7.47283 8.23675C7.80533 8.51675 8.02116 8.65675 8.14949 8.72092L8.13783 8.75008L8.56366 8.33008C8.74449 8.14925 8.91949 8.01508 9.08866 7.92758C9.40949 7.72925 9.81783 7.69425 10.2262 7.86341C10.3778 7.92758 10.5412 8.01508 10.7162 8.13758L12.6528 9.51425C12.8687 9.66008 13.0262 9.84675 13.1195 10.0684C13.207 10.2901 13.2478 10.4942 13.2478 10.6984C13.2478 10.9784 13.1837 11.2584 13.0612 11.5209C12.9387 11.7834 12.787 12.0109 12.5945 12.2209C12.262 12.5884 11.9003 12.8509 11.4803 13.0201C11.0778 13.1834 10.6403 13.2709 10.1795 13.2709ZM3.26116 1.60425C2.94033 1.60425 2.64283 1.74425 2.35699 2.02425C2.08866 2.27508 1.90199 2.54925 1.78533 2.84675C1.66283 3.15008 1.60449 3.47091 1.60449 3.81508C1.60449 4.35758 1.73283 4.94675 1.98949 5.55342C2.25199 6.17175 2.61949 6.81342 3.08616 7.45508C3.55283 8.09675 4.08366 8.72092 4.66699 9.31008C5.25033 9.88758 5.88033 10.4242 6.52782 10.8967C7.15782 11.3576 7.80533 11.7309 8.44699 11.9992C9.44449 12.4251 10.3778 12.5242 11.1478 12.2034C11.4453 12.0809 11.7078 11.8942 11.947 11.6259C12.0812 11.4801 12.1862 11.3226 12.2737 11.1359C12.3437 10.9901 12.3787 10.8384 12.3787 10.6867C12.3787 10.5934 12.3612 10.5001 12.3145 10.3951C12.297 10.3601 12.262 10.2959 12.1512 10.2201L10.2145 8.84342C10.0978 8.76175 9.99282 8.70342 9.89366 8.66258C9.76532 8.61008 9.71282 8.55758 9.51449 8.68008C9.39783 8.73842 9.29282 8.82592 9.17616 8.94258L8.73283 9.38008C8.50533 9.60175 8.15533 9.65425 7.88699 9.55508L7.72949 9.48508C7.49033 9.35675 7.21033 9.15841 6.90116 8.89592C6.62116 8.65675 6.31783 8.37675 5.95033 8.01508C5.66449 7.72341 5.37866 7.41425 5.08116 7.07008C4.80699 6.74925 4.60866 6.47508 4.48616 6.24758L4.41616 6.07258C4.38116 5.93842 4.36949 5.86258 4.36949 5.78091C4.36949 5.57091 4.44533 5.38425 4.59116 5.23841L5.02866 4.78341C5.14533 4.66675 5.23283 4.55591 5.29116 4.45675C5.33783 4.38091 5.35533 4.31675 5.35533 4.25841C5.35533 4.21175 5.33783 4.14175 5.30866 4.07175C5.26783 3.97842 5.20366 3.87341 5.12199 3.76258L3.76866 1.84925C3.71033 1.76758 3.64033 1.70925 3.55283 1.66841C3.45949 1.62758 3.36033 1.60425 3.26116 1.60425ZM8.13783 8.75592L8.04449 9.15258L8.20199 8.74425C8.17283 8.73841 8.14949 8.74425 8.13783 8.75592Z" fill="#191F6D"/>
    </g>g>
</svg>
