<svg width="12" height="12" viewBox="0 0 12 12" fill="none" xmlns="http://www.w3.org/2000/svg">
    <path fill-rule="evenodd" clip-rule="evenodd"
        d="M1 4.58189V7.85629C1.0073 9.06895 1.99611 10.0462 3.20877 10.0392H8.73104C9.31351 10.0427 9.87352 9.81473 10.2879 9.40535C10.7022 8.99597 10.937 8.43875 10.9405 7.85629V4.58189C10.9332 3.36922 9.94437 2.39199 8.73171 2.39896H3.20877C1.99611 2.39199 1.0073 3.36922 1 4.58189Z"
        stroke="#5F45BF" stroke-linecap="round" stroke-linejoin="round" />
    <path fill-rule="evenodd" clip-rule="evenodd"
        d="M5.97134 7.856C5.06953 7.84541 4.34604 7.10765 4.35308 6.20581C4.36011 5.30397 5.09503 4.57758 5.99689 4.58107C6.89875 4.58455 7.62802 5.3166 7.62809 6.21847C7.62563 6.65535 7.44968 7.07335 7.13896 7.38046C6.82824 7.68758 6.40822 7.85864 5.97134 7.856Z"
        stroke="#5F45BF" stroke-linecap="round" stroke-linejoin="round" />
    <path
        d="M4.31396 2.39878V1.85272C4.31572 1.56148 4.43309 1.28287 4.64027 1.07818C4.84744 0.873492 5.12745 0.759488 5.41868 0.761251H6.52274C6.81397 0.759488 7.09398 0.873492 7.30115 1.07818C7.50833 1.28287 7.62571 1.56148 7.62746 1.85272V2.39878"
        stroke="#5F45BF" stroke-linecap="round" stroke-linejoin="round" />
</svg>
