<svg width="29" height="24" viewBox="0 0 29 24" fill="none" xmlns="http://www.w3.org/2000/svg">
    <g id="Group 48095465">
        <g id="Group 6260">
            <ellipse id="Ellipse 7" cx="23.3029" cy="6.63198" rx="2.36786" ry="2.21987"
                fill="white" />
            <g id="&#240;&#159;&#166;&#134; icon &#34;user&#34;">
                <path id="Vector"
                    d="M27.4883 13.8832V13.2912C27.4883 11.0027 25.633 9.14746 23.3445 9.14746C21.8036 9.14746 20.4591 9.98857 19.7451 11.2367"
                    stroke="white" stroke-width="1.44" stroke-linecap="round"
                    stroke-linejoin="round" />
                <path id="Vector_2"
                    d="M23.3444 9.14782C24.6521 9.14782 25.7123 8.08767 25.7123 6.77997C25.7123 5.47223 24.6521 4.41211 23.3444 4.41211C22.0367 4.41211 20.9766 5.47223 20.9766 6.77997C20.9766 8.08767 22.0367 9.14782 23.3444 9.14782Z"
                    fill="white" stroke="white" stroke-width="1.44" stroke-linecap="round"
                    stroke-linejoin="round" />
            </g>
        </g>
        <g id="Group 6261">
            <ellipse id="Ellipse 7_2" cx="5.7536" cy="6.63198" rx="2.36786" ry="2.21987"
                fill="white" />
            <g id="&#240;&#159;&#166;&#134; icon &#34;user&#34;_2">
                <path id="Vector_3"
                    d="M1.64648 13.8832V13.2912C1.64648 11.0027 3.50171 9.14746 5.79023 9.14746C7.20559 9.14746 8.45521 9.85706 9.20274 10.9399"
                    stroke="white" stroke-width="1.44" stroke-linecap="round"
                    stroke-linejoin="round" />
                <path id="Vector_4"
                    d="M5.79071 9.14782C7.09842 9.14782 8.15856 8.08767 8.15856 6.77997C8.15856 5.47223 7.09842 4.41211 5.79071 4.41211C4.48298 4.41211 3.42285 5.47223 3.42285 6.77997C3.42285 8.08767 4.48298 9.14782 5.79071 9.14782Z"
                    fill="white" stroke="white" stroke-width="1.44" stroke-linecap="round"
                    stroke-linejoin="round" />
            </g>
        </g>
        <g id="Group 6262">
            <ellipse id="Ellipse 7_3" cx="14.3204" cy="4.65625" rx="3.9" ry="3.65625"
                fill="white" />
            <g id="&#240;&#159;&#166;&#134; icon &#34;user&#34;_3">
                <path id="Vector_5"
                    d="M7.55762 16.5998V15.6248C7.55762 11.8555 10.6133 8.7998 14.3826 8.7998C18.152 8.7998 21.2076 11.8555 21.2076 15.6248V16.5998"
                    stroke="white" stroke-width="1.44" stroke-linecap="round"
                    stroke-linejoin="round" />
                <path id="Vector_6"
                    d="M14.381 8.8C16.5348 8.8 18.281 7.05387 18.281 4.9C18.281 2.74609 16.5348 1 14.381 1C12.227 1 10.481 2.74609 10.481 4.9C10.481 7.05387 12.227 8.8 14.381 8.8Z"
                    stroke="white" stroke-width="1.44" stroke-linecap="round"
                    stroke-linejoin="round" />
            </g>
        </g>
    </g>
</svg>
