<svg width="24" height="24" viewBox="0 0 24 24" fill="none" xmlns="http://www.w3.org/2000/svg">
<path opacity="0.7" d="M12 14.25C11.8661 14.25 11.75 14.1339 11.75 14V9C11.75 8.86614 11.8661 8.75 12 8.75C12.1339 8.75 12.25 8.86614 12.25 9V14C12.25 14.1339 12.1339 14.25 12 14.25Z" stroke="#191F6D"/>
<path opacity="0.7" d="M11.8436 17.4728L11.8118 17.457L11.7781 17.4457C11.768 17.4423 11.7526 17.4358 11.7321 17.4234L11.6774 17.3796L11.6336 17.3446C11.5478 17.2439 11.5 17.1153 11.5 17.0001C11.5 16.8848 11.5478 16.7562 11.6336 16.6555L11.7321 16.5767C11.7526 16.5643 11.768 16.5578 11.7781 16.5544L11.8118 16.5432L11.8436 16.5273C11.8636 16.5173 11.8761 16.5143 11.8822 16.5133L11.8974 16.5107L11.9124 16.5073C11.9716 16.4936 12.0313 16.4958 12.0687 16.5051L12.0938 16.5114L12.1193 16.515C12.1316 16.5168 12.1402 16.5192 12.1564 16.5273L12.1882 16.5432L12.2219 16.5544C12.232 16.5578 12.2474 16.5643 12.2679 16.5767L12.3664 16.6555C12.4522 16.7562 12.5 16.8848 12.5 17.0001C12.5 17.1153 12.4522 17.2439 12.3664 17.3446L12.3226 17.3796L12.2679 17.4234C12.2474 17.4358 12.232 17.4423 12.2219 17.4457L12.1882 17.457L12.1564 17.4728C12.1402 17.4809 12.1316 17.4833 12.1193 17.4851L12.1193 17.4849L12.1078 17.4869C12.0495 17.4966 12.0151 17.5001 12 17.5001C11.9834 17.5001 11.9532 17.4968 11.8792 17.4863C11.8724 17.4849 11.8607 17.4814 11.8436 17.4728Z" stroke="#191F6D"/>
<path opacity="0.7" d="M8.53747 4.87305L8.53754 4.87291C9.48548 3.16663 10.7259 2.34009 12.0005 2.34009C13.275 2.34009 14.5154 3.16661 15.4634 4.87288C15.4634 4.87289 15.4634 4.8729 15.4634 4.87291L21.5234 15.7829L21.5234 15.7829C22.4179 17.393 22.4714 18.8357 21.8305 19.9248C21.1878 20.9975 19.8943 21.6601 18.0605 21.6601H5.94046C4.10682 21.6601 2.81405 20.9977 2.17111 19.916C1.53847 18.8351 1.58402 17.3813 2.47747 15.773C2.47749 15.773 2.47752 15.773 2.47754 15.7729L8.53747 4.87305ZM8.9745 5.11528L8.9732 5.11761L2.92372 16.0267C2.92363 16.0268 2.92354 16.027 2.92345 16.0271C2.20235 17.3211 2.01172 18.6434 2.608 19.671C3.20832 20.7056 4.47229 21.1701 5.95046 21.1701H18.0705C19.5522 21.1701 20.8009 20.7038 21.4106 19.675C22.0223 18.6427 21.8156 17.3262 21.098 16.0282L21.0974 16.027L15.0274 5.11699L15.0264 5.11528C14.2639 3.75734 13.2122 2.84009 12.0005 2.84009C10.7888 2.84009 9.73703 3.75734 8.9745 5.11528Z" stroke="#191F6D"/>
</svg>
