<svg width="23" height="24" viewBox="0 0 23 24" fill="none" xmlns="http://www.w3.org/2000/svg">
    <g id="Vector">
        <g id="Group_2603">
            <path id="Vector-12" fill-rule="evenodd" clip-rule="evenodd"
                d="M8.61507 1.15918H14.8043C16.3895 1.15918 15.519 3.53769 14.8772 4.98853L14.1468 6.65234L14.0482 6.87676C14.74 6.84318 15.4241 7.03477 15.9979 7.42278C18.144 9.38653 19.8858 11.7507 21.1251 14.3825C21.6081 15.3557 21.7997 16.4477 21.6769 17.5272C21.5294 20.2786 19.322 22.4712 16.5696 22.6001H6.84977C4.09668 22.475 1.88599 20.2847 1.7354 17.5329C1.61253 16.4534 1.80413 15.3614 2.28714 14.3882C3.52799 11.7538 5.27221 9.38755 7.42153 7.42278C7.9953 7.03477 8.67938 6.84318 9.37122 6.87676L9.25687 6.61804L8.54217 4.98853C7.90323 3.53769 7.02844 1.15918 8.61507 1.15918Z"
                stroke="#FAFAFA" stroke-width="1.485" stroke-linecap="round"
                stroke-linejoin="round" />
            <path id="Ellipse 7"
                d="M15.393 2.86696C15.393 5.32639 14.46 7.32016 11.8538 7.32016C9.2475 7.32016 8.01953 5.32639 8.01953 2.86696C8.01953 0.407526 8.92779 1.08567 11.534 1.08567C14.1403 1.08567 15.393 0.407526 15.393 2.86696Z"
                fill="#FAFAFA" />
            <path id="Vector-13"
                d="M14.0486 7.61848C14.4586 7.61848 14.7911 7.28605 14.7911 6.87598C14.7911 6.46591 14.4586 6.13348 14.0486 6.13348V7.61848ZM9.37158 6.13348C8.96151 6.13348 8.62908 6.46591 8.62908 6.87598C8.62908 7.28605 8.96151 7.61848 9.37158 7.61848V6.13348ZM17.7909 6.09429C18.1485 5.89347 18.2755 5.44084 18.0747 5.0833C17.8739 4.72577 17.4213 4.59872 17.0637 4.79953L17.7909 6.09429ZM14.1469 6.65189L14.2867 7.38111L14.2888 7.3807L14.1469 6.65189ZM9.25692 6.61758L9.40695 5.89037L9.40033 5.88906L9.25692 6.61758ZM6.3444 4.79326C5.9834 4.59874 5.53306 4.7337 5.33854 5.0947C5.14402 5.4557 5.27898 5.90604 5.63998 6.10056L6.3444 4.79326ZM14.0486 6.13348H9.37158V7.61848H14.0486V6.13348ZM17.0637 4.79953C16.1106 5.33485 15.078 5.71416 14.005 5.92307L14.2888 7.3807C15.5173 7.14151 16.6997 6.70721 17.7909 6.09429L17.0637 4.79953ZM14.0071 5.92267C12.4865 6.2142 10.9233 6.20324 9.40695 5.8904L9.1069 7.34477C10.8143 7.69703 12.5745 7.70938 14.2867 7.38111L14.0071 5.92267ZM9.40033 5.88906C8.33257 5.67887 7.30243 5.30948 6.3444 4.79326L5.63998 6.10056C6.72893 6.68732 7.89983 7.10719 9.11351 7.3461L9.40033 5.88906Z"
                fill="#FAFAFA" />
        </g>
    </g>
</svg>
