<svg width="12" height="12" viewBox="0 0 12 12" fill="none" xmlns="http://www.w3.org/2000/svg">
    <path
        d="M1.5 7.90407C1.5 7.62793 1.27614 7.40407 1 7.40407C0.723858 7.40407 0.5 7.62793 0.5 7.90407H1.5ZM1 8.61836H0.5H1ZM11.5 7.90407C11.5 7.62793 11.2761 7.40407 11 7.40407C10.7239 7.40407 10.5 7.62793 10.5 7.90407H11.5ZM5.60957 8.30605C5.43706 8.52168 5.47202 8.83632 5.68765 9.00883C5.90328 9.18133 6.21793 9.14637 6.39043 8.93074L5.60957 8.30605ZM9.24758 5.35931C9.42008 5.14368 9.38512 4.82904 9.16949 4.65653C8.95386 4.48403 8.63921 4.51899 8.46671 4.73462L9.24758 5.35931ZM5.60864 8.93074C5.78114 9.14637 6.09579 9.18133 6.31142 9.00883C6.52705 8.83632 6.56201 8.52168 6.3895 8.30605L5.60864 8.93074ZM3.53236 4.73462C3.35986 4.51899 3.04521 4.48403 2.82958 4.65653C2.61395 4.82904 2.57899 5.14368 2.75149 5.35931L3.53236 4.73462ZM5.49907 8.61837C5.49907 8.89452 5.72293 9.11837 5.99907 9.11837C6.27521 9.11837 6.49907 8.89452 6.49907 8.61837H5.49907ZM6.49907 0.76123C6.49907 0.485088 6.27521 0.26123 5.99907 0.26123C5.72293 0.26123 5.49907 0.485088 5.49907 0.76123H6.49907ZM0.5 7.90407V8.61836H1.5V7.90407H0.5ZM0.5 8.61836C0.5 10.078 1.68325 11.2612 3.14286 11.2612V10.2612C2.23553 10.2612 1.5 9.52568 1.5 8.61836H0.5ZM3.14286 11.2612H8.85714V10.2612H3.14286V11.2612ZM8.85714 11.2612C10.3168 11.2612 11.5 10.078 11.5 8.61836H10.5C10.5 9.52568 9.76447 10.2612 8.85714 10.2612V11.2612ZM11.5 8.61836V7.90407H10.5V8.61836H11.5ZM6.39043 8.93074L9.24758 5.35931L8.46671 4.73462L5.60957 8.30605L6.39043 8.93074ZM6.3895 8.30605L3.53236 4.73462L2.75149 5.35931L5.60864 8.93074L6.3895 8.30605ZM6.49907 8.61837V0.76123H5.49907V8.61837H6.49907Z"
        fill="#5F45BF" />
</svg>
