<svg width="15" height="16" viewBox="0 0 15 16" fill="none" xmlns="http://www.w3.org/2000/svg">
<g id="Group 1286">
<path id="Vector-14" fill-rule="evenodd" clip-rule="evenodd" d="M11.9011 1.14492L13.726 2.55823C13.9022 2.7216 14.001 2.94616 13.9996 3.18025C13.9981 3.41434 13.8967 3.63781 13.7185 3.79924L12.3317 5.40629L7.61215 10.8855C7.53043 10.977 7.42043 11.0417 7.29782 11.0703L4.85077 11.606C4.52608 11.6187 4.24607 11.3909 4.20898 11.0837L4.32346 8.78647C4.33194 8.66918 4.38074 8.55781 4.46232 8.46952L8.97829 3.2332L10.5687 1.38687C10.8777 0.986653 11.4589 0.881112 11.9011 1.14492Z" stroke="#BA38F2" stroke-width="1.5" stroke-linecap="round" stroke-linejoin="round"/>
<path id="Vector-15" d="M1 14.1135C0.585786 14.1135 0.25 14.4493 0.25 14.8635C0.25 15.2777 0.585786 15.6135 1 15.6135V14.1135ZM13.6688 15.6135C14.083 15.6135 14.4188 15.2777 14.4188 14.8635C14.4188 14.4493 14.083 14.1135 13.6688 14.1135V15.6135ZM9.69469 3.03276C9.53966 2.64865 9.1026 2.46296 8.71849 2.61799C8.33439 2.77303 8.14869 3.21009 8.30373 3.5942L9.69469 3.03276ZM12.4695 6.29861C12.8735 6.20733 13.127 5.80581 13.0358 5.40178C12.9445 4.99774 12.543 4.7442 12.1389 4.83548L12.4695 6.29861ZM1 15.6135H13.6688V14.1135H1V15.6135ZM8.30373 3.5942C8.52131 4.13327 8.96766 4.90103 9.6335 5.49313C10.3125 6.09694 11.2847 6.56627 12.4695 6.29861L12.1389 4.83548C11.5677 4.96453 11.0723 4.76527 10.6303 4.37222C10.1751 3.96747 9.847 3.41009 9.69469 3.03276L8.30373 3.5942Z" fill="#BA38F2"/>
</g>
</svg>
