<svg width="27" height="27" viewBox="0 0 27 27" fill="none" xmlns="http://www.w3.org/2000/svg">
<g id="Vector">
<path id="Vector_2" fill-rule="evenodd" clip-rule="evenodd" d="M8.39911 25.9102C4.67967 26.0269 1.56638 23.1134 1.43648 19.3944V12.8768L1.42775 9.61982C1.20354 8.43986 1.79893 7.25623 2.87997 6.73283L9.94035 2.52104C12.2079 1.13166 15.0631 1.13166 17.3306 2.52104L24.391 6.73807C25.472 7.26147 26.0674 8.44509 25.8432 9.62506L25.8345 12.8838V19.3996C25.7018 23.1166 22.5893 26.0269 18.8719 25.9102H8.39911Z" stroke="#3B2E8C" stroke-width="1.5" stroke-linecap="round" stroke-linejoin="round"/>
<path id="Vector-2" d="M1.80621 8.97234C1.44861 8.76331 0.989262 8.88376 0.780235 9.24136C0.571208 9.59896 0.691653 10.0583 1.04926 10.2673L1.80621 8.97234ZM9.99793 14.6293L10.3829 13.9856L10.3764 13.9818L9.99793 14.6293ZM17.2713 14.6293L16.8928 13.9818L16.8863 13.9856L17.2713 14.6293ZM26.2199 10.2673C26.5775 10.0583 26.698 9.59896 26.489 9.24136C26.2799 8.88376 25.8206 8.76331 25.463 8.97234L26.2199 10.2673ZM16.9445 9.18286C17.3463 9.28332 17.7535 9.039 17.854 8.63715C17.9544 8.2353 17.7101 7.8281 17.3083 7.72764L16.9445 9.18286ZM13.6354 7.58252L13.8173 6.85491C13.6979 6.82506 13.573 6.82506 13.4535 6.85491L13.6354 7.58252ZM9.96263 7.72764C9.56078 7.8281 9.31646 8.2353 9.41692 8.63715C9.51739 9.039 9.92459 9.28332 10.3264 9.18286L9.96263 7.72764ZM1.04926 10.2673L9.61945 15.2768L10.3764 13.9818L1.80621 8.97234L1.04926 10.2673ZM9.61295 15.273C12.0895 16.7542 15.1797 16.7542 17.6562 15.273L16.8863 13.9856C14.8839 15.1833 12.3853 15.1833 10.3829 13.9856L9.61295 15.273ZM17.6497 15.2768L26.2199 10.2673L25.463 8.97234L16.8928 13.9818L17.6497 15.2768ZM17.3083 7.72764L13.8173 6.85491L13.4535 8.31013L16.9445 9.18286L17.3083 7.72764ZM13.4535 6.85491L9.96263 7.72764L10.3264 9.18286L13.8173 8.31013L13.4535 6.85491Z" fill="#3B2E8C"/>
</g>
</svg>
