<svg width="20" height="20" viewBox="0 0 20 20" fill="none" xmlns="http://www.w3.org/2000/svg">
<g id="Vector">
<g id="Group_2634">
<g id="Vector_2">
<path id="Vector-20" fill-rule="evenodd" clip-rule="evenodd" d="M8.32437 4.66853C8.97236 3.69468 8.80949 2.39316 7.94152 1.60901C7.07354 0.824862 5.76222 0.794561 4.85896 1.53778C3.95569 2.281 3.73288 3.57361 4.33519 4.57635C4.9375 5.57909 6.18329 5.98957 7.2637 5.54127C7.69546 5.36111 8.06444 5.05751 8.32437 4.66853Z" stroke="#5F45BF" stroke-width="1.5" stroke-linecap="round" stroke-linejoin="round"/>
<path id="Vector-21" fill-rule="evenodd" clip-rule="evenodd" d="M8.32437 17.9469C8.97236 16.973 8.80949 15.6715 7.94152 14.8873C7.07354 14.1032 5.76222 14.0729 4.85896 14.8161C3.95569 15.5593 3.73288 16.8519 4.33519 17.8547C4.9375 18.8574 6.18329 19.2679 7.2637 18.8196C7.69546 18.6394 8.06444 18.3358 8.32437 17.9469V17.9469Z" stroke="#5F45BF" stroke-width="1.5" stroke-linecap="round" stroke-linejoin="round"/>
<path id="Vector-22" fill-rule="evenodd" clip-rule="evenodd" d="M11.6981 11.3067C11.0501 10.3329 11.213 9.03135 12.081 8.2472C12.949 7.46305 14.2603 7.43274 15.1635 8.17597C16.0668 8.91919 16.2896 10.2118 15.6873 11.2145C15.085 12.2173 13.8392 12.6278 12.7588 12.1794C12.327 11.9993 11.9581 11.6957 11.6981 11.3067V11.3067Z" stroke="#5F45BF" stroke-width="1.5" stroke-linecap="round" stroke-linejoin="round"/>
<path id="Vector-23" d="M8.7248 2.60014C8.31058 2.60014 7.9748 2.93593 7.9748 3.35014C7.9748 3.76435 8.31058 4.10014 8.7248 4.10014V2.60014ZM19.0226 4.10014C19.4368 4.10014 19.7726 3.76435 19.7726 3.35014C19.7726 2.93593 19.4368 2.60014 19.0226 2.60014V4.10014ZM3.99548 4.1001C4.4097 4.1001 4.74548 3.76431 4.74548 3.3501C4.74548 2.93588 4.4097 2.6001 3.99548 2.6001V4.1001ZM1.00012 2.6001C0.585909 2.6001 0.250122 2.93588 0.250122 3.3501C0.250122 3.76431 0.585909 4.1001 1.00012 4.1001V2.6001ZM8.7248 15.8793C8.31058 15.8793 7.9748 16.2151 7.9748 16.6293C7.9748 17.0435 8.31058 17.3793 8.7248 17.3793V15.8793ZM19.0226 17.3793C19.4368 17.3793 19.7726 17.0435 19.7726 16.6293C19.7726 16.2151 19.4368 15.8793 19.0226 15.8793V17.3793ZM3.99536 17.3793C4.40957 17.3793 4.74536 17.0435 4.74536 16.6293C4.74536 16.2151 4.40957 15.8793 3.99536 15.8793V17.3793ZM1 15.8793C0.585786 15.8793 0.25 16.2151 0.25 16.6293C0.25 17.0435 0.585786 17.3793 1 17.3793V15.8793ZM11.2979 10.7397C11.7121 10.7397 12.0479 10.404 12.0479 9.98975C12.0479 9.57553 11.7121 9.23975 11.2979 9.23975V10.7397ZM1.00012 9.23975C0.585909 9.23975 0.250122 9.57553 0.250122 9.98975C0.250122 10.404 0.585909 10.7397 1.00012 10.7397V9.23975ZM16.0277 9.23995C15.6135 9.23995 15.2777 9.57574 15.2777 9.98995C15.2777 10.4042 15.6135 10.7399 16.0277 10.7399V9.23995ZM19.0231 10.7399C19.4373 10.7399 19.7731 10.4042 19.7731 9.98995C19.7731 9.57574 19.4373 9.23995 19.0231 9.23995V10.7399ZM8.7248 4.10014H19.0226V2.60014H8.7248V4.10014ZM3.99548 2.6001H1.00012V4.1001H3.99548V2.6001ZM8.7248 17.3793H19.0226V15.8793H8.7248V17.3793ZM3.99536 15.8793H1V17.3793H3.99536V15.8793ZM11.2979 9.23975H1.00012V10.7397H11.2979V9.23975ZM16.0277 10.7399H19.0231V9.23995H16.0277V10.7399Z" fill="#5F45BF"/>
</g>
</g>
</g>
</svg>
