<svg width="18" height="18" viewBox="0 0 18 18" fill="none" xmlns="http://www.w3.org/2000/svg">
<path fill-rule="evenodd" clip-rule="evenodd" d="M8.20001 17C7.78106 17 7.42367 16.6968 7.35544 16.2834C7.29264 15.949 7.05186 15.6758 6.72801 15.5714C6.46412 15.4808 6.2061 15.374 5.95544 15.2514C5.65717 15.0989 5.29936 15.1217 5.02287 15.3109C4.68827 15.5515 4.22863 15.5142 3.93715 15.2229L2.80344 14.0891C2.49833 13.784 2.45868 13.303 2.70972 12.952C2.90333 12.6691 2.93122 12.3044 2.78287 11.9954C2.68512 11.7808 2.5989 11.561 2.52458 11.3371C2.41814 10.9844 2.12433 10.7201 1.7623 10.6514C1.3257 10.5817 1.0034 10.2067 1.00001 9.76457V8.34629C0.997687 7.83666 1.36577 7.40078 1.86858 7.31771C2.25003 7.24516 2.56854 6.98389 2.7143 6.624C2.75772 6.52267 2.80344 6.4221 2.85144 6.32229C3.04529 5.94908 3.01852 5.49956 2.78172 5.152C2.4856 4.74043 2.53107 4.17496 2.88915 3.816L3.72229 2.98286C4.13321 2.5718 4.78128 2.5186 5.25372 2.85714L5.28001 2.87543C5.63279 3.11287 6.08171 3.15587 6.47315 2.98971C6.89192 2.83899 7.20055 2.47913 7.28572 2.04229L7.29715 2.00343C7.39126 1.42511 7.89065 1.00024 8.47658 1H9.48229C10.084 0.999725 10.5976 1.43494 10.696 2.02857L10.7143 2.10857C10.7951 2.52706 11.0877 2.87339 11.4869 3.02286C11.8715 3.18796 12.3139 3.14485 12.6594 2.90857L12.7166 2.86743C13.2013 2.5181 13.8678 2.57183 14.2903 2.99429L15.0571 3.76229C15.4414 4.14875 15.4898 4.75649 15.1714 5.19886C14.922 5.56859 14.8902 6.04371 15.088 6.44343L15.1371 6.55771C15.2974 6.94795 15.6439 7.23084 16.0583 7.30971C16.5999 7.398 16.9982 7.86498 17 8.41371V9.68572C16.9998 10.1696 16.6499 10.5824 16.1726 10.6617C15.78 10.737 15.4602 11.0212 15.3394 11.4023C15.2861 11.5547 15.2267 11.707 15.1611 11.8594C15.0087 12.1942 15.0425 12.5844 15.2503 12.888C15.5245 13.2695 15.4819 13.7935 15.1497 14.1257L14.0857 15.1909C13.7814 15.4951 13.3016 15.5343 12.952 15.2834C12.6602 15.0841 12.2821 15.0621 11.9691 15.2263C11.7462 15.3368 11.5172 15.4348 11.2834 15.52C10.9566 15.6328 10.7156 15.9126 10.6526 16.2526C10.5859 16.6803 10.2192 16.9968 9.78629 17H8.20001Z" stroke="#5F45BF" stroke-width="1.5" stroke-linecap="round" stroke-linejoin="round"/>
<path fill-rule="evenodd" clip-rule="evenodd" d="M11.6668 9.00016C11.6668 10.4729 10.4729 11.6668 9.00016 11.6668C7.5274 11.6668 6.3335 10.4729 6.3335 9.00016C6.3335 7.5274 7.5274 6.3335 9.00016 6.3335C10.4729 6.3335 11.6668 7.5274 11.6668 9.00016Z" stroke="#5F45BF" stroke-width="1.5" stroke-linecap="round" stroke-linejoin="round"/>
</svg>
