<svg width="19" height="19" viewBox="0 0 19 19" fill="none" xmlns="http://www.w3.org/2000/svg">
<g clip-path="url(#clip0_1709_2808)">
<path d="M18.674 9.71051C18.674 8.93164 18.6121 8.36326 18.4782 7.77385H9.77246V11.2893H14.8825C14.7796 12.1629 14.2232 13.4786 12.9869 14.3627L12.9695 14.4804L15.7221 16.6589L15.9128 16.6783C17.6643 15.0258 18.674 12.5944 18.674 9.71051Z" fill="#4285F4"/>
<path d="M9.77238 18.9729C12.2759 18.9729 14.3776 18.1308 15.9128 16.6783L12.9868 14.3627C12.2038 14.9205 11.1529 15.31 9.77238 15.31C7.32036 15.31 5.23924 13.6575 4.49738 11.3735L4.38864 11.383L1.52644 13.6459L1.48901 13.7522C3.01379 16.8467 6.14581 18.9729 9.77238 18.9729Z" fill="#34A853"/>
<path d="M4.4974 11.3735C4.30165 10.7841 4.18836 10.1525 4.18836 9.50001C4.18836 8.84739 4.30165 8.21589 4.4871 7.62648L4.48191 7.50095L1.58385 5.20163L1.48903 5.24771C0.860597 6.53182 0.5 7.97383 0.5 9.50001C0.5 11.0262 0.860597 12.4681 1.48903 13.7522L4.4974 11.3735Z" fill="#FBBC05"/>
<path d="M9.77238 3.68996C11.5135 3.68996 12.688 4.45831 13.3577 5.1004L15.9746 2.49009C14.3674 0.96391 12.2759 0.0271454 9.77238 0.0271454C6.14581 0.0271454 3.01379 2.15326 1.48901 5.2477L4.48708 7.62647C5.23924 5.34247 7.32036 3.68996 9.77238 3.68996Z" fill="#EB4335"/>
</g>
<defs>
<clipPath id="clip0_1709_2808">
<rect x="0.5" width="18.1739" height="19" rx="9.08696" fill="white"/>
</clipPath>
</defs>
</svg>
