<svg width="24" height="24" viewBox="0 0 24 24" fill="none" xmlns="http://www.w3.org/2000/svg">
<g id="vuesax/outline/headphone">
<g id="headphone">
<path id="Vector" opacity="0.7" d="M1.74971 12.22H1.74978L1.74963 12.2114C1.70188 9.42272 2.73223 6.8029 4.65628 4.84051C6.58202 2.8864 9.16344 1.8 11.9497 1.8C17.6333 1.8 22.2497 6.42584 22.2497 12.1V18.26C22.2497 20.3639 20.5336 22.08 18.4297 22.08C16.3659 22.08 14.6097 20.3239 14.6097 18.26V15.45C14.6097 14.2761 15.5259 13.36 16.6997 13.36C17.8736 13.36 18.7897 14.2761 18.7897 15.45V18.48C18.7897 18.6139 18.6736 18.73 18.5397 18.73C18.4059 18.73 18.2897 18.6139 18.2897 18.48V15.45C18.2897 14.4528 17.4729 13.86 16.6997 13.86C15.7025 13.86 15.1097 14.6768 15.1097 15.45V18.26C15.1097 20.0661 16.6236 21.58 18.4297 21.58C20.2359 21.58 21.7497 20.0661 21.7497 18.26V12.1C21.7497 6.69386 17.3559 2.3 11.9497 2.3C9.30737 2.3 6.84837 3.32262 5.01315 5.18948C3.17798 7.05629 2.19843 9.55508 2.24971 12.2049V18.38C2.24971 20.1861 3.76357 21.7 5.56971 21.7C7.37585 21.7 8.88971 20.1861 8.88971 18.38V15.57C8.88971 14.5728 8.07292 13.98 7.29971 13.98C6.30251 13.98 5.70971 14.7968 5.70971 15.57V18.49C5.70971 18.6239 5.59357 18.74 5.45971 18.74C5.32585 18.74 5.20971 18.6239 5.20971 18.49V15.57C5.20971 14.3961 6.12585 13.48 7.29971 13.48C8.47357 13.48 9.38971 14.3961 9.38971 15.57V18.38C9.38971 20.4439 7.63357 22.2 5.56971 22.2C3.50585 22.2 1.74971 20.4439 1.74971 18.38V12.22Z" stroke="#191F6D"/>
</g>
</g>
</svg>
