<svg width="12" height="13" viewBox="0 0 12 13" fill="none" xmlns="http://www.w3.org/2000/svg">
<path d="M11 11.875H1C0.795 11.875 0.625 11.705 0.625 11.5C0.625 11.295 0.795 11.125 1 11.125H11C11.205 11.125 11.375 11.295 11.375 11.5C11.375 11.705 11.205 11.875 11 11.875Z" fill="#191F6D"/>
<path d="M10.5 11.875H1.5C1.295 11.875 1.125 11.705 1.125 11.5V3.5C1.125 1.99 1.99 1.125 3.5 1.125H8.5C10.01 1.125 10.875 1.99 10.875 3.5V11.5C10.875 11.705 10.705 11.875 10.5 11.875ZM1.875 11.125H10.125V3.5C10.125 2.39 9.61 1.875 8.5 1.875H3.5C2.39 1.875 1.875 2.39 1.875 3.5V11.125Z" fill="#191F6D"/>
<path d="M7.5 11.875H4.5C4.295 11.875 4.125 11.705 4.125 11.5V8.47C4.125 8.005 4.505 7.625 4.97 7.625H7.035C7.5 7.625 7.88 8.005 7.88 8.47V11.5C7.875 11.705 7.705 11.875 7.5 11.875ZM4.875 11.125H7.125V8.47C7.125 8.42 7.085 8.375 7.03 8.375H4.965C4.915 8.375 4.87 8.415 4.87 8.47V11.125H4.875Z" fill="#191F6D"/>
<path d="M6 6.375C5.795 6.375 5.625 6.205 5.625 6V3.5C5.625 3.295 5.795 3.125 6 3.125C6.205 3.125 6.375 3.295 6.375 3.5V6C6.375 6.205 6.205 6.375 6 6.375Z" fill="#191F6D"/>
<path d="M7.25 5.125H4.75C4.545 5.125 4.375 4.955 4.375 4.75C4.375 4.545 4.545 4.375 4.75 4.375H7.25C7.455 4.375 7.625 4.545 7.625 4.75C7.625 4.955 7.455 5.125 7.25 5.125Z" fill="#191F6D"/>
</svg>
