<svg width="17" height="17" viewBox="0 0 17 17" fill="none" xmlns="http://www.w3.org/2000/svg">
<path d="M8.50008 16.1146C4.29966 16.1146 0.885498 12.7004 0.885498 8.50001C0.885498 4.29959 4.29966 0.885422 8.50008 0.885422C12.7005 0.885422 16.1147 4.29959 16.1147 8.50001C16.1147 12.7004 12.7005 16.1146 8.50008 16.1146ZM8.50008 1.94792C4.88758 1.94792 1.948 4.88751 1.948 8.50001C1.948 12.1125 4.88758 15.0521 8.50008 15.0521C12.1126 15.0521 15.0522 12.1125 15.0522 8.50001C15.0522 4.88751 12.1126 1.94792 8.50008 1.94792Z" fill="#191F6D"/>
<path d="M8.5 12.0417C8.20958 12.0417 7.96875 11.8008 7.96875 11.5104V7.96875C7.96875 7.67833 8.20958 7.4375 8.5 7.4375C8.79042 7.4375 9.03125 7.67833 9.03125 7.96875V11.5104C9.03125 11.8008 8.79042 12.0417 8.5 12.0417Z" fill="#191F6D"/>
<path d="M8.49984 5.66313C8.40775 5.66313 8.31567 5.64188 8.23067 5.60646C8.14567 5.57104 8.06775 5.52146 7.99692 5.45771C7.93317 5.38687 7.88359 5.31604 7.84817 5.22396C7.81275 5.13896 7.7915 5.04688 7.7915 4.95479C7.7915 4.86271 7.81275 4.77062 7.84817 4.68562C7.88359 4.60062 7.93317 4.52271 7.99692 4.45188C8.06775 4.38813 8.14567 4.33854 8.23067 4.30313C8.40067 4.23229 8.599 4.23229 8.769 4.30313C8.854 4.33854 8.93192 4.38813 9.00275 4.45188C9.0665 4.52271 9.11609 4.60062 9.1515 4.68562C9.18692 4.77062 9.20817 4.86271 9.20817 4.95479C9.20817 5.04688 9.18692 5.13896 9.1515 5.22396C9.11609 5.31604 9.0665 5.38687 9.00275 5.45771C8.93192 5.52146 8.854 5.57104 8.769 5.60646C8.684 5.64188 8.59192 5.66313 8.49984 5.66313Z" fill="#191F6D"/>
</svg>
