<svg width="20" height="20" viewBox="0 0 20 20" fill="none" xmlns="http://www.w3.org/2000/svg">
<g id="Instagram logo" clip-path="url(#clip0_1709_2476)">
<g id="Group">
<path id="Vector" d="M10.0087 4.88672C9.83279 4.88672 9.65883 4.89569 9.48744 4.91325C9.31605 4.9308 9.14703 4.95682 8.98089 4.99097C8.81475 5.02512 8.65156 5.06741 8.49163 5.11732L8.02224 5.28967L7.57534 5.50547L7.15361 5.76208L6.75957 6.05681L6.39596 6.3871L6.06535 6.75039L5.77029 7.14399L5.51336 7.56532L5.29744 8.01171C5.23254 8.1644 5.17481 8.32093 5.12483 8.48072C5.07485 8.64052 5.03257 8.80365 4.99835 8.96959C4.96414 9.13554 4.93812 9.30437 4.9205 9.47564C4.90289 9.6469 4.89404 9.82066 4.89404 9.99635C4.89404 10.172 4.90301 10.3458 4.9205 10.5171C4.9379 10.687 4.96388 10.8559 4.99835 11.0232C5.03257 11.1898 5.07485 11.3522 5.12483 11.512C5.17481 11.6718 5.23247 11.8283 5.29744 11.9811L5.51336 12.4274L5.77029 12.8487L6.06535 13.2424L6.39596 13.6057L6.75957 13.936L7.15361 14.2307L7.57534 14.4873L8.02224 14.7031L8.49163 14.8754L8.98089 15.0018C9.14832 15.0362 9.31739 15.0622 9.48744 15.0796C9.66062 15.0972 9.83459 15.1061 10.0087 15.106C10.1845 15.106 10.3585 15.0971 10.5298 15.0796C10.6999 15.0622 10.869 15.0362 11.0364 15.0018L11.5257 14.8754L11.9951 14.7031L12.4419 14.4873L12.8637 14.2307L13.2578 13.936L13.6214 13.6057L13.9521 13.2424L14.2471 12.8487L14.504 12.4274L14.72 11.9811L14.8926 11.512C14.9425 11.3522 14.9848 11.1891 15.019 11.0232L15.0969 10.517C15.1145 10.3457 15.1234 10.172 15.1234 9.99629C15.1234 9.8206 15.1145 9.64684 15.0969 9.47557C15.0795 9.30569 15.0535 9.13679 15.019 8.96953C14.9848 8.80294 14.9425 8.64052 14.8926 8.48066L14.72 8.01165L14.504 7.56526L14.2471 7.14392L13.9521 6.75033L13.6214 6.38704L13.2578 6.05674L12.8637 5.76201L12.4419 5.5054L11.9951 5.28961L11.5257 5.11725L11.0364 4.9909L10.5298 4.91318C10.3567 4.8955 10.1827 4.88665 10.0087 4.88666V4.88672ZM10.0087 6.65037C10.125 6.65037 10.2397 6.65614 10.3527 6.66754L10.6859 6.71797L11.0077 6.79998L11.3159 6.91192L11.6089 7.05223L11.8844 7.21914L12.142 7.41117L12.3795 7.62658L12.5951 7.86377L12.7873 8.12109L12.9544 8.39698L13.0947 8.68979C13.1369 8.79 13.1743 8.89271 13.2068 8.99772C13.2394 9.10274 13.2667 9.21006 13.2888 9.31936C13.3109 9.42867 13.3273 9.5399 13.3393 9.65286L13.3564 9.99667C13.3564 10.1128 13.3507 10.2275 13.3393 10.3405C13.3279 10.4536 13.3111 10.5648 13.2888 10.674C13.2666 10.7833 13.2392 10.8906 13.2068 10.9957L13.0947 11.3036L12.9544 11.5964L12.7873 11.8723L12.5951 12.1296L12.3795 12.3668L12.142 12.5822L11.8844 12.7743L11.6089 12.9412L11.3159 13.0815L11.0077 13.1934L10.6859 13.2754L10.3527 13.3258C10.2384 13.3373 10.1235 13.343 10.0086 13.343C9.89366 13.343 9.77878 13.3373 9.66441 13.3258L9.33123 13.2754C9.22186 13.2533 9.11448 13.2258 9.00934 13.1934L8.70115 13.0815L8.40815 12.9412L8.13264 12.7743L7.87507 12.5822L7.63761 12.3668L7.42201 12.1296L7.22979 11.8723L7.06269 11.5964L6.92238 11.3036L6.81025 10.9957L6.72824 10.674L6.67781 10.3405C6.66635 10.2263 6.66062 10.1115 6.66064 9.99667C6.66062 9.88185 6.66635 9.7671 6.67781 9.65286C6.68915 9.5399 6.706 9.42861 6.72824 9.31936C6.75025 9.21088 6.77764 9.10355 6.81031 8.99779L6.92244 8.68985L7.06276 8.39705L7.22986 8.12115L7.42207 7.86384L7.63768 7.62664L7.87513 7.41123L8.1327 7.21921L8.40821 7.0523L8.70121 6.91198C8.80206 6.86963 8.90494 6.83227 9.00946 6.80005L9.33136 6.71803C9.44073 6.69586 9.55209 6.67895 9.66454 6.66761C9.77891 6.65615 9.89379 6.65042 10.0087 6.65044L10.0087 6.65037Z" fill="url(#paint0_radial_1709_2476)"/>
<path id="Vector_2" d="M15.3308 3.43318C15.2902 3.43319 15.2496 3.43524 15.2092 3.43933C15.1688 3.44342 15.1286 3.44953 15.0888 3.45766C15.049 3.46577 15.0096 3.47589 14.9708 3.48796C14.9321 3.50005 14.8939 3.51407 14.8565 3.52999C14.8191 3.54593 14.7825 3.56375 14.7469 3.58337C14.7112 3.60295 14.6766 3.62431 14.6431 3.64738C14.6095 3.67046 14.5772 3.69523 14.5461 3.72157C14.5151 3.74789 14.4853 3.77575 14.4571 3.80506C14.4288 3.83438 14.4019 3.86511 14.3767 3.89713C14.3515 3.92915 14.3278 3.96243 14.3059 3.99682C14.284 4.0312 14.2638 4.06665 14.2454 4.10306C14.2269 4.13949 14.2103 4.17682 14.1956 4.21493C14.1809 4.25302 14.1681 4.29183 14.1572 4.33122C14.1463 4.3706 14.1374 4.4105 14.1305 4.45078C14.1236 4.49104 14.1187 4.53163 14.1159 4.57239C14.1138 4.60126 14.1128 4.63019 14.1128 4.65914C14.1128 4.70003 14.1148 4.74089 14.1189 4.78158C14.1229 4.82225 14.129 4.86269 14.1371 4.90274C14.1451 4.9428 14.1552 4.98242 14.1672 5.02147C14.1792 5.06052 14.1931 5.09895 14.209 5.1366C14.2248 5.17427 14.2425 5.21112 14.262 5.247C14.2814 5.28288 14.3027 5.31776 14.3256 5.3515C14.3485 5.38523 14.3731 5.41777 14.3993 5.44902C14.4254 5.4803 14.4531 5.51023 14.4822 5.53872C14.5114 5.56719 14.5419 5.59418 14.5737 5.61958C14.6055 5.645 14.6386 5.6688 14.6728 5.69089C14.707 5.71299 14.7422 5.73334 14.7784 5.75189C14.8146 5.77045 14.8517 5.78717 14.8895 5.80199C14.9274 5.8168 14.9659 5.8297 15.0051 5.84063C15.0442 5.85155 15.0838 5.86048 15.1239 5.86741C15.1639 5.87437 15.2042 5.87931 15.2447 5.88221C15.2734 5.88426 15.3021 5.88529 15.3309 5.88529C15.3715 5.8853 15.4121 5.88327 15.4525 5.8792C15.4929 5.87512 15.5331 5.869 15.5729 5.86088C15.6127 5.85276 15.652 5.84265 15.6908 5.83057C15.7296 5.81849 15.7678 5.80446 15.8052 5.78854C15.8426 5.77262 15.8792 5.75483 15.9148 5.73523C15.9505 5.71563 15.9851 5.69425 16.0186 5.67116C16.0521 5.64809 16.0845 5.62335 16.1156 5.59703C16.1466 5.57069 16.1763 5.5428 16.2046 5.51348C16.2329 5.48415 16.2597 5.45343 16.285 5.42141C16.3102 5.38938 16.3338 5.35611 16.3558 5.32171C16.3777 5.28732 16.3979 5.25184 16.4163 5.21541C16.4348 5.17898 16.4514 5.14165 16.4661 5.10354C16.4808 5.06545 16.4936 5.02664 16.5045 4.98725C16.5153 4.94787 16.5242 4.90797 16.5311 4.86769C16.538 4.82743 16.5429 4.78684 16.5458 4.74608C16.5478 4.71721 16.5489 4.68828 16.5489 4.65933C16.5489 4.61846 16.5468 4.57762 16.5428 4.53695C16.5387 4.49629 16.5327 4.45585 16.5246 4.41579C16.5165 4.37574 16.5065 4.33611 16.4945 4.29707C16.4825 4.25801 16.4685 4.21958 16.4527 4.18193C16.4369 4.14426 16.4192 4.10742 16.3997 4.07153C16.3803 4.03565 16.359 4.00078 16.3361 3.96703C16.3131 3.93329 16.2885 3.90072 16.2623 3.86945C16.2362 3.83818 16.2085 3.80824 16.1794 3.77975C16.1503 3.75128 16.1198 3.72429 16.0879 3.69889C16.0561 3.67349 16.0231 3.64971 15.9889 3.62764C15.9547 3.60555 15.9194 3.58519 15.8832 3.56664C15.8471 3.54809 15.81 3.53137 15.7721 3.51654C15.7343 3.50173 15.6957 3.48884 15.6566 3.4779C15.6175 3.46697 15.5778 3.45801 15.5378 3.45106C15.4978 3.44412 15.4575 3.4392 15.417 3.43632C15.3883 3.43427 15.3596 3.43325 15.3308 3.43325V3.43318Z" fill="url(#paint1_radial_1709_2476)"/>
<path id="Vector_3" d="M9.03873 0.000201589C8.48245 -0.000695422 7.98602 0.00161086 7.54008 0.00788994L6.34449 0.039926C5.9903 0.0553034 5.67737 0.0753565 5.39648 0.101306C5.25603 0.114248 5.12353 0.128729 4.99795 0.144683C4.87845 0.159745 4.75927 0.177284 4.64049 0.197287C4.52741 0.216509 4.42008 0.237267 4.31718 0.25982C4.21428 0.282374 4.116 0.306722 4.02117 0.332863C3.92847 0.358426 3.83649 0.386544 3.74534 0.417183C3.65602 0.447297 3.56889 0.479205 3.48284 0.513291C3.31074 0.581464 3.14287 0.657965 2.97 0.743693C2.83699 0.809688 2.7141 0.876515 2.59736 0.947251C2.48062 1.01799 2.37003 1.0927 2.26175 1.17407C2.15024 1.25827 2.04275 1.34769 1.93966 1.44202C1.83189 1.54018 1.72181 1.64814 1.60744 1.76878C1.46373 1.91955 1.33885 2.06012 1.22801 2.19807C1.17259 2.26701 1.12069 2.33518 1.0718 2.40374C1.02345 2.4713 0.977234 2.54036 0.933212 2.61082C0.889642 2.68066 0.84838 2.75178 0.808912 2.82495C0.768828 2.89938 0.730944 2.97498 0.695311 3.05164C0.622397 3.20823 0.554353 3.37687 0.486436 3.56511C0.436051 3.70428 0.390933 3.84529 0.35118 3.98786C0.310622 4.13356 0.274549 4.28599 0.242385 4.45085C0.210221 4.6157 0.182157 4.79299 0.157489 4.98905C0.130907 5.20397 0.109671 5.41951 0.0938016 5.63548C0.0758614 5.87293 0.0609967 6.13422 0.048823 6.42504L0.0199905 7.39202L0.00448503 8.57075L0 9.99553L0.0131348 12.0674L0.054141 13.6372L0.0857285 14.2504L0.125197 14.7585C0.137849 14.8954 0.153679 15.032 0.172675 15.1683C0.189974 15.2892 0.208555 15.3951 0.228545 15.4867C0.269108 15.673 0.317072 15.8576 0.372323 16.04C0.425226 16.2147 0.485725 16.387 0.553648 16.5565C0.620411 16.7224 0.693453 16.8825 0.772903 17.0365C0.852352 17.1905 0.938209 17.3385 1.03047 17.4807C1.12274 17.6229 1.22141 17.7592 1.32674 17.8897C1.43196 18.0203 1.54387 18.1452 1.66203 18.2642C1.78037 18.3833 1.90519 18.4967 2.03673 18.6045C2.16982 18.7135 2.30817 18.8159 2.45127 18.9114C2.5841 19.0002 2.71551 19.0815 2.84788 19.1562C2.98025 19.2308 3.11378 19.2985 3.25102 19.3601C3.38827 19.4217 3.52897 19.4771 3.67595 19.527C3.82293 19.5768 3.97606 19.6212 4.13791 19.6605C4.29976 19.6998 4.47109 19.7344 4.65241 19.7645C4.83373 19.7946 5.02755 19.8204 5.23463 19.8427C5.44172 19.8649 5.66264 19.8833 5.90002 19.8986C6.13741 19.914 6.39114 19.9263 6.66376 19.9362C7.08491 19.9514 7.72243 19.9604 8.45759 19.9637L10.8376 19.9589L13.0912 19.9274L13.9481 19.9033L14.5064 19.8746C14.6262 19.8648 14.7435 19.8533 14.8566 19.8398C14.9698 19.8262 15.0814 19.8108 15.19 19.7933C15.2987 19.7757 15.4049 19.7561 15.5093 19.7343C15.6125 19.7128 15.7151 19.6888 15.8171 19.6624C15.9181 19.6367 16.0177 19.6076 16.1162 19.5766C16.2147 19.5457 16.3123 19.5122 16.4092 19.4764C16.5067 19.4402 16.6033 19.4018 16.6989 19.361C16.7952 19.32 16.8914 19.2761 16.9879 19.2296C17.1361 19.1582 17.2554 19.0987 17.3602 19.0406C17.4587 18.9865 17.5536 18.9261 17.6443 18.8597C17.7337 18.7938 17.8226 18.7188 17.9252 18.6244C18.0277 18.5299 18.1438 18.4161 18.2877 18.2722C18.4141 18.1459 18.5207 18.0361 18.6127 17.9362C18.7046 17.8363 18.7821 17.7464 18.85 17.6598C18.9147 17.5776 18.975 17.492 19.0307 17.4034C19.0849 17.3169 19.1349 17.227 19.1858 17.1274C19.2625 16.9775 19.3306 16.8386 19.3917 16.7047C19.451 16.5755 19.5052 16.4441 19.5541 16.3107C19.6022 16.1784 19.644 16.0438 19.6791 15.9074C19.7152 15.7671 19.7463 15.6189 19.7733 15.4565C19.8002 15.294 19.8229 15.1171 19.8426 14.9197C19.8624 14.7222 19.8792 14.504 19.8939 14.2588L19.933 13.4356L19.9666 12.4119L19.9905 11.2715L19.9997 10.0789L19.9783 7.73679L19.9497 6.68773L19.9106 5.78701L19.8619 5.08478C19.8442 4.88936 19.8252 4.73546 19.8049 4.6314C19.7825 4.51643 19.7575 4.40199 19.7298 4.28817C19.7029 4.17741 19.6733 4.06733 19.6411 3.958C19.6096 3.85149 19.5755 3.74581 19.5387 3.64104C19.5023 3.53756 19.4637 3.43626 19.4234 3.33714C19.383 3.23802 19.3393 3.14121 19.2938 3.04645C19.2483 2.95169 19.2006 2.85923 19.1506 2.76889C19.1006 2.67855 19.0484 2.59045 18.9939 2.50453C18.9394 2.41861 18.8826 2.33486 18.8234 2.25336C18.7646 2.17212 18.7033 2.09274 18.6396 2.01534C18.5761 1.93835 18.5103 1.86339 18.4421 1.79057C18.374 1.71784 18.3036 1.64728 18.2311 1.579C18.1585 1.5107 18.0837 1.44458 18.0066 1.38064C17.9292 1.31648 17.8498 1.25475 17.7685 1.19553C17.6864 1.13571 17.6024 1.0784 17.5168 1.02369C17.43 0.968201 17.3416 0.915296 17.2517 0.865047C17.1602 0.813956 17.0673 0.765497 16.973 0.719731C16.8165 0.643677 16.6718 0.57621 16.5298 0.516367C16.3902 0.456976 16.2478 0.404227 16.1032 0.3583C15.9578 0.312489 15.8064 0.273213 15.6398 0.239319C15.4732 0.205424 15.2915 0.177169 15.0859 0.153141C14.8803 0.129114 14.6507 0.109701 14.3882 0.0935548C14.1256 0.0774086 13.8303 0.0647213 13.4931 0.0544698L12.3471 0.0288413L10.8967 0.0117341L9.03937 0.000328685L9.03873 0.000201589ZM10.0033 1.76231L12.6817 1.77756L13.6922 1.79704C13.9704 1.80486 14.1828 1.81402 14.3073 1.82459C14.4694 1.83824 14.6238 1.85535 14.7715 1.87585C14.9132 1.89542 15.0542 1.91976 15.1943 1.94883C15.3289 1.97702 15.4572 2.00906 15.5801 2.04519C15.7029 2.08133 15.8202 2.12182 15.9328 2.16661C16.0453 2.2114 16.153 2.26067 16.2566 2.31462C16.3594 2.36816 16.4592 2.42708 16.5558 2.49113C16.6519 2.55489 16.7446 2.62357 16.8345 2.69758C16.9245 2.77158 17.0117 2.8509 17.0968 2.93573C17.1867 3.02524 17.2696 3.11642 17.3461 3.21047C17.4222 3.30395 17.4927 3.40192 17.5571 3.50386C17.6222 3.60725 17.6809 3.71456 17.7327 3.82518C17.7858 3.93795 17.8335 4.05712 17.8763 4.18379C17.9191 4.31046 17.9572 4.44508 17.991 4.58892C18.0263 4.74142 18.0559 4.8952 18.0798 5.04992C18.1054 5.21395 18.1273 5.38886 18.1459 5.57615C18.1645 5.76343 18.1798 5.96314 18.1925 6.17682C18.2027 6.34822 18.2115 6.57439 18.219 6.84151L18.2378 7.75229L18.2521 9.98329L18.2358 12.2122L18.2162 13.1203L18.1892 13.7808C18.1705 14.0901 18.1508 14.3501 18.1272 14.5764C18.1153 14.6896 18.1025 14.7943 18.0883 14.8925C18.075 14.9853 18.0592 15.0777 18.0409 15.1697C18.0243 15.2536 18.0049 15.3369 17.983 15.4196C17.9619 15.4984 17.9382 15.5766 17.9119 15.6539C17.8854 15.7315 17.8566 15.8084 17.8255 15.8843C17.7926 15.9644 17.7579 16.0438 17.7213 16.1224C17.6889 16.1926 17.6547 16.2608 17.6186 16.3273C17.5828 16.393 17.5449 16.4576 17.5048 16.5208C17.4651 16.5834 17.4234 16.6442 17.3798 16.7031C17.3365 16.7617 17.2911 16.8188 17.2436 16.8743C17.1963 16.9294 17.147 16.9829 17.0958 17.0344C17.0445 17.086 16.9914 17.1358 16.9363 17.1838C16.8812 17.2319 16.824 17.278 16.7649 17.3225C16.7057 17.367 16.6445 17.4096 16.5813 17.4505C16.5181 17.4914 16.4528 17.5306 16.3855 17.568C16.3182 17.6054 16.2487 17.6412 16.1773 17.6752C16.1046 17.7097 16.0309 17.7421 15.9563 17.7722C15.8792 17.8033 15.8012 17.8323 15.7224 17.859C15.5622 17.9136 15.3933 17.9616 15.2154 18.0029C15.03 18.0457 14.843 18.0807 14.6547 18.1078C14.5823 18.1184 14.4159 18.1283 14.1775 18.1376L13.2692 18.1628L10.6942 18.1963L7.9989 18.2005L6.94043 18.1892L6.25313 18.1678L5.74632 18.1322C5.58895 18.1189 5.44261 18.1042 5.3055 18.0875C5.16838 18.0707 5.04069 18.0521 4.92055 18.0311C4.80671 18.0114 4.69356 17.9879 4.58129 17.9606C4.47893 17.9357 4.37761 17.9067 4.27759 17.8736C4.18116 17.8415 4.08896 17.8063 3.99926 17.7675C3.90956 17.7288 3.82242 17.6863 3.73611 17.6399C3.64981 17.5935 3.5644 17.5432 3.47803 17.4883C3.41287 17.4469 3.34989 17.405 3.28927 17.3606C3.22866 17.3162 3.1701 17.2719 3.11372 17.2255C3.05733 17.1791 3.00319 17.1313 2.95097 17.0821C2.8991 17.0331 2.84901 16.9823 2.80079 16.9297C2.75273 16.8773 2.70679 16.8234 2.66271 16.7675C2.61846 16.7114 2.57629 16.6537 2.5363 16.5945C2.49571 16.5344 2.45731 16.4729 2.42116 16.41C2.38464 16.3466 2.34991 16.2809 2.31691 16.2133C2.28336 16.1443 2.25206 16.0743 2.22305 16.0033C2.19358 15.931 2.16564 15.8565 2.13937 15.7794C2.08683 15.6254 2.0407 15.4613 2.00059 15.2864C1.96048 15.1115 1.92627 14.9257 1.89731 14.7277C1.86835 14.5297 1.84502 14.3198 1.82644 14.0967C1.81273 13.9324 1.80184 13.6764 1.79351 13.3535L1.77608 12.205L1.78249 9.27721L1.83291 6.47956L1.87136 5.49388L1.89314 5.16807C1.9007 5.08106 1.90852 5.0166 1.91653 4.9779C1.94293 4.85059 1.96952 4.73212 1.997 4.62122C2.02268 4.51658 2.05125 4.41268 2.08267 4.30963C2.11252 4.21237 2.14398 4.12126 2.17762 4.03495C2.21006 3.95135 2.24621 3.86923 2.28597 3.78885C2.3248 3.71068 2.36651 3.63585 2.41181 3.563C2.4571 3.49015 2.50599 3.41948 2.5593 3.34919C2.61261 3.2789 2.67002 3.20951 2.73249 3.13916C2.79496 3.06881 2.86243 2.99775 2.9356 2.92452C3.02087 2.83876 3.10967 2.75657 3.20175 2.67816C3.2887 2.60419 3.37937 2.53471 3.47342 2.46999C3.56587 2.40592 3.6607 2.34889 3.75944 2.29648C3.85817 2.24407 3.96081 2.19672 4.06878 2.15412C4.17674 2.11151 4.29015 2.07338 4.41028 2.03879C4.53649 2.00338 4.6641 1.97318 4.79279 1.94825C4.92811 1.92173 5.07183 1.8986 5.22528 1.87841C5.37873 1.85823 5.54199 1.8408 5.71652 1.82568C5.83826 1.81517 6.04803 1.80582 6.32425 1.79794L7.32954 1.77808L10.0038 1.76174L10.0033 1.76231Z" fill="url(#paint2_radial_1709_2476)"/>
</g>
</g>
<defs>
<radialGradient id="paint0_radial_1709_2476" cx="0" cy="0" r="1" gradientUnits="userSpaceOnUse" gradientTransform="translate(3.18632 21.419) rotate(-9.53101) scale(42.2692 25.6571)">
<stop stop-color="#FED576"/>
<stop offset="0.263" stop-color="#F47133"/>
<stop offset="0.609" stop-color="#BC3081"/>
<stop offset="1" stop-color="#4C63D2"/>
</radialGradient>
<radialGradient id="paint1_radial_1709_2476" cx="0" cy="0" r="1" gradientUnits="userSpaceOnUse" gradientTransform="translate(3.18637 21.419) rotate(-9.53101) scale(42.2692 25.6571)">
<stop stop-color="#FED576"/>
<stop offset="0.263" stop-color="#F47133"/>
<stop offset="0.609" stop-color="#BC3081"/>
<stop offset="1" stop-color="#4C63D2"/>
</radialGradient>
<radialGradient id="paint2_radial_1709_2476" cx="0" cy="0" r="1" gradientUnits="userSpaceOnUse" gradientTransform="translate(3.18631 21.419) rotate(-9.53101) scale(42.2692 25.6571)">
<stop stop-color="#FED576"/>
<stop offset="0.263" stop-color="#F47133"/>
<stop offset="0.609" stop-color="#BC3081"/>
<stop offset="1" stop-color="#4C63D2"/>
</radialGradient>
<clipPath id="clip0_1709_2476">
<rect width="20" height="20" fill="white"/>
</clipPath>
</defs>
</svg>
