<svg width="22" height="22" viewBox="0 0 22 22" fill="none" xmlns="http://www.w3.org/2000/svg">
<g opacity="0.7">
<path d="M10.9996 12.4892C9.32245 12.4892 7.95215 11.1263 7.95215 9.44165C7.95215 7.75865 9.32076 6.40332 10.9996 6.40332C12.6768 6.40332 14.0471 7.76614 14.0471 9.45082C14.0471 11.1338 12.6785 12.4892 10.9996 12.4892ZM10.9996 6.77832C9.53321 6.77832 8.32715 7.97247 8.32715 9.45082C8.32715 10.9278 9.52267 12.1233 10.9996 12.1233C12.4766 12.1233 13.6721 10.9278 13.6721 9.45082C13.6721 7.97247 12.4661 6.77832 10.9996 6.77832Z" fill="#191F6D" stroke="#191F6D"/>
<path d="M3.13619 7.74699L3.13631 7.74643C4.08986 3.54568 7.75354 1.64575 10.9996 1.64575H10.9996H10.9996H10.9996H10.9996H10.9996H10.9996H10.9996H10.9996H10.9996H10.9996H10.9996H10.9996H10.9997H10.9997H10.9997H10.9997H10.9997H10.9997H10.9997H10.9997H10.9997H10.9997H10.9997H10.9998H10.9998H10.9998H10.9998H10.9998H10.9998H10.9998H10.9998H10.9998H10.9998H10.9998H10.9999H10.9999H10.9999H10.9999H10.9999H10.9999H10.9999H10.9999H11H11H11H11H11H11H11H11H11H11H11.0001H11.0001H11.0001H11.0001H11.0001H11.0001H11.0001H11.0001H11.0001H11.0001H11.0001H11.0001H11.0002H11.0002H11.0002H11.0002H11.0002H11.0002H11.0002H11.0002H11.0002H11.0002H11.0002H11.0003H11.0003H11.0003H11.0003H11.0003H11.0003H11.0003H11.0003H11.0003H11.0003H11.0004H11.0004H11.0004H11.0004H11.0004H11.0004H11.0004H11.0004H11.0004H11.0005H11.0005H11.0005H11.0005H11.0005H11.0005H11.0005H11.0005H11.0006H11.0006H11.0006H11.0006H11.0006H11.0006H11.0006H11.0006H11.0007H11.0007H11.0007H11.0007H11.0007H11.0007H11.0007H11.0008H11.0008H11.0008H11.0008H11.0008H11.0008H11.0008H11.0009H11.0009H11.0009H11.0009H11.0009H11.0009H11.0009H11.001H11.001H11.001H11.001H11.001H11.001H11.001H11.0011H11.0011H11.0011H11.0011H11.0011H11.0011H11.0012H11.0012H11.0012H11.0012H11.0012H11.0013H11.0013H11.0013H11.0013H11.0013H11.0013H11.0014H11.0014H11.0014H11.0014H11.0014H11.0015H11.0015H11.0015H11.0015H11.0015H11.0015H11.0016H11.0016H11.0016H11.0016H11.0016H11.0017H11.0017H11.0017H11.0017H11.0017H11.0018H11.0018H11.0018H11.0018H11.0019H11.0019H11.0019H11.0019H11.0019H11.002H11.002H11.002H11.002H11.0021H11.0021H11.0021H11.0021H11.0021H11.0022H11.0022H11.0022H11.0022H11.0023H11.0023H11.0023H11.0023H11.0024H11.0024H11.0024H11.0024H11.0025H11.0025H11.0025H11.0025H11.0026H11.0026H11.0026H11.0026H11.0027H11.0027H11.0027H11.0027H11.0028H11.0028H11.0028H11.0028H11.0029H11.0029H11.0029H11.003H11.003H11.003H11.003H11.0031H11.0031H11.0031H11.0032H11.0032H11.0032H11.0032H11.0033H11.0033H11.0033H11.0034H11.0034H11.0034H11.0034H11.0035H11.0035H11.0035H11.0036H11.0036H11.0036H11.0037H11.0037H11.0037H11.0038H11.0038H11.0038H11.0039H11.0039H11.0039H11.004H11.004H11.004H11.0041H11.0041H11.0041H11.0042H11.0042H11.0042H11.0043H11.0043H11.0043H11.0044H11.0044H11.0044H11.0045H11.0045H11.0045H11.0046H11.0046H11.0046H11.0047H11.0047H11.0048H11.0048H11.0048H11.0049H11.0049H11.0049H11.005H11.005H11.0051H11.0051H11.0051H11.0052H11.0052H11.0053H11.0053H11.0053H11.0054H11.0054H11.0054H11.0055H11.0055H11.0056H11.0056H11.0057H11.0057H11.0057H11.0058H11.0058H11.0059H11.0059H11.0059H11.006H11.006H11.0061H11.0061H11.0062H11.0062H11.0062H11.0063H11.0063H11.0064H11.0064H11.0065H11.0065H11.0066H11.0066H11.0066H11.0067H11.0067H11.0068H11.0068H11.0069H11.0069H11.007H11.007H11.0071H11.0071H11.0072H11.0072H11.0072H11.0073H11.0073H11.0074H11.0074H11.0075H11.0075H11.0076H11.0076H11.0077H11.0077H11.0078H11.0078H11.0079H11.0079H11.008H11.008H11.0081H11.0081H11.0082H11.0082H11.0083H11.0083H11.0084H11.0085H11.0085H11.0086H11.0086H11.0087H11.0087C14.2544 1.64575 17.9182 3.54537 18.8719 7.75538C19.929 12.4258 17.1138 16.3965 14.4393 18.9715C13.4711 19.8978 12.2301 20.3633 10.9996 20.3633C9.76899 20.3633 8.52796 19.8978 7.55978 18.9715C4.88547 16.3967 2.07044 12.4172 3.13619 7.74699ZM18.509 7.82847L18.5086 7.82647C17.523 3.52953 13.8158 2.02075 10.9996 2.02075C8.183 2.02075 4.48474 3.52993 3.50875 7.82699C2.45598 12.4194 5.34933 16.3149 7.82945 18.6935C9.60887 20.4107 12.3994 20.4107 14.1788 18.6935C16.6497 16.3152 19.5424 12.4202 18.509 7.82847Z" fill="#191F6D" stroke="#191F6D"/>
</g>
</svg>
