<svg width="15" height="18" viewBox="0 0 15 18" fill="none" xmlns="http://www.w3.org/2000/svg">
<path d="M6.53512 12.9989C6.53512 13.4131 6.8709 13.7489 7.28512 13.7489C7.69933 13.7489 8.03512 13.4131 8.03512 12.9989H6.53512ZM8.03512 10.999C8.03512 10.5848 7.69933 10.249 7.28512 10.249C6.8709 10.249 6.53512 10.5848 6.53512 10.999H8.03512ZM9.90283 3.34158C10.0915 3.71033 10.5434 3.85631 10.9121 3.66763C11.2809 3.47896 11.4269 3.02708 11.2382 2.65833L9.90283 3.34158ZM7.28511 1.00015L7.27847 1.75018L7.28832 1.75014L7.28511 1.00015ZM3.61917 4.5998L2.86917 4.59276V4.5998H3.61917ZM2.86917 5.72998C2.86917 6.1442 3.20496 6.47998 3.61917 6.47998C4.03338 6.47998 4.36917 6.1442 4.36917 5.72998H2.86917ZM3.61918 5.7301L3.98383 6.38553L3.99086 6.38152L3.61918 5.7301ZM1 10.1422L0.25 10.136V10.1422H1ZM1 11.8564H0.25C0.25 11.8623 0.250071 11.8683 0.250213 11.8742L1 11.8564ZM6.38692 16.9987V16.2487C6.38126 16.2487 6.3756 16.2488 6.36995 16.2489L6.38692 16.9987ZM8.18332 16.9987L8.20028 16.2489C8.19463 16.2488 8.18897 16.2487 8.18332 16.2487V16.9987ZM13.5702 11.8564L14.32 11.8742C14.3202 11.8683 14.3202 11.8623 14.3202 11.8564H13.5702ZM13.5702 10.1422H14.3202C14.3202 10.1363 14.3202 10.1303 14.32 10.1244L13.5702 10.1422ZM8.18332 4.99988V5.74988C8.18897 5.74988 8.19463 5.74982 8.20028 5.74969L8.18332 4.99988ZM6.38692 4.99988L6.38498 5.74988H6.38692V4.99988ZM8.03512 12.9989V10.999H6.53512V12.9989H8.03512ZM11.2382 2.65833C10.4787 1.17406 8.94915 0.243004 7.28189 0.250152L7.28832 1.75014C8.39013 1.74541 9.40096 2.3607 9.90283 3.34158L11.2382 2.65833ZM7.29174 0.250175C4.87159 0.228758 2.89194 2.17261 2.8692 4.59276L4.36914 4.60685C4.3841 3.01478 5.68639 1.73603 7.27847 1.75012L7.29174 0.250175ZM2.86917 4.5998V5.72998H4.36917V4.5998H2.86917ZM3.25455 5.0747C1.41511 6.09809 0.26762 8.0311 0.250026 10.136L1.74997 10.1485C1.76305 8.58355 2.61621 7.14637 3.98381 6.38549L3.25455 5.0747ZM0.25 10.1422V11.8564H1.75V10.1422H0.25ZM0.250213 11.8742C0.329321 15.1948 3.08322 17.8237 6.40388 17.7485L6.36995 16.2489C3.87681 16.3053 1.80918 14.3316 1.74979 11.8385L0.250213 11.8742ZM6.38692 17.7487H8.18332V16.2487H6.38692V17.7487ZM8.16635 17.7485C11.487 17.8237 14.2409 15.1948 14.32 11.8742L12.8204 11.8385C12.7611 14.3316 10.6934 16.3053 8.20028 16.2489L8.16635 17.7485ZM14.3202 11.8564V10.1422H12.8202V11.8564H14.3202ZM14.32 10.1244C14.2409 6.80382 11.487 4.17493 8.16635 4.25007L8.20028 5.74969C10.6934 5.69327 12.7611 7.66704 12.8204 10.1601L14.32 10.1244ZM8.18332 4.24988H6.38692V5.74988H8.18332V4.24988ZM6.38885 4.24988C5.28732 4.24704 4.20426 4.53278 3.2475 5.07867L3.99086 6.38152C4.72003 5.96549 5.54547 5.74771 6.38498 5.74988L6.38885 4.24988Z" fill="#5F45BF"/>
</svg>
