<svg width="22" height="18" viewBox="0 0 22 18" fill="none" xmlns="http://www.w3.org/2000/svg">
<path d="M13.7346 4.91268C13.4409 4.62052 12.9661 4.62171 12.6739 4.91533C12.3818 5.20895 12.3829 5.68383 12.6766 5.97599L13.7346 4.91268ZM16.0266 9.30932C16.3202 9.60148 16.7951 9.6003 17.0872 9.30668C17.3794 9.01305 17.3782 8.53818 17.0846 8.24602L16.0266 9.30932ZM17.0846 9.30899C17.3782 9.01683 17.3794 8.54196 17.0872 8.24834C16.7951 7.95472 16.3202 7.95353 16.0266 8.24569L17.0846 9.30899ZM12.6766 11.579C12.3829 11.8712 12.3818 12.3461 12.6739 12.6397C12.9661 12.9333 13.4409 12.9345 13.7346 12.6423L12.6766 11.579ZM16.5556 9.52724C16.9698 9.52724 17.3056 9.19145 17.3056 8.77724C17.3056 8.36302 16.9698 8.02724 16.5556 8.02724V9.52724ZM1 8.02724C0.585786 8.02724 0.25 8.36302 0.25 8.77724C0.25 9.19145 0.585786 9.52724 1 9.52724V8.02724ZM12.6766 5.97599L16.0266 9.30932L17.0846 8.24602L13.7346 4.91268L12.6766 5.97599ZM16.0266 8.24569L12.6766 11.579L13.7346 12.6423L17.0846 9.30899L16.0266 8.24569ZM16.5556 8.02724H1V9.52724H16.5556V8.02724Z" fill="#5F45BF"/>
<path d="M7.6665 12.1111C7.6665 14.5657 9.65635 16.5556 12.1109 16.5556H16.5554C19.01 16.5556 20.9998 14.5657 20.9998 12.1111V5.44444C20.9998 2.98985 19.01 1 16.5554 1H12.1109C9.65635 1 7.6665 2.98985 7.6665 5.44444" stroke="#5F45BF" stroke-width="1.5" stroke-linecap="round" stroke-linejoin="round"/>
<path d="M13.7346 4.91268C13.4409 4.62052 12.9661 4.62171 12.6739 4.91533C12.3818 5.20895 12.3829 5.68383 12.6766 5.97599L13.7346 4.91268ZM16.0266 9.30932C16.3202 9.60148 16.7951 9.6003 17.0872 9.30668C17.3794 9.01305 17.3782 8.53818 17.0846 8.24602L16.0266 9.30932ZM17.0846 9.30899C17.3782 9.01683 17.3794 8.54196 17.0872 8.24834C16.7951 7.95472 16.3202 7.95353 16.0266 8.24569L17.0846 9.30899ZM12.6766 11.579C12.3829 11.8712 12.3818 12.3461 12.6739 12.6397C12.9661 12.9333 13.4409 12.9345 13.7346 12.6423L12.6766 11.579ZM16.5556 9.52724C16.9698 9.52724 17.3056 9.19145 17.3056 8.77724C17.3056 8.36302 16.9698 8.02724 16.5556 8.02724V9.52724ZM1 8.02724C0.585786 8.02724 0.25 8.36302 0.25 8.77724C0.25 9.19145 0.585786 9.52724 1 9.52724V8.02724ZM12.6766 5.97599L16.0266 9.30932L17.0846 8.24602L13.7346 4.91268L12.6766 5.97599ZM16.0266 8.24569L12.6766 11.579L13.7346 12.6423L17.0846 9.30899L16.0266 8.24569ZM16.5556 8.02724H1V9.52724H16.5556V8.02724Z" fill="#5F45BF"/>
<path d="M7.6665 12.1111C7.6665 14.5657 9.65635 16.5556 12.1109 16.5556H16.5554C19.01 16.5556 20.9998 14.5657 20.9998 12.1111V5.44444C20.9998 2.98985 19.01 1 16.5554 1H12.1109C9.65635 1 7.6665 2.98985 7.6665 5.44444" stroke="#5F45BF" stroke-width="1.5" stroke-linecap="round" stroke-linejoin="round"/>
</svg>
