<svg width="24" height="24" viewBox="0 0 24 24" fill="none" xmlns="http://www.w3.org/2000/svg">
<path opacity="0.7" d="M8.65829 16.553L8.65814 16.5514C8.64496 16.4164 8.7436 16.2915 8.88791 16.2777L8.89026 16.2775C9.01206 16.2653 9.14886 16.3707 9.16278 16.5076C9.31383 18.1406 9.78481 19.3788 10.8056 20.1849C11.8083 20.9766 13.2427 21.27 15.1205 21.27H15.2505C17.3201 21.27 18.8709 20.9092 19.8853 19.8948C20.8997 18.8804 21.2605 17.3296 21.2605 15.26V8.73998C21.2605 6.67035 20.8997 5.11955 19.8853 4.10518C18.8709 3.0908 17.3201 2.72998 15.2505 2.72998H15.1205C13.2323 2.72998 11.7907 3.02843 10.7872 3.83531C9.76864 4.65427 9.30462 5.91033 9.16324 7.56656C9.1404 7.72645 9.01341 7.81419 8.88791 7.80223L8.88792 7.80209L8.87613 7.80125C8.74674 7.79201 8.63942 7.67631 8.64901 7.52879C8.81259 5.62129 9.40073 4.33018 10.4006 3.50266C11.4117 2.6658 12.9306 2.22998 15.1105 2.22998H15.2405C17.638 2.22998 19.2305 2.74461 20.2332 3.74728C21.2359 4.74996 21.7505 6.3425 21.7505 8.73998V15.26C21.7505 17.6575 21.2359 19.25 20.2332 20.2527C19.2305 21.2554 17.638 21.77 15.2405 21.77H15.1105C12.945 21.77 11.4346 21.3414 10.4254 20.5176C9.42735 19.7029 8.83564 18.432 8.65829 16.553Z" stroke="#191F6D"/>
<path opacity="0.7" d="M14.9991 12.25H3.61914C3.48528 12.25 3.36914 12.1339 3.36914 12C3.36914 11.8661 3.48528 11.75 3.61914 11.75H14.9991C15.133 11.75 15.2491 11.8661 15.2491 12C15.2491 12.1339 15.133 12.25 14.9991 12.25Z" stroke="#191F6D"/>
<path opacity="0.7" d="M3.2059 11.6465L2.85235 12.0001L3.2059 12.3536L6.0259 15.1736C6.12064 15.2684 6.12064 15.4318 6.0259 15.5265L6.01981 15.5326L6.01393 15.5389C5.98368 15.5713 5.92481 15.6001 5.84945 15.6001C5.78491 15.6001 5.7243 15.5778 5.67301 15.5265L2.32301 12.1765C2.22827 12.0818 2.22827 11.9184 2.32301 11.8236L5.67301 8.47364C5.76774 8.3789 5.93116 8.3789 6.0259 8.47364C6.12064 8.56838 6.12064 8.7318 6.0259 8.82653L3.2059 11.6465Z" stroke="#191F6D"/>
</svg>
