<svg width="23" height="24" viewBox="0 0 23 24" fill="none" xmlns="http://www.w3.org/2000/svg">
    <g id="Vector">
        <path id="Vector_2" fill-rule="evenodd" clip-rule="evenodd"
            d="M8.16169 9.64022H4.07819C3.47901 9.63523 2.9024 9.86848 2.4752 10.2887C2.04801 10.7088 1.80524 11.2815 1.80029 11.8807V20.3601C1.81138 21.6073 2.83102 22.6095 4.07819 22.5991H8.16169C8.76086 22.6041 9.33748 22.3709 9.76467 21.9507C10.1919 21.5305 10.4346 20.9579 10.4396 20.3587V11.8807C10.4346 11.2815 10.1919 10.7088 9.76467 10.2887C9.33748 9.86848 8.76086 9.63523 8.16169 9.64022Z"
            stroke="#FAFAFA" stroke-width="1.8" stroke-linecap="round" stroke-linejoin="round" />
        <path id="Vector-2" fill-rule="evenodd" clip-rule="evenodd"
            d="M8.16144 1.00087H4.07794C2.85585 0.966972 1.83689 1.92861 1.80005 3.15061V4.61065C1.83689 5.83266 2.85585 6.79429 4.07794 6.76039H8.16144C9.38353 6.79429 10.4025 5.83266 10.4393 4.61065V3.15061C10.4025 1.92861 9.38353 0.966972 8.16144 1.00087Z"
            stroke="#FAFAFA" stroke-width="1.8" stroke-linecap="round" stroke-linejoin="round" />
        <path id="Vector-3" fill-rule="evenodd" clip-rule="evenodd"
            d="M15.597 13.96H19.679C20.2785 13.9654 20.8555 13.7323 21.283 13.3121C21.7105 12.8918 21.9534 12.319 21.9584 11.7195V3.24151C21.9534 2.64233 21.7107 2.06966 21.2835 1.64949C20.8563 1.22932 20.2797 0.99607 19.6805 1.00105H15.597C14.9978 0.99607 14.4212 1.22932 13.994 1.64949C13.5668 2.06966 13.324 2.64233 13.3191 3.24151V11.7195C13.324 12.3187 13.5668 12.8914 13.994 13.3115C14.4212 13.7317 14.9978 13.965 15.597 13.96Z"
            stroke="#FAFAFA" stroke-width="1.8" stroke-linecap="round" stroke-linejoin="round" />
        <path id="Vector-4" fill-rule="evenodd" clip-rule="evenodd"
            d="M15.597 22.5993H19.679C20.9017 22.634 21.9215 21.6721 21.9584 20.4495V18.9895C21.9215 17.7675 20.9026 16.8058 19.6805 16.8397H15.597C14.3749 16.8058 13.3559 17.7675 13.3191 18.9895V20.4481C13.3552 21.6707 14.3743 22.6332 15.597 22.5993Z"
            stroke="#FAFAFA" stroke-width="1.8" stroke-linecap="round" stroke-linejoin="round" />
    </g>
</svg>
