<svg width="20" height="20" viewBox="0 0 20 20" fill="none" xmlns="http://www.w3.org/2000/svg">
<g id="vuesax/outline/message">
<g id="message">
<path id="Vector" d="M10.0003 19.0083C9.42533 19.0083 8.88366 18.7167 8.50033 18.2083L7.25033 16.5417C7.22533 16.5083 7.12533 16.4667 7.08366 16.4583H6.66699C3.19199 16.4583 1.04199 15.5167 1.04199 10.8333V6.66666C1.04199 2.98332 2.98366 1.04166 6.66699 1.04166H13.3337C17.017 1.04166 18.9587 2.98332 18.9587 6.66666V10.8333C18.9587 14.5167 17.017 16.4583 13.3337 16.4583H12.917C12.8503 16.4583 12.792 16.4917 12.7503 16.5417L11.5003 18.2083C11.117 18.7167 10.5753 19.0083 10.0003 19.0083ZM6.66699 2.29166C3.68366 2.29166 2.29199 3.68332 2.29199 6.66666V10.8333C2.29199 14.6 3.58366 15.2083 6.66699 15.2083H7.08366C7.50866 15.2083 7.99199 15.45 8.25033 15.7917L9.50033 17.4583C9.79199 17.8417 10.2087 17.8417 10.5003 17.4583L11.7503 15.7917C12.0253 15.425 12.4587 15.2083 12.917 15.2083H13.3337C16.317 15.2083 17.7087 13.8167 17.7087 10.8333V6.66666C17.7087 3.68332 16.317 2.29166 13.3337 2.29166H6.66699Z" fill="#091033"/>
<path id="Vector_2" d="M10.0003 9.99999C9.53366 9.99999 9.16699 9.62499 9.16699 9.16666C9.16699 8.70833 9.54199 8.33333 10.0003 8.33333C10.4587 8.33333 10.8337 8.70833 10.8337 9.16666C10.8337 9.62499 10.467 9.99999 10.0003 9.99999Z" fill="#091033"/>
<path id="Vector_3" d="M13.3333 9.99999C12.8667 9.99999 12.5 9.62499 12.5 9.16666C12.5 8.70833 12.875 8.33333 13.3333 8.33333C13.7917 8.33333 14.1667 8.70833 14.1667 9.16666C14.1667 9.62499 13.8 9.99999 13.3333 9.99999Z" fill="#091033"/>
<path id="Vector_4" d="M6.66634 9.99999C6.19967 9.99999 5.83301 9.62499 5.83301 9.16666C5.83301 8.70833 6.20801 8.33333 6.66634 8.33333C7.12467 8.33333 7.49967 8.70833 7.49967 9.16666C7.49967 9.62499 7.13301 9.99999 6.66634 9.99999Z" fill="#091033"/>
</g>
</g>
</svg>
