<svg width="14" height="14" viewBox="0 0 14 14" fill="none" xmlns="http://www.w3.org/2000/svg">
<path opacity="0.7" d="M5.83301 11.0833C5.83301 11.725 6.35801 12.25 6.99967 12.25C7.64134 12.25 8.16634 11.725 8.16634 11.0833C8.16634 10.4417 7.64134 9.91667 6.99967 9.91667C6.35801 9.91667 5.83301 10.4417 5.83301 11.0833Z" stroke="#191F6D" stroke-width="1.5"/>
<path opacity="0.7" d="M5.83301 2.91659C5.83301 3.55825 6.35801 4.08325 6.99967 4.08325C7.64134 4.08325 8.16634 3.55825 8.16634 2.91659C8.16634 2.27492 7.64134 1.74992 6.99967 1.74992C6.35801 1.74992 5.83301 2.27492 5.83301 2.91659Z" stroke="#191F6D" stroke-width="1.5"/>
<path opacity="0.7" d="M5.83301 7.00008C5.83301 7.64175 6.35801 8.16675 6.99967 8.16675C7.64134 8.16675 8.16634 7.64175 8.16634 7.00008C8.16634 6.35841 7.64134 5.83341 6.99967 5.83341C6.35801 5.83341 5.83301 6.35841 5.83301 7.00008Z" stroke="#191F6D" stroke-width="1.5"/>
</svg>
