<svg width="19" height="20" viewBox="0 0 19 20" fill="none" xmlns="http://www.w3.org/2000/svg">
<g id="Group 1284">
<path id="Vector-8" fill-rule="evenodd" clip-rule="evenodd" d="M15.2952 0.947342L17.1691 2.38939C17.3501 2.55398 17.4521 2.78387 17.4507 3.02403C17.4494 3.26419 17.3447 3.49299 17.1619 3.65565L15.7379 5.30238L10.8928 10.8867C10.808 10.9805 10.6951 11.0464 10.5697 11.0752L8.0568 11.6256C7.72712 11.6416 7.4401 11.41 7.39746 11.0937V8.59815C7.40601 8.47784 7.45617 8.3638 7.53986 8.27436L12.2952 3.07861L13.9274 1.19481C14.2504 0.785769 14.841 0.678897 15.2952 0.947342Z" stroke="white" stroke-width="1.44" stroke-linecap="round" stroke-linejoin="round"/>
<g id="Group 1282">
<path id="Vector-9" d="M8.87684 3.57156C9.27449 3.57156 9.59684 3.24921 9.59684 2.85156C9.59684 2.45392 9.27449 2.13156 8.87684 2.13156V3.57156ZM5.56241 2.85156V2.13156L5.56063 2.13156L5.56241 2.85156ZM1.14357 7.40796H1.86357L1.86356 7.40646L1.14357 7.40796ZM1.14357 14.2426L1.86357 14.2441V14.2426H1.14357ZM5.56241 18.799L5.56063 19.519H5.56241V18.799ZM12.1913 18.799V19.519L12.193 19.519L12.1913 18.799ZM16.6101 14.2426H15.8901L15.8901 14.2441L16.6101 14.2426ZM17.3301 9.68616C17.3301 9.28852 17.0078 8.96616 16.6101 8.96616C16.2125 8.96616 15.8901 9.28852 15.8901 9.68616H17.3301ZM13.2854 2.70693C13.1371 2.338 12.7177 2.15921 12.3488 2.30759C11.9799 2.45596 11.8011 2.87532 11.9494 3.24424L13.2854 2.70693ZM16.1823 6.0094C16.5701 5.92141 16.8132 5.53571 16.7252 5.14792C16.6372 4.76014 16.2515 4.51711 15.8637 4.6051L16.1823 6.0094ZM4.45782 14.661C4.06018 14.661 3.73782 14.9833 3.73782 15.381C3.73782 15.7786 4.06018 16.101 4.45782 16.101V14.661ZM13.2967 16.101C13.6943 16.101 14.0167 15.7786 14.0167 15.381C14.0167 14.9833 13.6943 14.661 13.2967 14.661V16.101ZM8.87684 2.13156H5.56241V3.57156H8.87684V2.13156ZM5.56063 2.13156C2.69962 2.13862 0.417539 4.51916 0.423567 7.40946L1.86356 7.40646C1.85912 5.27558 3.53343 3.57657 5.56419 3.57156L5.56063 2.13156ZM0.423565 7.40796V14.2426H1.86357V7.40796H0.423565ZM0.423567 14.2411C0.417539 17.1314 2.69962 19.5119 5.56063 19.519L5.56419 18.079C3.53343 18.074 1.85912 16.3749 1.86356 14.2441L0.423567 14.2411ZM5.56241 19.519H12.1913V18.079H5.56241V19.519ZM12.193 19.519C15.0541 19.5119 17.3361 17.1314 17.3301 14.2411L15.8901 14.2441C15.8946 16.3749 14.2202 18.074 12.1895 18.079L12.193 19.519ZM17.3301 14.2426V9.68616H15.8901V14.2426H17.3301ZM11.9494 3.24424C12.1711 3.79532 12.6264 4.5819 13.3048 5.18783C13.9958 5.80497 14.9815 6.28188 16.1823 6.0094L15.8637 4.6051C15.2546 4.7433 14.7281 4.52824 14.2641 4.11382C13.7875 3.68818 13.445 3.10358 13.2854 2.70693L11.9494 3.24424ZM4.45782 16.101H13.2967V14.661H4.45782V16.101Z" fill="white"/>
</g>
</g>
</svg>
