<svg width="23" height="23" viewBox="0 0 23 23" fill="none" xmlns="http://www.w3.org/2000/svg">
<g id="vuesax/linear/notification">
<g id="notification">
<path id="Vector" d="M11.5192 2.78876C8.34711 2.78876 5.76919 5.36667 5.76919 8.53876V11.3083C5.76919 11.8929 5.52002 12.7842 5.22294 13.2825L4.12086 15.1129C3.44044 16.2438 3.91002 17.4992 5.15586 17.9208C9.28627 19.3008 13.7425 19.3008 17.8729 17.9208C19.0325 17.5375 19.5404 16.1671 18.9079 15.1129L17.8059 13.2825C17.5184 12.7842 17.2692 11.8929 17.2692 11.3083V8.53876C17.2692 5.37626 14.6817 2.78876 11.5192 2.78876Z" stroke="#F2F4F7" stroke-width="1.5" stroke-miterlimit="10" stroke-linecap="round"/>
<path id="Vector_2" d="M13.292 3.06666C12.995 2.98041 12.6883 2.91333 12.372 2.87499C11.452 2.75999 10.5704 2.82708 9.74622 3.06666C10.0241 2.35749 10.7141 1.85916 11.5191 1.85916C12.3241 1.85916 13.0141 2.35749 13.292 3.06666Z" stroke="#F2F4F7" stroke-width="1.5" stroke-miterlimit="10" stroke-linecap="round" stroke-linejoin="round"/>
<path id="Vector_3" d="M14.3942 18.2658C14.3942 19.8471 13.1004 21.1408 11.5192 21.1408C10.7333 21.1408 10.005 20.815 9.4875 20.2975C8.97 19.78 8.64417 19.0517 8.64417 18.2658" stroke="#F2F4F7" stroke-width="1.5" stroke-miterlimit="10"/>
</g>
</g>
</svg>
