<svg width="18" height="18" viewBox="0 0 18 18" fill="none" xmlns="http://www.w3.org/2000/svg">
<path fill-rule="evenodd" clip-rule="evenodd" d="M9 7.4L1 4.2L5 2.6L9 1L17 4.2L13 5.8L9 7.4Z" stroke="#5F45BF" stroke-width="1.5" stroke-linecap="round" stroke-linejoin="round"/>
<path d="M8.72146 17.6964C9.10604 17.8502 9.54252 17.6631 9.69636 17.2786C9.85019 16.894 9.66313 16.4575 9.27854 16.3037L8.72146 17.6964ZM1 13.8H0.25C0.25 14.1067 0.436713 14.3825 0.721457 14.4964L1 13.8ZM1.75 4.20002C1.75 3.7858 1.41421 3.45002 1 3.45002C0.585786 3.45002 0.25 3.7858 0.25 4.20002H1.75ZM8.72146 16.3037C8.33687 16.4575 8.14981 16.894 8.30364 17.2786C8.45748 17.6631 8.89396 17.8502 9.27854 17.6964L8.72146 16.3037ZM17 13.8L17.2785 14.4964C17.5633 14.3825 17.75 14.1067 17.75 13.8H17ZM17.75 4.20002C17.75 3.7858 17.4142 3.45002 17 3.45002C16.5858 3.45002 16.25 3.7858 16.25 4.20002H17.75ZM8.25004 17.0003C8.25004 17.4145 8.58582 17.7503 9.00004 17.7503C9.41425 17.7503 9.75004 17.4145 9.75004 17.0003H8.25004ZM9.75004 7.40026C9.75004 6.98605 9.41425 6.65026 9.00004 6.65026C8.58582 6.65026 8.25004 6.98605 8.25004 7.40026H9.75004ZM5.27854 1.90374C4.89396 1.74991 4.45748 1.93697 4.30364 2.32155C4.14981 2.70614 4.33687 3.14262 4.72146 3.29646L5.27854 1.90374ZM13 5.8001H13.75C13.75 5.49342 13.5633 5.21764 13.2785 5.10374L13 5.8001ZM12.25 8.42867C12.25 8.84288 12.5858 9.17867 13 9.17867C13.4142 9.17867 13.75 8.84288 13.75 8.42867H12.25ZM9.27854 16.3037L1.27854 13.1037L0.721457 14.4964L8.72146 17.6964L9.27854 16.3037ZM1.75 13.8V4.20002H0.25V13.8H1.75ZM9.27854 17.6964L17.2785 14.4964L16.7215 13.1037L8.72146 16.3037L9.27854 17.6964ZM17.75 13.8V4.20002H16.25V13.8H17.75ZM9.75004 17.0003V7.40026H8.25004V17.0003H9.75004ZM4.72146 3.29646L12.7215 6.49646L13.2785 5.10374L5.27854 1.90374L4.72146 3.29646ZM12.25 5.8001V8.42867H13.75V5.8001H12.25Z" fill="#5F45BF"/>
</svg>
