<svg width="22" height="22" viewBox="0 0 22 22" fill="none" xmlns="http://www.w3.org/2000/svg">
<g id="Frame 668">
<g id="Vector">
<g id="Vector_2">
<path id="Vector-25" d="M13.8317 8.16843C13.3435 7.68029 12.5521 7.68032 12.0639 8.16849C11.5758 8.65666 11.5758 9.44811 12.064 9.93625L13.8317 8.16843ZM12.9478 14.8946L12.064 14.0106L12.0639 14.0107L12.9478 14.8946ZM9.05217 18.7902L9.93605 19.6741L9.05217 18.7902ZM3.20996 12.948L4.09384 13.8319L3.20996 12.948ZM6.04168 11.8841C6.52983 11.3959 6.52983 10.6044 6.04168 10.1163C5.55352 9.62814 4.76206 9.62814 4.27391 10.1163L6.04168 11.8841ZM8.16824 13.8317C8.65641 14.3199 9.44787 14.3199 9.93601 13.8317C10.4242 13.3435 10.4241 12.5521 9.93596 12.0639L8.16824 13.8317ZM9.0521 7.10562L9.93596 7.98953L9.93598 7.98951L9.0521 7.10562ZM12.9478 3.20996L13.8316 4.09384L12.9478 3.20996ZM18.79 3.20996L17.9061 4.09384V4.09384L18.79 3.20996ZM18.79 9.05217L19.6739 9.93605V9.93605L18.79 9.05217ZM15.9583 10.1161C15.4701 10.6043 15.4701 11.3957 15.9583 11.8839C16.4464 12.372 17.2379 12.372 17.726 11.8839L15.9583 10.1161ZM12.064 9.93625C12.6043 10.4765 12.9078 11.2093 12.9078 11.9734H15.4078C15.4078 10.5463 14.8409 9.17757 13.8317 8.16843L12.064 9.93625ZM12.9078 11.9734C12.9078 12.7375 12.6043 13.4704 12.064 14.0106L13.8317 15.7785C14.8409 14.7693 15.4078 13.4006 15.4078 11.9734H12.9078ZM12.0639 14.0107L8.16829 17.9063L9.93605 19.6741L13.8317 15.7784L12.0639 14.0107ZM8.16829 17.9063C7.04316 19.0315 5.21897 19.0315 4.09384 17.9063L2.32608 19.6741C4.42751 21.7755 7.83462 21.7755 9.93605 19.6741L8.16829 17.9063ZM4.09384 17.9063C2.96872 16.7812 2.96872 14.957 4.09384 13.8319L2.32608 12.0641C0.224641 14.1656 0.224641 17.5727 2.32608 19.6741L4.09384 17.9063ZM4.09384 13.8319L6.04168 11.8841L4.27391 10.1163L2.32608 12.0641L4.09384 13.8319ZM9.93596 12.0639C9.39564 11.5236 9.09209 10.7908 9.09209 10.0267H6.59209C6.59209 11.4539 7.15905 12.8226 8.16824 13.8317L9.93596 12.0639ZM9.09209 10.0267C9.09209 9.26262 9.39564 8.52982 9.93596 7.98953L8.16824 6.22171C7.15905 7.23085 6.59209 8.59956 6.59209 10.0267H9.09209ZM9.93598 7.98951L13.8316 4.09384L12.0639 2.32608L8.16822 6.22174L9.93598 7.98951ZM13.8316 4.09384C14.9568 2.96872 16.781 2.96872 17.9061 4.09384L19.6739 2.32608C17.5724 0.224641 14.1653 0.224641 12.0639 2.32608L13.8316 4.09384ZM17.9061 4.09384C19.0312 5.21897 19.0312 7.04316 17.9061 8.16829L19.6739 9.93605C21.7753 7.83462 21.7753 4.42751 19.6739 2.32608L17.9061 4.09384ZM17.9061 8.16829L15.9583 10.1161L17.726 11.8839L19.6739 9.93605L17.9061 8.16829Z" fill="#BA38F2"/>
</g>
</g>
</g>
</svg>
