<svg width="25" height="27" viewBox="0 0 25 27" fill="none" xmlns="http://www.w3.org/2000/svg">
<g id="Vector">
<path id="Vector-41" fill-rule="evenodd" clip-rule="evenodd" d="M15.7908 12.7305C15.7908 14.4558 14.3921 15.8545 12.6667 15.8545C10.9414 15.8545 9.54272 14.4558 9.54272 12.7305C9.54272 11.0051 10.9414 9.60645 12.6667 9.60645C14.3921 9.60645 15.7908 11.0051 15.7908 12.7305Z" stroke="#3B2E8C" stroke-width="1.5" stroke-linecap="round" stroke-linejoin="round"/>
<path id="Vector-42" d="M15.7908 3.38976C15.3766 3.38976 15.0408 3.72555 15.0408 4.13976C15.0408 4.55397 15.3766 4.88976 15.7908 4.88976V3.38976ZM9.54272 4.88976C9.95694 4.88976 10.2927 4.55397 10.2927 4.13976C10.2927 3.72555 9.95694 3.38976 9.54272 3.38976V4.88976ZM16.5407 4.13976C16.5407 3.72555 16.2049 3.38976 15.7907 3.38976C15.3765 3.38976 15.0407 3.72555 15.0407 4.13976H16.5407ZM15.0407 5.70177C15.0407 6.11599 15.3765 6.45177 15.7907 6.45177C16.2049 6.45177 16.5407 6.11599 16.5407 5.70177H15.0407ZM15.0407 4.13965C15.0407 4.55386 15.3765 4.88965 15.7907 4.88965C16.2049 4.88965 16.5407 4.55386 16.5407 4.13965H15.0407ZM16.5407 1.01562C16.5407 0.601411 16.2049 0.265625 15.7907 0.265625C15.3765 0.265625 15.0407 0.601411 15.0407 1.01562H16.5407ZM15.7908 4.88984C16.205 4.88984 16.5408 4.55406 16.5408 4.13984C16.5408 3.72563 16.205 3.38984 15.7908 3.38984V4.88984ZM9.54278 3.38984C9.12857 3.38984 8.79278 3.72563 8.79278 4.13984C8.79278 4.55406 9.12857 4.88984 9.54278 4.88984V3.38984ZM10.2926 4.13976C10.2926 3.72555 9.95685 3.38976 9.54264 3.38976C9.12843 3.38976 8.79264 3.72555 8.79264 4.13976H10.2926ZM8.79264 5.70177C8.79264 6.11599 9.12843 6.45177 9.54264 6.45177C9.95685 6.45177 10.2926 6.11599 10.2926 5.70177H8.79264ZM8.79264 4.13965C8.79264 4.55386 9.12843 4.88965 9.54264 4.88965C9.95685 4.88965 10.2926 4.55386 10.2926 4.13965H8.79264ZM10.2926 1.01562C10.2926 0.601411 9.95685 0.265625 9.54264 0.265625C9.12843 0.265625 8.79264 0.601411 8.79264 1.01562H10.2926ZM2.84559 23.0641C2.51377 23.3121 2.44577 23.7821 2.6937 24.1139C2.94164 24.4457 3.41162 24.5137 3.74343 24.2658L2.84559 23.0641ZM21.5897 24.2658C21.9215 24.5137 22.3915 24.4457 22.6395 24.1139C22.8874 23.7821 22.8194 23.3121 22.4876 23.0641L21.5897 24.2658ZM15.7908 4.88976H17.3528V3.38976H15.7908V4.88976ZM17.3528 4.88976C20.3893 4.88976 22.8508 7.35132 22.8508 10.3878H24.3508C24.3508 6.52289 21.2177 3.38976 17.3528 3.38976V4.88976ZM22.8508 10.3878V19.7599H24.3508V10.3878H22.8508ZM22.8508 19.7599C22.8508 22.7964 20.3893 25.2579 17.3528 25.2579V26.7579C21.2177 26.7579 24.3508 23.6248 24.3508 19.7599H22.8508ZM17.3528 25.2579H7.98071V26.7579H17.3528V25.2579ZM7.98071 25.2579C4.94423 25.2579 2.48267 22.7964 2.48267 19.7599H0.982666C0.982666 23.6248 4.1158 26.7579 7.98071 26.7579V25.2579ZM2.48267 19.7599V10.3878H0.982666V19.7599H2.48267ZM2.48267 10.3878C2.48267 7.35132 4.94423 4.88976 7.98071 4.88976V3.38976C4.1158 3.38976 0.982666 6.52289 0.982666 10.3878H2.48267ZM7.98071 4.88976H9.54272V3.38976H7.98071V4.88976ZM15.0407 4.13976V5.70177H16.5407V4.13976H15.0407ZM16.5407 4.13965V1.01562H15.0407V4.13965H16.5407ZM15.7908 3.38984H9.54278V4.88984H15.7908V3.38984ZM8.79264 4.13976V5.70177H10.2926V4.13976H8.79264ZM10.2926 4.13965V1.01562H8.79264V4.13965H10.2926ZM3.74343 24.2658C9.03517 20.3118 16.298 20.3118 21.5897 24.2658L22.4876 23.0641C16.6634 18.7123 8.66978 18.7123 2.84559 23.0641L3.74343 24.2658Z" fill="#3B2E8C"/>
</g>
</svg>
