<svg width="21" height="18" viewBox="0 0 21 18" fill="none" xmlns="http://www.w3.org/2000/svg">
<path fill-rule="evenodd" clip-rule="evenodd" d="M9.00014 3.28571C9.00014 4.54808 7.97679 5.57143 6.71443 5.57143C5.45206 5.57143 4.42871 4.54808 4.42871 3.28571C4.42871 2.02335 5.45206 1 6.71443 1C7.97679 1 9.00014 2.02335 9.00014 3.28571Z" stroke="#5F45BF" stroke-width="1.5" stroke-linecap="round" stroke-linejoin="round"/>
<path fill-rule="evenodd" clip-rule="evenodd" d="M12.4286 13C12.4286 15.2091 9.86971 17 6.71429 17C3.55886 17 1 15.2091 1 13C1 10.7909 3.55886 9 6.71429 9C9.86971 9 12.4286 10.7909 12.4286 13Z" stroke="#5F45BF" stroke-width="1.5" stroke-linecap="round" stroke-linejoin="round"/>
<path d="M17.7501 1C17.7501 0.585786 17.4143 0.25 17.0001 0.25C16.5859 0.25 16.2501 0.585786 16.2501 1H17.7501ZM16.2501 3.28571C16.2501 3.69993 16.5859 4.03571 17.0001 4.03571C17.4143 4.03571 17.7501 3.69993 17.7501 3.28571H16.2501ZM17.7501 3.28571C17.7501 2.8715 17.4143 2.53571 17.0001 2.53571C16.5859 2.53571 16.2501 2.8715 16.2501 3.28571H17.7501ZM16.2501 5.57143C16.2501 5.98564 16.5859 6.32143 17.0001 6.32143C17.4143 6.32143 17.7501 5.98564 17.7501 5.57143H16.2501ZM17.0001 4.03571C17.4143 4.03571 17.7501 3.69993 17.7501 3.28571C17.7501 2.8715 17.4143 2.53571 17.0001 2.53571V4.03571ZM14.7144 2.53571C14.3001 2.53571 13.9644 2.8715 13.9644 3.28571C13.9644 3.69993 14.3001 4.03571 14.7144 4.03571V2.53571ZM17.0001 2.53571C16.5859 2.53571 16.2501 2.8715 16.2501 3.28571C16.2501 3.69993 16.5859 4.03571 17.0001 4.03571V2.53571ZM19.2858 4.03571C19.7 4.03571 20.0358 3.69993 20.0358 3.28571C20.0358 2.8715 19.7 2.53571 19.2858 2.53571V4.03571ZM16.2501 1V3.28571H17.7501V1H16.2501ZM16.2501 3.28571V5.57143H17.7501V3.28571H16.2501ZM17.0001 2.53571H14.7144V4.03571H17.0001V2.53571ZM17.0001 4.03571H19.2858V2.53571H17.0001V4.03571Z" fill="#5F45BF"/>
</svg>
