<svg width="22" height="20" viewBox="0 0 22 20" fill="none" xmlns="http://www.w3.org/2000/svg">
<g id="Vector">
<path id="Vector-37" fill-rule="evenodd" clip-rule="evenodd" d="M1 3.57143V16.4286C1 17.8487 1.99492 19 3.22222 19H18.7778C20.0051 19 21 17.8487 21 16.4286V3.57143C21 2.15127 20.0051 1 18.7778 1H3.22222C1.99492 1 1 2.15127 1 3.57143Z" stroke="#5F45BF" stroke-width="1.5" stroke-linecap="round" stroke-linejoin="round"/>
<path id="Vector_671" d="M14.4286 7.4285H18.2857" stroke="#5F45BF" stroke-width="1.5" stroke-linecap="round"/>
<path id="Vector_675" d="M14.4286 11.2859H18.2857" stroke="#5F45BF" stroke-width="1.5" stroke-linecap="round"/>
<path id="Vector-40" fill-rule="evenodd" clip-rule="evenodd" d="M11 7.5C11 8.88071 9.88071 10 8.5 10C7.11929 10 6 8.88071 6 7.5C6 6.11929 7.11929 5 8.5 5C9.16304 5 9.79893 5.26339 10.2678 5.73223C10.7366 6.20107 11 6.83696 11 7.5Z" stroke="#5F45BF" stroke-width="1.5" stroke-linecap="round" stroke-linejoin="round"/>
<path id="Vector_676" d="M4 15C7.13087 11.8629 10.8085 12.8489 13 15" stroke="#5F45BF" stroke-width="1.5" stroke-linecap="round"/>
</g>
</svg>
