<svg width="28" height="27" viewBox="0 0 28 27" fill="none" xmlns="http://www.w3.org/2000/svg">
<g id="Vector">
<path id="Vector-29" fill-rule="evenodd" clip-rule="evenodd" d="M2.89627 6.78339C4.23304 5.37393 4.70641 4.97858 5.27551 4.79597C5.66997 4.69221 6.08376 4.68612 6.48109 4.77824C7.0041 4.93071 7.14061 5.04595 8.85678 6.75325C10.3638 8.25313 10.5127 8.41624 10.6581 8.70345C10.9393 9.22039 10.9845 9.83333 10.7822 10.3859C10.6332 10.8026 10.4134 11.0791 9.50035 11.9975L8.90465 12.595C8.74793 12.754 8.71078 12.9955 8.81246 13.1942C10.1348 15.4504 12.0105 17.3322 14.2624 18.6619C14.5221 18.8011 14.8421 18.7559 15.0531 18.5502L15.6257 17.9864C15.9796 17.6233 16.3543 17.2811 16.748 16.9616C17.3653 16.5797 18.1359 16.5428 18.7868 16.8641C19.1042 17.0131 19.2106 17.1106 20.7654 18.6601C22.361 20.2557 22.4124 20.3071 22.5915 20.6741C22.9258 21.282 22.9225 22.0195 22.5826 22.6243C22.4053 22.9647 22.306 23.0888 21.4054 24.0089C20.8611 24.5656 20.3417 25.0727 20.2672 25.1472C19.5234 25.7619 18.5699 26.0638 17.6078 25.9893C15.8477 25.8282 14.1442 25.2836 12.6171 24.3937C9.23235 22.6003 6.35105 19.9872 4.23659 16.7932C3.77421 16.1255 3.3629 15.4238 3.00619 14.6941C2.05575 13.0648 1.5644 11.2084 1.58432 9.3222C1.65581 8.33206 2.12998 7.41448 2.89627 6.78339Z" stroke="#3B2E8C" stroke-width="1.5" stroke-linecap="round" stroke-linejoin="round"/>
<path id="Vector-30" d="M17.9497 0.460595C17.5598 0.320667 17.1303 0.523279 16.9904 0.913142C16.8505 1.303 17.0531 1.73248 17.4429 1.87241L17.9497 0.460595ZM25.682 9.9736C25.8285 10.361 26.2613 10.5564 26.6488 10.4099C27.0362 10.2634 27.2316 9.83057 27.0851 9.44313L25.682 9.9736ZM15.9116 4.42935C15.5075 4.3381 15.106 4.59166 15.0148 4.9957C14.9235 5.39974 15.1771 5.80125 15.5811 5.8925L15.9116 4.42935ZM21.7724 11.9814C21.8704 12.3839 22.276 12.6307 22.6785 12.5327C23.081 12.4347 23.3278 12.0291 23.2298 11.6266L21.7724 11.9814ZM17.4429 1.87241C21.2429 3.23629 24.2542 6.19717 25.682 9.9736L27.0851 9.44313C25.5019 5.25585 22.1631 1.97285 17.9497 0.460595L17.4429 1.87241ZM15.5811 5.8925C18.6336 6.58188 21.0322 8.94081 21.7724 11.9814L23.2298 11.6266C22.3549 8.03255 19.5197 5.24422 15.9116 4.42935L15.5811 5.8925Z" fill="#3B2E8C"/>
</g>
</svg>
