<svg width="18" height="18" viewBox="0 0 18 18" fill="none" xmlns="http://www.w3.org/2000/svg">
<path fill-rule="evenodd" clip-rule="evenodd" d="M1.84565 4.61836C2.70692 3.71026 3.01191 3.45553 3.37858 3.33788C3.63272 3.27103 3.89932 3.26711 4.15532 3.32646C4.49229 3.42469 4.58024 3.49894 5.68596 4.59894C6.65688 5.5653 6.75284 5.67039 6.8465 5.85544C7.02768 6.1885 7.05681 6.58341 6.92646 6.93945C6.83051 7.20788 6.68887 7.38607 6.1006 7.97777L5.7168 8.36271C5.61583 8.46514 5.59189 8.62076 5.6574 8.7488C6.50939 10.2024 7.71789 11.4148 9.16873 12.2716C9.33607 12.3613 9.54224 12.3321 9.67818 12.1996L10.0471 11.8363C10.2751 11.6024 10.5165 11.3819 10.7702 11.1761C11.1679 10.93 11.6644 10.9063 12.0838 11.1133C12.2883 11.2092 12.3568 11.2721 13.3586 12.2704C14.3866 13.2985 14.4197 13.3316 14.5351 13.568C14.7505 13.9597 14.7483 14.4348 14.5294 14.8245C14.4152 15.0438 14.3512 15.1238 13.7709 15.7166C13.4203 16.0753 13.0856 16.402 13.0376 16.45C12.5584 16.846 11.9441 17.0406 11.3242 16.9925C10.1902 16.8888 9.09262 16.5379 8.10871 15.9645C5.92793 14.8091 4.07153 13.1255 2.70921 11.0676C2.4113 10.6374 2.1463 10.1853 1.91647 9.71516C1.30411 8.66538 0.987537 7.46934 1.00038 6.25409C1.04644 5.61615 1.35194 5.02497 1.84565 4.61836Z" stroke="#5F45BF" stroke-width="1.5" stroke-linecap="round" stroke-linejoin="round"/>
<path d="M11.6348 0.294091C11.245 0.154163 10.8155 0.356775 10.6756 0.746638C10.5356 1.1365 10.7382 1.56598 11.1281 1.70591L11.6348 0.294091ZM16.277 6.76868C16.4235 7.15613 16.8564 7.35147 17.2438 7.20498C17.6313 7.05849 17.8266 6.62565 17.6801 6.23821L16.277 6.76868ZM10.2902 2.84187C9.88618 2.75062 9.48467 3.00419 9.39342 3.40823C9.30218 3.81227 9.55574 4.21377 9.95978 4.30502L10.2902 2.84187ZM13.7483 8.03092C13.8463 8.43338 14.252 8.68022 14.6544 8.58224C15.0569 8.48427 15.3037 8.07859 15.2058 7.67613L13.7483 8.03092ZM11.1281 1.70591C13.5029 2.55825 15.3847 4.40863 16.277 6.76868L17.6801 6.23821C16.6325 3.46731 14.423 1.29481 11.6348 0.294091L11.1281 1.70591ZM9.95978 4.30502C11.8277 4.72687 13.2954 6.17034 13.7483 8.03092L15.2058 7.67613C14.6181 5.26207 12.7137 3.38921 10.2902 2.84187L9.95978 4.30502Z" fill="#5F45BF"/>
</svg>
