<svg width="8" height="10" viewBox="0 0 8 10" fill="none" xmlns="http://www.w3.org/2000/svg">
<g id="Vector">
<path id="Vector-26" fill-rule="evenodd" clip-rule="evenodd" d="M1.5673 6.35129H5.91973C6.44398 6.28828 6.86449 5.97053 6.97476 5.55407C7.11062 5.16322 6.98436 4.74374 6.64121 4.44591C6.13236 4.07239 5.46038 3.70931 5.46038 3.16566V1.17489C5.45718 0.997332 5.36627 0.828072 5.20768 0.704354C5.04908 0.580636 4.83579 0.512597 4.61473 0.515209H2.92343C2.70237 0.512597 2.48907 0.580636 2.33048 0.704354C2.17188 0.828072 2.08098 0.997332 2.07778 1.17489V3.16566C2.07778 3.71192 1.40661 4.07239 0.896948 4.44786C0.553796 4.74569 0.427533 5.16517 0.563394 5.55602C0.653377 5.96563 1.05614 6.28469 1.5673 6.35129Z" stroke="#5A5D66" stroke-width="0.651863" stroke-linecap="round" stroke-linejoin="round"/>
<path id="Vector-27" d="M3.74367 6.35156V9.64149" stroke="#5A5D66" stroke-width="0.651863" stroke-linecap="round"/>
</g>
</svg>
