<svg width="28" height="28" viewBox="0 0 28 28" fill="none" xmlns="http://www.w3.org/2000/svg">
<path d="M23.3353 8.2135V19.7868C23.3353 21.5602 23.172 22.8202 22.752 23.7185C22.752 23.7302 22.7403 23.7535 22.7286 23.7652C22.4719 24.0918 22.1336 24.2552 21.737 24.2552C21.1186 24.2552 20.372 23.8468 19.567 22.9835C18.6103 21.9568 17.1403 22.0385 16.3003 23.1585L15.122 24.7218C14.6553 25.3518 14.037 25.6668 13.4186 25.6668C12.8003 25.6668 12.1819 25.3518 11.7153 24.7218L10.5253 23.1468C9.69698 22.0385 8.23861 21.9568 7.28194 22.9718L7.27026 22.9835C5.95193 24.3952 4.78531 24.6052 4.10864 23.7652C4.09698 23.7535 4.08529 23.7302 4.08529 23.7185C3.66529 22.8202 3.50195 21.5602 3.50195 19.7868V8.2135C3.50195 6.44016 3.66529 5.18016 4.08529 4.28183C4.08529 4.27016 4.08531 4.2585 4.10864 4.24683C4.77364 3.39516 5.95193 3.60516 7.27026 5.01683L7.28194 5.0285C8.23861 6.0435 9.69698 5.96183 10.5253 4.8535L11.7153 3.2785C12.1819 2.6485 12.8003 2.3335 13.4186 2.3335C14.037 2.3335 14.6553 2.6485 15.122 3.2785L16.3003 4.84183C17.1403 5.96183 18.6103 6.0435 19.567 5.01683C20.372 4.1535 21.1186 3.74516 21.737 3.74516C22.1336 3.74516 22.4719 3.92016 22.7286 4.24683C22.7519 4.2585 22.752 4.27016 22.752 4.28183C23.172 5.18016 23.3353 6.44016 23.3353 8.2135Z" stroke="#3262AE" stroke-width="0.6144" stroke-linecap="round" stroke-linejoin="round"/>
<path d="M9.33398 11.9583H18.6673" stroke="#3262AE" stroke-width="0.6144" stroke-linecap="round" stroke-linejoin="round"/>
<path d="M9.33398 16.0415H16.334" stroke="#3262AE" stroke-width="0.6144" stroke-linecap="round" stroke-linejoin="round"/>
</svg>
