<svg width="18" height="18" viewBox="0 0 18 18" fill="none" xmlns="http://www.w3.org/2000/svg">
<g id="vuesax/outline/send-square">
<g id="send-square">
<path id="Vector" d="M11.25 0.9375H6.75C2.6775 0.9375 0.9375 2.6775 0.9375 6.75V11.25C0.9375 15.3225 2.6775 17.0625 6.75 17.0625H11.25C15.3225 17.0625 17.0625 15.3225 17.0625 11.25V6.75C17.0625 2.6775 15.3225 0.9375 11.25 0.9375ZM6.75 15.9375C3.2925 15.9375 2.0625 14.7075 2.0625 11.25V6.75C2.0625 3.2925 3.2925 2.0625 6.75 2.0625H11.25C14.7075 2.0625 15.9375 3.2925 15.9375 6.75V11.25C15.9375 14.7075 14.7075 15.9375 11.25 15.9375H6.75Z" fill="#5D5D5D"/>
<path id="Vector_2" d="M11.2501 10.3051C11.1076 10.3051 10.9651 10.3576 10.8526 10.4701L9.00008 12.3226L7.14758 10.4701C6.93008 10.2526 6.57008 10.2526 6.35258 10.4701C6.13508 10.6876 6.13508 11.0476 6.35258 11.2651L8.60258 13.5151C8.82008 13.7326 9.18008 13.7326 9.39758 13.5151L11.6476 11.2651C11.8651 11.0476 11.8651 10.6876 11.6476 10.4701C11.5351 10.3576 11.3926 10.3051 11.2501 10.3051Z" fill="#5D5D5D"/>
<path id="Vector_3" d="M9 6.55493C8.6925 6.55493 8.4375 6.80993 8.4375 7.11743V13.1174C8.4375 13.4249 8.6925 13.6799 9 13.6799C9.3075 13.6799 9.5625 13.4249 9.5625 13.1174V7.11743C9.5625 6.80243 9.3075 6.55493 9 6.55493Z" fill="#5D5D5D"/>
<path id="Vector_4" d="M8.99984 4.32738C7.41734 4.32738 5.82734 4.58238 4.31984 5.08488C4.02734 5.18238 3.86984 5.50488 3.96734 5.79738C4.06484 6.08988 4.38735 6.25488 4.67985 6.14988C7.46985 5.21988 10.5373 5.21988 13.3273 6.14988C13.6198 6.24738 13.9423 6.08988 14.0398 5.79738C14.1373 5.50488 13.9798 5.18238 13.6873 5.08488C12.1723 4.57488 10.5823 4.32738 8.99984 4.32738Z" fill="#5D5D5D"/>
</g>
</g>
</svg>
