<svg width="20" height="20" viewBox="0 0 20 20" fill="none" xmlns="http://www.w3.org/2000/svg">
<g id="vuesax/outline/sms-notification">
<g id="sms-notification">
<path id="Vector" d="M14.167 17.7083H5.83366C2.79199 17.7083 1.04199 15.9583 1.04199 12.9167V7.08332C1.04199 4.04166 2.79199 2.29166 5.83366 2.29166H11.667C12.0087 2.29166 12.292 2.57499 12.292 2.91666C12.292 3.25832 12.0087 3.54166 11.667 3.54166H5.83366C3.45033 3.54166 2.29199 4.69999 2.29199 7.08332V12.9167C2.29199 15.3 3.45033 16.4583 5.83366 16.4583H14.167C16.5503 16.4583 17.7087 15.3 17.7087 12.9167V8.74999C17.7087 8.40832 17.992 8.12499 18.3337 8.12499C18.6753 8.12499 18.9587 8.40832 18.9587 8.74999V12.9167C18.9587 15.9583 17.2087 17.7083 14.167 17.7083Z" fill="#091033"/>
<path id="Vector_2" d="M9.99998 10.725C9.29998 10.725 8.59165 10.5084 8.04998 10.0667L5.44164 7.98336C5.17498 7.7667 5.12498 7.37503 5.34165 7.10836C5.55831 6.84169 5.94997 6.7917 6.21664 7.00836L8.82497 9.0917C9.45831 9.60003 10.5333 9.60003 11.1666 9.0917L12.15 8.30836C12.4166 8.0917 12.8166 8.13336 13.025 8.40836C13.2416 8.67503 13.2 9.07503 12.925 9.28336L11.9416 10.0667C11.4083 10.5084 10.7 10.725 9.99998 10.725Z" fill="#091033"/>
<path id="Vector_3" d="M16.2503 7.29167C14.7587 7.29167 13.542 6.075 13.542 4.58333C13.542 3.09167 14.7587 1.875 16.2503 1.875C17.742 1.875 18.9587 3.09167 18.9587 4.58333C18.9587 6.075 17.742 7.29167 16.2503 7.29167ZM16.2503 3.125C15.4503 3.125 14.792 3.78333 14.792 4.58333C14.792 5.38333 15.4503 6.04167 16.2503 6.04167C17.0503 6.04167 17.7087 5.38333 17.7087 4.58333C17.7087 3.78333 17.0503 3.125 16.2503 3.125Z" fill="#091033"/>
</g>
</g>
</svg>
