<svg width="22" height="20" viewBox="0 0 22 20" fill="none" xmlns="http://www.w3.org/2000/svg">
<g id="Group_2634">
<path id="Vector" d="M8.59601 14.6419C8.83977 14.307 8.76589 13.8379 8.431 13.5941C8.0961 13.3503 7.62701 13.4242 7.38325 13.7591L8.59601 14.6419ZM3.88985 18.5586C3.64609 18.8934 3.71997 19.3625 4.05486 19.6063C4.38976 19.8501 4.85885 19.7762 5.10261 19.4413L3.88985 18.5586ZM3.74387 18.9997C3.74387 19.4139 4.07966 19.7497 4.49387 19.7497C4.90809 19.7497 5.24387 19.4139 5.24387 18.9997H3.74387ZM5.24387 1.00023C5.24387 0.586014 4.90809 0.250227 4.49387 0.250227C4.07966 0.250227 3.74387 0.586014 3.74387 1.00023H5.24387ZM3.88833 19.4413C4.13215 19.7762 4.60125 19.85 4.9361 19.6062C5.27096 19.3623 5.34475 18.8932 5.10094 18.5584L3.88833 19.4413ZM1.6063 13.759C1.36249 13.4241 0.893382 13.3503 0.55853 13.5941C0.223678 13.8379 0.149879 14.307 0.393696 14.6419L1.6063 13.759ZM9.15253 0.25C8.73832 0.25 8.40253 0.585786 8.40253 1C8.40253 1.41421 8.73832 1.75 9.15253 1.75V0.25ZM20.7997 1.75C21.2139 1.75 21.5497 1.41421 21.5497 1C21.5497 0.585786 21.2139 0.25 20.7997 0.25V1.75ZM9.15253 3.8501C8.73832 3.8501 8.40253 4.18588 8.40253 4.6001C8.40253 5.01431 8.73832 5.3501 9.15253 5.3501V3.8501ZM18.4695 5.3501C18.8837 5.3501 19.2195 5.01431 19.2195 4.6001C19.2195 4.18588 18.8837 3.8501 18.4695 3.8501V5.3501ZM9.15253 7.4502C8.73832 7.4502 8.40253 7.78598 8.40253 8.2002C8.40253 8.61441 8.73832 8.9502 9.15253 8.9502V7.4502ZM16.1406 8.9502C16.5548 8.9502 16.8906 8.61441 16.8906 8.2002C16.8906 7.78598 16.5548 7.4502 16.1406 7.4502V8.9502ZM7.38325 13.7591L3.88985 18.5586L5.10261 19.4413L8.59601 14.6419L7.38325 13.7591ZM5.24387 18.9997V1.00023H3.74387V18.9997H5.24387ZM5.10094 18.5584L1.6063 13.759L0.393696 14.6419L3.88833 19.4413L5.10094 18.5584ZM9.15253 1.75H20.7997V0.25H9.15253V1.75ZM9.15253 5.3501H18.4695V3.8501H9.15253V5.3501ZM9.15253 8.9502H16.1406V7.4502H9.15253V8.9502Z" fill="#5F45BF"/>
</g>
</svg>
