<svg width="22" height="24" viewBox="0 0 22 24" fill="none" xmlns="http://www.w3.org/2000/svg">
    <g id="Vector">
        <g id="Group_2603">
            <path id="Vector_2"
                d="M0.798828 6.42893C0.388757 6.42893 0.0563281 6.76136 0.0563281 7.17143C0.0563281 7.5815 0.388757 7.91393 0.798828 7.91393V6.42893ZM4.99031 7.91393C5.40038 7.91393 5.73281 7.5815 5.73281 7.17143C5.73281 6.76136 5.40038 6.42893 4.99031 6.42893V7.91393ZM7.78525 6.42893C7.37518 6.42893 7.04275 6.76136 7.04275 7.17143C7.04275 7.5815 7.37518 7.91393 7.78525 7.91393V6.42893ZM16.1682 7.91393C16.5783 7.91393 16.9107 7.5815 16.9107 7.17143C16.9107 6.76136 16.5783 6.42893 16.1682 6.42893V7.91393ZM10.5793 11.0577C10.1692 11.0577 9.8368 11.3901 9.8368 11.8002C9.8368 12.2103 10.1692 12.5427 10.5793 12.5427V11.0577ZM16.1679 12.5427C16.578 12.5427 16.9104 12.2103 16.9104 11.8002C16.9104 11.3901 16.578 11.0577 16.1679 11.0577V12.5427ZM13.3729 15.686C12.9628 15.686 12.6304 16.0184 12.6304 16.4285C12.6304 16.8386 12.9628 17.171 13.3729 17.171V15.686ZM16.1672 17.171C16.5773 17.171 16.9097 16.8386 16.9097 16.4285C16.9097 16.0184 16.5773 15.686 16.1672 15.686V17.171ZM0.798828 11.0577C0.388757 11.0577 0.0563281 11.3901 0.0563281 11.8002C0.0563281 12.2103 0.388757 12.5427 0.798828 12.5427V11.0577ZM4.99031 12.5427C5.40038 12.5427 5.73281 12.2103 5.73281 11.8002C5.73281 11.3901 5.40038 11.0577 4.99031 11.0577V12.5427ZM0.798828 15.686C0.388757 15.686 0.0563281 16.0184 0.0563281 16.4285C0.0563281 16.8386 0.388757 17.171 0.798828 17.171V15.686ZM4.99031 17.171C5.40038 17.171 5.73281 16.8386 5.73281 16.4285C5.73281 16.0184 5.40038 15.686 4.99031 15.686V17.171ZM0.798828 7.91393H4.99031V6.42893H0.798828V7.91393ZM7.78525 7.91393H16.1682V6.42893H7.78525V7.91393ZM10.5793 12.5427H16.1679V11.0577H10.5793V12.5427ZM13.3729 17.171H16.1672V15.686H13.3729V17.171ZM0.798828 12.5427H4.99031V11.0577H0.798828V12.5427ZM0.798828 17.171H4.99031V15.686H0.798828V17.171ZM4.33537 19.5143V4.08571H2.85037V19.5143H4.33537ZM4.33537 4.08571C4.33537 2.72058 5.32158 1.7425 6.38719 1.7425V0.2575C4.36628 0.2575 2.85037 2.04246 2.85037 4.08571H4.33537ZM6.38719 1.7425H17.5645V0.2575H6.38719V1.7425ZM17.5645 1.7425C18.6301 1.7425 19.6163 2.72058 19.6163 4.08571H21.1013C21.1013 2.04246 19.5854 0.2575 17.5645 0.2575V1.7425ZM19.6163 4.08571V19.5143H21.1013V4.08571H19.6163ZM19.6163 19.5143C19.6163 20.8794 18.6301 21.8575 17.5645 21.8575V23.3425C19.5854 23.3425 21.1013 21.5575 21.1013 19.5143H19.6163ZM17.5645 21.8575H6.38719V23.3425H17.5645V21.8575ZM6.38719 21.8575C5.32158 21.8575 4.33537 20.8794 4.33537 19.5143H2.85037C2.85037 21.5575 4.36628 23.3425 6.38719 23.3425V21.8575Z"
                fill="#FAFAFA" />
        </g>
    </g>
</svg>
