<svg width="4" height="15" viewBox="0 0 4 15" fill="none" xmlns="http://www.w3.org/2000/svg">
<g id="Vector">
<path id="Vector-11" fill-rule="evenodd" clip-rule="evenodd" d="M1.875 11.25C2.91053 11.25 3.75 12.0895 3.75 13.125C3.75 14.1605 2.91053 15 1.875 15C0.839466 15 -3.66942e-08 14.1605 -8.19588e-08 13.125C-1.03696e-07 12.6277 0.197544 12.1508 0.549175 11.7992C0.900805 11.4475 1.37772 11.25 1.875 11.25Z" fill="#3B2E8C"/>
<path id="Vector-12" fill-rule="evenodd" clip-rule="evenodd" d="M1.875 5.625C2.91053 5.625 3.75 6.46447 3.75 7.5C3.75 8.53553 2.91053 9.375 1.875 9.375C0.839466 9.375 -3.66942e-08 8.53553 -8.19588e-08 7.5C-1.27223e-07 6.46447 0.839466 5.625 1.875 5.625Z" fill="#3B2E8C"/>
<path id="Vector-13" fill-rule="evenodd" clip-rule="evenodd" d="M1.875 6.33297e-07C2.91053 5.88032e-07 3.75 0.839467 3.75 1.875C3.75 2.91053 2.91053 3.75 1.875 3.75C0.839466 3.75 -3.66942e-08 2.91053 -8.19588e-08 1.875C-1.27223e-07 0.839467 0.839466 6.78562e-07 1.875 6.33297e-07Z" fill="#3B2E8C"/>
</g>
</svg>
