<svg width="24" height="24" viewBox="0 0 24 24" fill="none" xmlns="http://www.w3.org/2000/svg">
    <g id="vuesax/outline/ticket-star">
        <g id="ticket-star">
            <path id="Vector" opacity="0.7"
                d="M1.7591 8.50497L1.75926 8.50498L1.75957 8.49262C1.80877 6.54417 2.17717 5.41788 2.91033 4.7495C3.65372 4.07179 4.89441 3.75 6.99973 3.75H16.9997C19.1875 3.75 20.4408 4.09065 21.1749 4.8248C21.9091 5.55896 22.2497 6.81222 22.2497 9V15C22.2497 17.1878 21.9091 18.441 21.1749 19.1752C20.4408 19.9094 19.1875 20.25 16.9997 20.25H6.99973C4.89441 20.25 3.65372 19.9282 2.91033 19.2505C2.17812 18.583 1.80973 17.4587 1.75976 15.515C1.76094 15.427 1.79284 15.364 1.82328 15.3336C1.88019 15.2766 1.94671 15.25 2.00973 15.25C3.79823 15.25 5.24973 13.7838 5.24973 12C5.24973 10.2162 3.79823 8.75 2.00973 8.75C1.94867 8.75 1.88409 8.72726 1.82328 8.66645C1.77394 8.61711 1.7561 8.56493 1.7591 8.50497ZM2.69503 15.6891L2.26135 15.7727L2.29084 16.2134C2.37749 17.5079 2.64548 18.4851 3.4765 19.0752C3.87709 19.3596 4.36898 19.5241 4.94119 19.6206C5.51278 19.7169 6.19547 19.75 6.99973 19.75H16.9997C17.9036 19.75 18.6588 19.7078 19.2774 19.5772C19.9015 19.4454 20.4225 19.2164 20.8211 18.8169C21.2198 18.4175 21.4476 17.8963 21.5784 17.2729C21.7081 16.655 21.7497 15.9011 21.7497 15V9C21.7497 8.09888 21.7081 7.34503 21.5784 6.72714C21.4476 6.10372 21.2198 5.58249 20.8211 5.18306C20.4225 4.78357 19.9015 4.55456 19.2774 4.42281C18.6588 4.29224 17.9036 4.25 16.9997 4.25H6.99973C6.19516 4.25 5.5123 4.28379 4.94048 4.38097C4.36801 4.47827 3.8763 4.6439 3.47597 4.92895C2.64578 5.52007 2.37754 6.49632 2.29085 7.78648L2.26123 8.22727L2.69503 8.31095C4.43579 8.64673 5.74973 10.1757 5.74973 12C5.74973 13.8243 4.43579 15.3533 2.69503 15.6891Z"
                stroke="#191F6D" />
            <path id="Vector_2" opacity="0.7"
                d="M9 7.75C8.86614 7.75 8.75 7.63386 8.75 7.5V4C8.75 3.86614 8.86614 3.75 9 3.75C9.13386 3.75 9.25 3.86614 9.25 4V7.5C9.25 7.63386 9.13386 7.75 9 7.75Z"
                stroke="#191F6D" />
            <path id="Vector_3" opacity="0.7"
                d="M9 20.25C8.86614 20.25 8.75 20.1339 8.75 20V16.5C8.75 16.3661 8.86614 16.25 9 16.25C9.13386 16.25 9.25 16.3661 9.25 16.5V20C9.25 20.1339 9.13386 20.25 9 20.25Z"
                stroke="#191F6D" />
            <path id="Vector_4" opacity="0.7"
                d="M12.3921 14.3794L12.3925 14.3769L12.6025 13.1869L12.6484 12.9269L12.4596 12.7424L11.5896 11.8924L11.5896 11.8924L11.588 11.8909C11.4085 11.717 11.3428 11.4568 11.4162 11.213C11.4996 10.969 11.7059 10.7984 11.9477 10.7654L11.9477 10.7655L11.9543 10.7645L13.1543 10.5845L13.4123 10.5458L13.5282 10.312L14.0674 9.22361C14.0675 9.22338 14.0676 9.22315 14.0677 9.22292C14.1849 8.98919 14.4137 8.85001 14.6601 8.85001C14.9211 8.85001 15.143 8.99249 15.2485 9.21453L15.2484 9.21456L15.2521 9.22197L15.7921 10.312L15.9079 10.5458L16.166 10.5845L17.366 10.7645L17.366 10.7645L17.3726 10.7654C17.6161 10.7986 17.8236 10.9714 17.9058 11.2181C17.9827 11.4487 17.9196 11.7094 17.7322 11.8909L17.7322 11.8909L17.7307 11.8924L16.8607 12.7424L16.6719 12.9269L16.7178 13.1869L16.9278 14.3769L16.9277 14.3769L16.9282 14.3794C16.9734 14.6283 16.8726 14.8765 16.6674 15.0247C16.4634 15.172 16.1958 15.191 15.9699 15.0759L14.902 14.517L14.6712 14.3962L14.44 14.5161L13.36 15.0761L13.36 15.0761L13.3562 15.0781C13.2686 15.1245 13.1611 15.15 13.0401 15.15C12.9106 15.15 12.7709 15.1063 12.6499 15.0225C12.4467 14.8741 12.3471 14.6271 12.3921 14.3794ZM12.7014 11.1548L11.6936 11.2947L12.4201 12.007L12.9301 12.507L12.9301 12.5071L12.9331 12.5099C13.0906 12.6618 13.1612 12.8753 13.1267 13.0992L13.0073 13.7955L12.8365 14.7921L13.7321 14.3229L14.3621 13.9929L14.3621 13.9929L14.3641 13.9919C14.5577 13.8894 14.7825 13.8894 14.9762 13.9919L14.9781 13.9929L15.6081 14.3229L16.5038 14.7921L16.333 13.7955L16.2138 13.1002C16.178 12.8609 16.2532 12.653 16.4004 12.5164L16.4005 12.5165L16.4102 12.507L16.9202 12.007L17.6432 11.2982L16.6409 11.155L15.945 11.0556C15.7245 11.0198 15.5352 10.8802 15.4386 10.6888L15.1301 10.052L14.6801 9.12303L14.2302 10.052L13.9217 10.6888C13.8252 10.8799 13.6363 11.0194 13.4161 11.0555L12.7014 11.1548Z"
                stroke="#191F6D" />
        </g>
    </g>
</svg>
