<svg width="19" height="19" viewBox="0 0 19 19" fill="none" xmlns="http://www.w3.org/2000/svg">
    <g id="vuesax/outline/user">
        <g id="user">
            <path id="Vector"
                d="M9.50008 10.0938C6.9905 10.0938 4.948 8.05125 4.948 5.54167C4.948 3.03209 6.9905 0.989586 9.50008 0.989586C12.0097 0.989586 14.0522 3.03209 14.0522 5.54167C14.0522 8.05125 12.0097 10.0938 9.50008 10.0938ZM9.50008 2.17709C7.64758 2.17709 6.1355 3.68917 6.1355 5.54167C6.1355 7.39417 7.64758 8.90625 9.50008 8.90625C11.3526 8.90625 12.8647 7.39417 12.8647 5.54167C12.8647 3.68917 11.3526 2.17709 9.50008 2.17709Z"
                fill="#191F6D" />
            <path id="Vector_2"
                d="M16.3005 18.0104C15.976 18.0104 15.7068 17.7412 15.7068 17.4167C15.7068 14.6854 12.9201 12.4688 9.50012 12.4688C6.08012 12.4688 3.29346 14.6854 3.29346 17.4167C3.29346 17.7412 3.02429 18.0104 2.69971 18.0104C2.37512 18.0104 2.10596 17.7412 2.10596 17.4167C2.10596 14.0362 5.42304 11.2812 9.50012 11.2812C13.5772 11.2812 16.8943 14.0362 16.8943 17.4167C16.8943 17.7412 16.6251 18.0104 16.3005 18.0104Z"
                fill="#191F6D" />
        </g>
    </g>
</svg>
