<svg width="15" height="15" viewBox="0 0 15 15" fill="none" xmlns="http://www.w3.org/2000/svg">
<path d="M14.1561 12.9815C14.5617 13.4308 14.5617 14.1048 14.1561 14.5092C13.7054 14.9585 13.0293 14.9585 12.6236 14.5092L7.30512 9.16231L1.94154 14.5092C1.49082 14.9585 0.814735 14.9585 0.409086 14.5092C-0.0416354 14.1048 -0.0416354 13.4308 0.409086 12.9815L5.77267 7.63463L0.409086 2.28776C-0.0416354 1.83844 -0.0416354 1.16447 0.409086 0.760083C0.814735 0.310766 1.49082 0.310766 1.89647 0.760083L7.30512 6.15189L12.6687 0.805015C13.0743 0.355698 13.7504 0.355698 14.1561 0.805015C14.6068 1.2094 14.6068 1.88338 14.1561 2.33269L8.7925 7.63463L14.1561 12.9815Z" fill="#C3C3C3"/>
</svg>
